<svg id="Group_1193" data-name="Group 1193" xmlns="http://www.w3.org/2000/svg" width="44" height="44" viewBox="0 0 44 44">
  <path id="Path_230" data-name="Path 230" d="M35.75,44H8.25A8.249,8.249,0,0,1,0,35.75V8.25A8.249,8.249,0,0,1,8.25,0h27.5A8.249,8.249,0,0,1,44,8.25v27.5A8.249,8.249,0,0,1,35.75,44Z" transform="translate(0 0)"/>
  <g id="Group_1162" data-name="Group 1162" transform="translate(-0.075 -0.066)">
    <g id="linkedin" transform="translate(11.075 11.066)">
      <path id="Path_3435" data-name="Path 3435" d="M22.6,22.528h.005V14.514c0-3.92-.844-6.94-5.427-6.94A4.758,4.758,0,0,0,12.9,9.929h-.064V7.94H8.489V22.527h4.525V15.3c0-1.9.361-3.741,2.716-3.741,2.321,0,2.355,2.17,2.355,3.863v7.1Z" transform="translate(-0.61 -0.528)" fill="#fff"/>
      <path id="Path_3436" data-name="Path 3436" d="M.4,7.977h4.53V22.564H.4Z" transform="translate(-0.035 -0.564)" fill="#fff"/>
      <path id="Path_3437" data-name="Path 3437" d="M2.624,0A2.636,2.636,0,1,0,5.248,2.624,2.625,2.625,0,0,0,2.624,0Z" fill="#fff"/>
    </g>
  </g>
</svg>
