<?xml version="1.0" standalone="no"?>
<!DOCTYPE svg PUBLIC "-//W3C//DTD SVG 1.1//EN" "http://www.w3.org/Graphics/SVG/1.1/DTD/svg11.dtd" >
<svg xmlns="http://www.w3.org/2000/svg" xmlns:xlink="http://www.w3.org/1999/xlink" version="1.1">
<metadata>
Created by FontForge 20170731 at Wed Jan  5 08:47:51 2022
 By Aleksey,,,
Copyright (c) 2020 Lee Mounsey-Smith
</metadata>
<defs>
<font id="Dismedia-Regular" horiz-adv-x="1181" >
  <font-face 
    font-family="Dismedia"
    font-weight="400"
    font-stretch="normal"
    units-per-em="2048"
    panose-1="0 0 0 0 0 0 0 0 0 0"
    ascent="1638"
    descent="-410"
    x-height="981"
    cap-height="1432"
    bbox="-193.914 -707 3752 1931"
    underline-thickness="102"
    underline-position="-358"
    unicode-range="U+0002-FB05"
  />
<missing-glyph horiz-adv-x="634" 
 />
    <glyph glyph-name="f_f" unicode="ff" horiz-adv-x="1656" 
d="M117 668q-31 0 -53.5 21t-22.5 50v168q0 32 22.5 54t53.5 22h73q15 0 26 11t11 28v59q0 145 103 248t248 103h206q43 0 66 -37.5t4 -75.5l-84 -164q-21 -43 -68 -43h-14q-40 0 -69 -28.5t-29 -69.5v-6q0 -10 7.5 -17.5t18.5 -7.5h189q15 0 26 11t11 28v59
q0 145 102.5 248t247.5 103h348q32 0 54 -21.5t22 -52.5v-170q0 -31 -22.5 -53.5t-53.5 -22.5h-240q-40 0 -68 -28.5t-28 -69.5v-6q0 -11 7.5 -18t19.5 -7h166q31 0 52 -22t21 -54v-168q0 -28 -21.5 -49.5t-51.5 -21.5h-166q-11 0 -19 -8t-8 -17v-569q0 -31 -21.5 -52.5
t-52.5 -21.5h-215q-31 0 -53 21.5t-22 52.5v555q0 15 -11 27t-26 12h-187q-10 0 -18 -8t-8 -17v-569q0 -31 -21.5 -52.5t-52.5 -21.5h-215q-31 0 -52.5 21.5t-21.5 52.5v555q0 15 -12 27t-27 12h-71z" />
    <glyph glyph-name="fi" unicode="fi" 
d="M115 668q-31 0 -52.5 21t-21.5 50v168q0 32 21.5 54t52.5 22h71q15 0 27 12t12 27v59q0 145 102 248t246 103h496q31 0 51.5 -22t20.5 -54v-168q0 -32 -20.5 -54t-51.5 -22h-383q-40 0 -70 -28.5t-30 -69.5v-8q0 -9 8 -16t18 -7h457q31 0 51.5 -22t20.5 -54v-833
q0 -32 -20.5 -53t-51.5 -21h-254q-31 0 -52.5 21t-21.5 53v567q0 11 -8 19t-18 8h-103q-10 0 -18 -8t-8 -17v-569q0 -32 -20.5 -53t-51.5 -21h-217q-31 0 -52.5 21.5t-21.5 52.5v555q0 15 -12 27t-27 12h-69z" />
    <glyph glyph-name="fl" unicode="fl" horiz-adv-x="1308" 
d="M117 668q-31 0 -53.5 21t-22.5 50v168q0 32 22.5 54t53.5 22h73q15 0 26 12t11 27v59q0 145 102.5 248t245.5 103h619q31 0 52.5 -22.5t21.5 -53.5v-1284q0 -31 -20.5 -51.5t-51.5 -20.5h-264q-32 0 -54 20.5t-22 51.5v1015q0 11 -7 18t-18 7h-145q-40 0 -69 -28.5
t-29 -69.5v-8q0 -9 8 -16t18 -7h103q31 0 52.5 -22.5t21.5 -53.5v-168q0 -30 -21 -50.5t-53 -20.5h-103q-10 0 -18 -8t-8 -17v-569q0 -32 -20.5 -53t-51.5 -21h-215q-31 0 -52.5 21.5t-21.5 52.5v555q0 15 -12 27t-27 12h-71z" />
    <glyph glyph-name="f_f_i" unicode="ffi" horiz-adv-x="1869" 
d="M41 907q0 32 22.5 54t53.5 22h71q17 0 28 11t11 28v59q0 145 103 248t248 103h206q43 0 66 -37.5t4 -75.5l-74 -164q-10 -18 -33 -30.5t-45 -12.5h-14q-40 0 -69 -28.5t-29 -69.5v-6q0 -11 7 -18t19 -7h187q17 0 28 11t11 28v59q0 145 102.5 248t247.5 103h563
q31 0 52.5 -22t21.5 -54v-168q0 -31 -21.5 -53.5t-52.5 -22.5h-442q-40 0 -69.5 -28.5t-29.5 -69.5v-6q0 -10 7 -17.5t18 -7.5h516q31 0 52.5 -22t21.5 -54v-833q0 -31 -21.5 -52.5t-52.5 -21.5h-254q-31 0 -52.5 21.5t-21.5 52.5v567q0 11 -6 19t-16 8h-166q-10 0 -17.5 -8
t-7.5 -17v-569q0 -31 -21 -52.5t-52 -21.5h-226q-31 0 -53 21.5t-22 52.5v555q0 15 -11 27t-26 12h-187q-11 0 -18.5 -7.5t-7.5 -17.5v-569q0 -31 -21.5 -52.5t-52.5 -21.5h-215q-31 0 -53.5 21.5t-22.5 52.5v555q0 15 -11 27t-26 12h-71q-31 0 -53.5 21t-22.5 50v168z" />
    <glyph glyph-name="f_f_l" unicode="ffl" horiz-adv-x="1923" 
d="M117 668q-31 0 -53.5 21t-22.5 50v168q0 32 22.5 54t53.5 22h71q17 0 28 11t11 28v59q0 145 102.5 248t245.5 103h205q43 0 65.5 -37.5t2.5 -75.5l-82 -164q-21 -43 -68 -43h-12q-40 0 -69 -28.5t-29 -69.5v-6q0 -11 7 -18t19 -7h187q17 0 28 11t11 28v59q0 39 8 72
q8 46 35 94q42 84 127 134.5t180 50.5h618q31 0 52.5 -22.5t21.5 -53.5v-1282q0 -31 -21.5 -52.5t-52.5 -21.5h-262q-32 0 -54 21.5t-22 52.5v1013q0 11 -7 18t-17 7h-146q-17 0 -32 -6q-22 0 -44 -32t-22 -60v-6q0 -11 7.5 -18t19.5 -7h100q32 0 54 -22t22 -54v-168
q0 -30 -22.5 -50.5t-53.5 -20.5h-100q-10 0 -19 -9q-8 -5 -8 -16v-569q0 -39 -33 -62q-15 -12 -41 -12h-215q-31 0 -53 21.5t-22 52.5v555q0 15 -11 27t-26 12h-187q-11 0 -18.5 -7.5t-7.5 -17.5v-569q0 -31 -21.5 -52.5t-52.5 -21.5h-213q-31 0 -53.5 21.5t-22.5 52.5v555
q0 15 -11 27t-26 12h-71z" />
    <glyph glyph-name="longs_t" unicode="&#x17f;t" horiz-adv-x="1583" 
d="M115 0q-31 0 -52.5 21.5t-21.5 52.5l2 1007q0 145 102 248t246 103h481q32 0 54 -21.5t22 -52.5v-350q0 -10 7 -17.5t16 -7.5h495q32 0 54 -22t22 -54v-168q0 -28 -22 -49.5t-54 -21.5h-495q-9 0 -16 -8t-7 -17v-281q0 -19 14.5 -34t34.5 -15h72q33 0 60.5 19.5
t39.5 50.5q1 1 2.5 4t2.5 4q15 33 47 33h270q22 0 36.5 -14.5t14.5 -36.5v-66q0 -127 -89.5 -217t-215.5 -90h-406q-102 0 -173.5 72t-71.5 174v866h-82q-40 0 -70.5 -28.5t-30.5 -69.5v-940q0 -31 -21 -52.5t-50 -21.5h-217z" />
    <glyph glyph-name=".notdef" horiz-adv-x="634" 
 />
    <glyph glyph-name=".null" horiz-adv-x="0" 
 />
    <glyph glyph-name="uni000D" unicode="&#xd;" horiz-adv-x="512" 
 />
    <glyph glyph-name="uni0002" horiz-adv-x="681" 
 />
    <glyph glyph-name="uni0009" unicode="&#x9;" horiz-adv-x="163" 
 />
    <glyph glyph-name="uni000A" unicode="&#xa;" horiz-adv-x="681" 
 />
    <glyph glyph-name="space" unicode=" " horiz-adv-x="573" 
 />
    <glyph glyph-name="exclam" unicode="!" horiz-adv-x="483" 
d="M127 395q-35 0 -60.5 25.5t-25.5 60.5v865q0 35 25.5 60.5t60.5 25.5h229q35 0 60.5 -25.5t25.5 -60.5v-865q0 -35 -25.5 -60.5t-60.5 -25.5h-229zM41 86v127q0 35 25.5 60.5t60.5 25.5h229q35 0 60.5 -25.5t25.5 -60.5v-127q0 -35 -25.5 -60.5t-60.5 -25.5h-229
q-35 0 -60.5 25.5t-25.5 60.5z" />
    <glyph glyph-name="quotedbl" unicode="&#x22;" horiz-adv-x="804" 
d="M453 1118v426q0 31 21 52.5t52 21.5h166q31 0 52.5 -21.5t21.5 -52.5v-426q0 -31 -21.5 -52.5t-52.5 -21.5h-166q-31 0 -52 21.5t-21 52.5zM41 1118v426q0 31 21.5 52.5t52.5 21.5h166q31 0 52 -21.5t21 -52.5v-426q0 -31 -21 -52.5t-52 -21.5h-166q-31 0 -52.5 21.5
t-21.5 52.5z" />
    <glyph glyph-name="numbersign" unicode="#" horiz-adv-x="1642" 
d="M90 201q-22 0 -36.5 17t-10.5 38l43 311q7 45 49 45h133q9 0 17 6.5t8 14.5l22 160q1 10 -6 18t-18 8h-115q-22 0 -36.5 18t-10.5 40l43 313q3 19 16 31t33 12h154l20 158q3 19 16.5 30t32.5 11h314q22 0 36.5 -18t10.5 -40l-14 -114q-2 -11 5 -19t17 -8h162q21 0 24 20
l19 138q7 41 49 41h311q22 0 38.5 -18t13.5 -40l-21 -141h143q22 0 37.5 -17.5t12.5 -39.5l-46 -314q-3 -19 -16 -31t-33 -12h-135q-8 0 -15.5 -5.5t-8.5 -14.5l-21 -160q-2 -11 5.5 -19t17.5 -8h114q22 0 38.5 -17.5t13.5 -39.5l-46 -313q-7 -41 -49 -41h-155l-23 -158
q-3 -19 -16 -31t-33 -12h-311q-23 0 -37.5 17t-11.5 40l16 115q2 11 -5.5 20t-19.5 9h-161q-8 0 -16 -7t-9 -16l-18 -135q-3 -19 -17 -31t-33 -12h-309q-23 0 -37.5 17t-11.5 40l20 144h-143zM705 639q-2 -11 5 -19t17 -8h162q9 0 15.5 6.5t8.5 14.5l23 160q2 11 -5.5 18.5
t-19.5 7.5h-161q-8 0 -16 -5.5t-9 -14.5z" />
    <glyph glyph-name="dollar" unicode="$" horiz-adv-x="1554" 
d="M41 449q0 19 12.5 32t32.5 13l272 -2q19 0 30 -12t11 -31q0 -41 30.5 -70t70.5 -29h506q40 0 68 27t30 65q1 40 -25 66.5t-71 34.5q-29 4 -258.5 16.5t-296.5 18.5q-43 3 -92 16.5t-107.5 44t-104.5 74t-77 113.5t-31 155q0 229 97 340t315 111h118v108q0 35 25.5 61.5
t60.5 26.5h240q35 0 60.5 -26.5t25.5 -61.5v-108h184q144 0 245 -102t101 -247v-100q0 -19 -12 -31t-31 -12h-272q-19 0 -32 11.5t-13 31.5q0 40 -28.5 69t-69.5 29h-510q-38 0 -66 -28t-28 -68q0 -45 18 -67t78 -29q48 -6 268 -17t289 -18q132 -12 194 -35
q215 -77 215 -375q0 -87 -18 -156.5t-46 -115t-71.5 -79t-83.5 -51t-93 -27.5t-90.5 -12.5t-84.5 -2.5h-43v-106q0 -36 -25.5 -62.5t-60.5 -26.5h-240q-35 0 -60.5 26.5t-25.5 62.5v106h-135q-163 0 -279 116t-116 279v54z" />
    <glyph glyph-name="percent" unicode="%" horiz-adv-x="2179" 
d="M186 0q-17 0 -22.5 16.5t6.5 28.5l1352 1348q37 37 90 37h381q17 0 23.5 -16t-5.5 -28l-1354 -1347q-39 -39 -90 -39h-381zM41 983v205q0 101 72 172.5t172 71.5h348q101 0 173.5 -71.5t72.5 -172.5v-205q0 -101 -72.5 -172.5t-173.5 -71.5h-348q-100 0 -172 71.5
t-72 172.5zM1544 0q-100 0 -172 72.5t-72 173.5v205q0 6 5 41q0 1 1 4t1 4q17 84 83.5 139t153.5 55h350q100 0 172 -71t72 -172v-205q0 -15 -4 -43v-6q-17 -84 -85 -140.5t-155 -56.5h-350zM387 1196q-30 0 -51 -21t-21 -51v-77q0 -30 21 -51t51 -21h145q29 0 50.5 21.5
t21.5 50.5v77q0 29 -21.5 50.5t-50.5 21.5h-145zM1649 459q-30 0 -51 -21t-21 -51v-78q0 -29 20.5 -50t51.5 -21h143q29 0 50.5 21t21.5 50v78q0 29 -21.5 50.5t-50.5 21.5h-143z" />
    <glyph glyph-name="ampersand" unicode="&#x26;" horiz-adv-x="1804" 
d="M387 0q-144 0 -245 101.5t-101 244.5v211q0 98 49.5 178t134.5 125q-18 63 -18 109v116q0 143 102 245t244 102h446q144 0 245.5 -102t101.5 -245v-120q0 -32 -21.5 -54t-52.5 -22h-262q-30 0 -52 22t-22 54v18q0 41 -28.5 69.5t-69.5 28.5h-119q-41 0 -70 -28t-31 -68
v-2q0 -48 41 -78q160 -121 357 -266q8 -6 18.5 -5t16.5 9l18 25q50 63 123 99t154 36h206q32 0 54 -21.5t22 -52.5v-201q0 -31 -22 -52t-54 -21h-122q-29 0 -56 -17q-3 -1 -5.5 -4t-6 -8t-6.5 -8q-6 -7 -5.5 -18t7.5 -17q343 -260 387 -295q28 -22 16 -55t-47 -33h-416
q-25 0 -47 16l-102 74q-6 6 -16.5 6t-16.5 -6q-96 -90 -227 -90h-502zM449 424q0 -41 28.5 -70.5t69.5 -29.5h280q-35 26 -39 28l-253 193q-11 8 -23 2q-28 -11 -45.5 -34.5t-17.5 -55.5v-33z" />
    <glyph glyph-name="quotesingle" unicode="'" horiz-adv-x="428" 
d="M72 1126v428q0 31 21 52.5t52 21.5h168q31 0 52.5 -21.5t21.5 -52.5v-428q0 -31 -21.5 -52t-52.5 -21h-166q-31 0 -53 21t-22 52z" />
    <glyph glyph-name="parenleft" unicode="(" horiz-adv-x="675" 
d="M41 152v1128q0 145 100.5 246.5t243.5 101.5h174q32 0 54 -22.5t22 -53.5v-215q0 -32 -22 -53.5t-54 -21.5h-57q-41 0 -70 -29t-29 -70v-893q0 -41 29 -70.5t70 -29.5h57q32 0 54 -21t22 -53v-217q0 -31 -22 -52.5t-54 -21.5h-174q-143 0 -243.5 101t-100.5 246z" />
    <glyph glyph-name="parenright" unicode=")" horiz-adv-x="675" 
d="M41 1337v217q0 31 20.5 52.5t51.5 21.5h176q143 0 244.5 -101t101.5 -245v-1128q0 -145 -101.5 -247t-244.5 -102h-176q-30 0 -51 22.5t-21 53.5v217q0 32 20.5 53t51.5 21h57q41 0 69.5 29.5t28.5 70.5v891q0 42 -28.5 71.5t-69.5 29.5h-57q-31 0 -51.5 20.5t-20.5 52.5
z" />
    <glyph glyph-name="asterisk" unicode="*" horiz-adv-x="772" 
d="M76 1276q-20 6 -29.5 23.5t-3.5 37.5l35 107q6 20 24 28.5t39 2.5l107 -35q12 -3 23.5 3.5t11.5 18.5v117q0 20 14.5 34.5t34.5 14.5h106q20 0 35.5 -14.5t15.5 -34.5v-117q0 -12 10.5 -18.5t22.5 -3.5l109 35q21 6 39 -2.5t24 -28.5l35 -107q6 -20 -4.5 -37.5
t-30.5 -23.5l-106 -35q-12 -5 -17 -17.5t2 -21.5l70 -92q12 -17 8.5 -37.5t-20.5 -32.5l-90 -65q-13 -10 -29 -10q-25 0 -41 22l-65 92q-6 9 -19 9t-20 -9l-68 -92q-13 -22 -39 -22q-16 0 -29 10l-90 65q-17 12 -20.5 32.5t8.5 37.5l68 92q6 9 2.5 22t-15.5 17z" />
    <glyph glyph-name="plus" unicode="+" horiz-adv-x="1269" 
d="M41 823q0 20 14.5 34.5t34.5 14.5h365q10 0 17 8t7 19v260q0 20 14.5 34.5t34.5 14.5h217q20 0 35 -14.5t15 -34.5v-260q0 -11 6 -19t16 -8h363q20 0 34.5 -14.5t14.5 -34.5v-213q0 -20 -14.5 -34.5t-34.5 -14.5h-363q-22 0 -22 -26v-261q0 -20 -15 -34.5t-35 -14.5h-217
q-20 0 -34.5 14.5t-14.5 34.5v261q0 11 -7 18.5t-17 7.5h-365q-20 0 -34.5 14.5t-14.5 34.5v213z" />
    <glyph glyph-name="comma" unicode="," horiz-adv-x="397" 
d="M41 74v168q0 31 21.5 52t52.5 21h168q31 0 52 -21t21 -52v-234q0 -110 -79 -190t-189 -80q-20 0 -33.5 14t-13.5 33v68q0 20 13.5 32.5t33.5 12.5q41 0 69.5 28.5t28.5 69.5v4h-71q-31 0 -52.5 21.5t-21.5 52.5z" />
    <glyph glyph-name="hyphen" unicode="-" horiz-adv-x="907" 
d="M37 596q0 31 22 51.5t54 20.5h675q32 0 53 -20.5t21 -51.5v-166q0 -32 -21 -53t-53 -21h-675q-32 0 -54 21t-22 53v166z" />
    <glyph glyph-name="period" unicode="." horiz-adv-x="397" 
d="M41 242q0 31 21.5 52t52.5 21h168q32 0 52.5 -21t20.5 -52v-166q0 -33 -20.5 -54.5t-52.5 -21.5h-168q-31 0 -52.5 22t-21.5 54v166z" />
    <glyph glyph-name="slash" unicode="/" horiz-adv-x="1230" 
d="M115 -444q-40 0 -62 32.5t-8 69.5l766 1923q7 21 26.5 34t43.5 13h233q39 0 61.5 -32t8.5 -68l-764 -1925q-9 -22 -28 -34.5t-42 -12.5h-235z" />
    <glyph glyph-name="zero" unicode="0" horiz-adv-x="1380" 
d="M485 0q-186 0 -315 129.5t-129 314.5v545q0 121 59 223.5t161 162t224 59.5h412q183 0 312.5 -130.5t129.5 -314.5v-545q0 -184 -129.5 -314t-312.5 -130h-412zM600 1085q-62 0 -104.5 -42.5t-42.5 -104.5v-442q0 -62 43 -105t104 -43h182q61 0 103.5 43t42.5 105v442
q0 62 -42.5 104.5t-103.5 42.5h-182z" />
    <glyph glyph-name="one" unicode="1" horiz-adv-x="872" 
d="M41 1073q0 31 27 55l335 287q22 19 50 19h305q31 0 52 -21.5t21 -52.5v-1329q0 1 -9 -6t-27.5 -16t-36.5 -9h-260q-31 0 -52.5 21.5t-21.5 52.5v850q0 6 -6 9t-10 -1l-230 -195q-23 -20 -53 -20q-33 0 -58.5 24t-25.5 60v272z" />
    <glyph glyph-name="two" unicode="2" horiz-adv-x="1380" 
d="M115 0q-31 0 -52.5 21.5t-21.5 52.5v405q0 126 81 221t206 117l520 92q35 6 58.5 35t23.5 66q0 31 -20.5 52t-51.5 21h-332q-31 0 -52 -21t-21 -52v-15q0 -30 -22.5 -51.5t-53.5 -21.5h-262q-31 0 -52.5 21t-21.5 52v92q0 144 101.5 245.5t244.5 101.5h606
q143 0 244.5 -101.5t101.5 -245.5v-217q0 -125 -80 -221.5t-204 -118.5l-570 -100q-14 -3 -23 -13.5t-9 -25.5q0 -17 11 -29t28 -12h774q31 0 52 -21.5t21 -52.5v-202q0 -31 -21 -52.5t-52 -21.5h-1151z" />
    <glyph glyph-name="three" unicode="3" horiz-adv-x="1415" 
d="M41 475q0 29 20.5 44.5t53.5 15.5h297q31 0 53 -21.5t22 -52.5v-21q0 -37 24.5 -62.5t61.5 -25.5h265q37 0 62.5 25.5t25.5 62.5v15q0 37 -25.5 62.5t-62.5 25.5h-203q-31 0 -52.5 21t-21.5 52v201q0 31 21.5 52.5t52.5 21.5h203q37 0 62.5 25.5t25.5 62.5v16
q0 37 -25.5 62.5t-62.5 25.5h-263q-37 0 -62.5 -25.5t-25.5 -62.5v-20q0 -31 -22 -52.5t-53 -21.5h-297q-31 0 -52.5 21.5t-21.5 52.5v82q0 79 19 141t55 102t80.5 67.5t104 41.5t115.5 19.5t124 5.5h335q69 0 124.5 -5.5t115.5 -19.5t104.5 -41.5t81 -67.5t55.5 -102
t19 -141q0 -70 -14.5 -128t-34 -92.5t-46.5 -61.5t-45 -38t-36 -18q-8 -4 0 -8q17 -6 36 -17t45 -37t46 -59.5t34.5 -89t14.5 -121.5q0 -189 -101 -288t-284 -99h-567q-181 0 -281 99t-100 288v88z" />
    <glyph glyph-name="four" unicode="4" horiz-adv-x="1380" 
d="M115 193q-31 0 -52.5 21t-21.5 52v248q0 22 18 47l695 846q24 27 57 27h299q31 0 52.5 -21.5t21.5 -52.5v-793q0 -11 7 -17.5t17 -6.5h58q31 0 52 -21.5t21 -52.5v-203q0 -31 -21 -52t-52 -21h-58q-10 0 -17 -7t-7 -18v-94q0 -31 -21.5 -52.5t-52.5 -21.5h-260
q-31 0 -52.5 21.5t-21.5 52.5v94q0 11 -7 18t-17 7h-637zM506 559q-4 -5 -2 -10.5t8 -5.5h240q10 0 17 6.5t7 17.5v291q0 7 -7 9t-11 -3z" />
    <glyph glyph-name="five" unicode="5" horiz-adv-x="1380" 
d="M387 0q-143 0 -244.5 102t-101.5 244q0 25 18 42.5t43 17.5h326q27 0 47 -23q31 -35 76 -35h283q41 0 68.5 28.5t27.5 69.5v35q0 42 -27.5 70.5t-68.5 28.5h-265q-41 0 -73 -35q-20 -23 -50 -23h-323q-25 0 -43.5 17.5t-18.5 42.5l-2 786q0 30 21 48t53 18h1081
q31 0 52.5 -21.5t21.5 -52.5v-201q0 -31 -21.5 -52.5t-52.5 -21.5h-720q-11 0 -18 -7t-7 -17l2 -178q0 -6 4.5 -9t9.5 0q84 52 181 52h329q142 0 243 -101.5t101 -242.5v-236q0 -143 -101 -244.5t-243 -101.5h-608z" />
    <glyph glyph-name="six" unicode="6" horiz-adv-x="1378" 
d="M385 0q-142 0 -243 101.5t-101 244.5v744q0 142 100.5 243t243.5 101h606q143 0 243.5 -101t100.5 -243v-52q0 -20 -13.5 -34.5t-33.5 -14.5h-315q-20 0 -33.5 14.5t-13.5 34.5t-13.5 33.5t-33.5 13.5h-330q-41 0 -69.5 -28.5t-28.5 -69.5v-143q0 -6 4.5 -8.5t9.5 0.5
q82 51 180 51h348q142 0 243 -101.5t101 -242.5v-197q0 -143 -101 -244.5t-243 -101.5h-608zM547 541q-40 0 -68 -28.5t-28 -68.5t28 -68t68 -28h284q40 0 68.5 28t28.5 68t-28.5 68.5t-68.5 28.5h-284z" />
    <glyph glyph-name="seven" unicode="7" horiz-adv-x="1378" 
d="M41 1360q0 31 21.5 52.5t52.5 21.5h1149q31 0 52 -21.5t21 -52.5v-455q0 -85 -49 -149l-538 -717q-28 -39 -76 -39h-400q-20 0 -28 18t4 33l659 881q19 25 19 59v68q0 10 -7 17t-18 7h-428q-11 0 -17.5 -6.5t-6.5 -17.5v-168q0 -31 -21.5 -52.5t-52.5 -21.5h-262
q-31 0 -52.5 21.5t-21.5 52.5v469z" />
    <glyph glyph-name="eight" unicode="8" horiz-adv-x="1413" 
d="M41 1057q0 79 19 141t55 102t80.5 67.5t104 41.5t115.5 19.5t124 5.5h335q68 0 124 -5.5t115.5 -19.5t104 -41.5t80.5 -67.5t55 -102t19 -141q0 -70 -14 -128t-33.5 -92.5t-46 -61.5t-44.5 -38t-36 -18q-8 -4 0 -8q23 -9 47 -26.5t55.5 -53t51.5 -99.5t20 -145
q0 -190 -100.5 -288.5t-282.5 -98.5h-567q-182 0 -281.5 98.5t-99.5 288.5q0 66 14 121t33 88.5t45 59.5t44 37t36 18q8 4 0 8q-23 9 -47 27t-55 55t-50.5 103.5t-19.5 152.5zM485 995v-16q0 -37 26.5 -62.5t63.5 -25.5h263q37 0 62.5 25.5t25.5 62.5v16q0 37 -25.5 62.5
t-62.5 25.5h-263q-37 0 -63.5 -25.5t-26.5 -62.5zM573 543q-37 0 -62.5 -25.5t-25.5 -62.5v-15q0 -37 25.5 -62.5t62.5 -25.5h265q37 0 62.5 25.5t25.5 62.5v15q0 37 -25.5 62.5t-62.5 25.5h-265z" />
    <glyph glyph-name="nine" unicode="9" horiz-adv-x="1380" 
d="M41 899v197q0 142 101.5 240t244.5 98h608q143 0 243.5 -101t100.5 -243v-744q0 -143 -101 -244.5t-243 -101.5h-606q-142 0 -243 101.5t-101 244.5v51q0 20 13.5 33.5t33.5 13.5h314q20 0 34.5 -13.5t14.5 -33.5t13.5 -34.5t33.5 -14.5h332q41 0 68.5 28.5t27.5 69.5
v144q0 6 -4.5 8.5t-7.5 -0.5q-82 -51 -181 -51h-350q-142 0 -244 105t-102 247zM453 989q0 -40 27 -67t67 -27h289q40 0 67 27t27 67t-27 68t-67 28h-289q-40 0 -67 -28t-27 -68z" />
    <glyph glyph-name="colon" unicode=":" horiz-adv-x="399" 
d="M117 0q-32 0 -54 22t-22 54v166q0 31 22 52t54 21h166q31 0 53 -21t22 -52v-166q0 -32 -22 -54t-53 -22h-166zM41 903q0 32 22 53t54 21h166q31 0 53 -21t22 -53v-168q0 -29 -22 -50t-53 -21h-166q-32 0 -54 21t-22 50v168z" />
    <glyph glyph-name="semicolon" unicode=";" horiz-adv-x="397" 
d="M115 -2q-32 0 -53 21.5t-21 52.5v168q0 31 21 52t53 21h168q31 0 52 -21t21 -52l-2 -234q0 -110 -79 -190t-189 -80q-20 0 -32.5 13.5t-12.5 33.5v67q0 19 12.5 32.5t32.5 13.5q41 0 69.5 28.5t28.5 69.5v4h-69zM41 735v168q0 32 21 53t53 21h168q31 0 52 -21t21 -53
v-168q0 -29 -21 -49t-52 -20h-168q-32 0 -53 20t-21 49z" />
    <glyph glyph-name="less" unicode="&#x3c;" horiz-adv-x="870" 
d="M61 666q-20 22 -20 52t20 50l684 688q14 14 35 14q19 0 34 -14t15 -35v-370q0 -34 -20 -54l-264 -264q-6 -6 -6 -16.5t6 -16.5l264 -266q20 -17 20 -51v-371q0 -21 -15 -35t-34 -14q-21 0 -35 14z" />
    <glyph glyph-name="equal" unicode="=" horiz-adv-x="1267" 
d="M41 877v202q0 23 16 39.5t39 16.5h1075q23 0 39.5 -16.5t16.5 -39.5v-202q0 -23 -16.5 -39.5t-39.5 -16.5h-1075q-23 0 -39 16.5t-16 39.5zM41 350v203q0 23 16 39t39 16h1075q23 0 39.5 -16t16.5 -39v-203q0 -23 -16.5 -39t-39.5 -16h-1075q-23 0 -39 16t-16 39z" />
    <glyph glyph-name="greater" unicode="&#x3e;" horiz-adv-x="868" 
d="M41 1421q0 21 15 35t34 14q21 0 35 -14l682 -688q20 -22 20 -51t-20 -49l-682 -691q-14 -14 -35 -14q-19 0 -34 14t-15 35v371q0 31 22 53l261 266q6 6 6 16t-6 17l-261 264q-22 19 -22 52v370z" />
    <glyph glyph-name="question" unicode="?" horiz-adv-x="1380" 
d="M41 1085q0 143 101 244t243 101h610q142 0 243 -101t101 -244v-196q0 -145 -100.5 -245.5t-245.5 -100.5h-24q-31 0 -52.5 -21.5t-21.5 -52.5t-21.5 -52.5t-52.5 -21.5h-262q-31 0 -52.5 21.5t-21.5 52.5v70q0 146 103.5 249t249.5 103q38 0 65 27t27 65q0 41 -29 69.5
t-70 28.5h-282q-41 0 -69.5 -28.5t-28.5 -69.5v-18q0 -31 -21.5 -52.5t-52.5 -21.5h-262q-31 0 -52.5 21.5t-21.5 52.5v120zM485 61v164q0 28 20 48t48 20h276q28 0 47 -20t19 -48v-164q0 -28 -19 -46.5t-47 -18.5h-278q-28 0 -47 18.5t-19 46.5z" />
    <glyph glyph-name="at" unicode="@" horiz-adv-x="2177" 
d="M41 1026q0 122 48 233.5t128.5 192.5t192.5 128.5t235 47.5h885q165 0 304 -79.5t220.5 -218t81.5 -304.5v-192q0 -114 -42 -219t-114.5 -183.5t-173 -130.5t-213.5 -63l-63 -2h-152q-35 0 -60.5 25.5t-25.5 60.5v6q0 6 -6 10t-12 0q-63 -55 -140.5 -86t-193.5 -31
q-475 0 -475 502q0 136 32.5 232t96 152t148 81.5t198.5 25.5q121 0 198.5 -25.5t135.5 -76.5q4 -4 8 -4q12 0 12 12v8q0 35 25 60.5t59 25.5h193q35 0 60.5 -25.5t25.5 -60.5v-530q75 44 119.5 119t44.5 166v94q0 139 -99 237.5t-237 98.5h-789q-140 0 -240 -98.5
t-100 -237.5v-520q0 -139 100 -237.5t240 -98.5h848q157 0 297.5 64t253.5 175q9 9 16 9q9 0 17 -7.5t8 -19.5v-317q0 -44 -35 -62q-273 -158 -557 -158h-899q-123 0 -235 48t-192.5 128.5t-128.5 192.5t-48 234v618zM1034 887q-119 0 -161 -39.5t-42 -124.5q0 -40 6 -65.5
t26 -50t62 -35.5t109 -11q64 0 104.5 10.5t61.5 33.5t28 50t7 68q0 42 -6.5 68.5t-26.5 50t-61 34.5t-107 11z" />
    <glyph glyph-name="A" unicode="A" horiz-adv-x="1589" 
d="M92 0q-26 0 -41.5 20.5t-7.5 45.5l469 1316q8 22 27.5 36t42.5 14h426q23 0 42 -14t27 -36l469 -1316q8 -25 -6.5 -45.5t-40.5 -20.5h-297q-24 0 -43.5 13t-25.5 34l-64 178q-9 17 -25 17h-499q-17 0 -25 -17l-63 -178q-6 -21 -26 -34t-44 -13h-295zM664 623
q-4 -10 4 -20.5t20 -10.5h213q12 0 20.5 10.5t4.5 20.5l-121 362q-3 7 -10.5 7t-10.5 -7z" />
    <glyph glyph-name="B" unicode="B" horiz-adv-x="1468" 
d="M41 76v1280q0 32 21 54t53 22h811q83 0 149 -7.5t134.5 -31.5t114 -64t74.5 -109t29 -163q0 -70 -14.5 -128t-34 -93t-46.5 -62t-45 -38.5t-36 -18.5q-5 0 -2 -5q1 -2 4 -3q17 -6 35 -17t44.5 -36.5t46 -59t34 -88.5t14.5 -121q0 -188 -101.5 -287.5t-285.5 -99.5h-925
q-32 0 -53 22t-21 54zM434 915q0 -19 12 -31t29 -12h408q46 0 79 34t33 81t-32.5 80t-79.5 33h-408q-17 0 -29 -12t-12 -29v-144zM475 561q-17 0 -29 -13t-12 -30v-141q0 -19 12 -31t29 -12h408q46 0 79 34t33 81t-32.5 79.5t-79.5 32.5h-408z" />
    <glyph glyph-name="C" unicode="C" horiz-adv-x="1468" 
d="M483 0q-185 0 -313.5 129t-128.5 315v541q0 186 129 316.5t313 130.5h498q186 0 316 -130.5t130 -316.5v-55q0 -20 -14.5 -34.5t-34.5 -14.5h-297q-20 0 -34.5 14.5t-14.5 34.5q0 44 -31 75t-75 31h-346q-60 0 -104 -52t-44 -114v-329q0 -61 43 -104.5t105 -43.5h346
q44 0 75 31.5t31 75.5q0 20 14.5 34.5t34.5 14.5h297q20 0 34.5 -14.5t14.5 -34.5v-56q0 -186 -130 -315t-316 -129h-498z" />
    <glyph glyph-name="D" unicode="D" horiz-adv-x="1468" 
d="M115 0q-31 0 -52.5 22t-21.5 54v1280q0 32 21.5 54t52.5 22h868q184 0 314 -130t130 -315v-543q0 -184 -129.5 -314t-314.5 -130h-868zM475 1040q-19 0 -31 -12t-12 -29v-567q0 -17 12 -29t31 -12h367q78 0 134 56.5t56 134.5v268q0 78 -56 134t-134 56h-367z" />
    <glyph glyph-name="E" unicode="E" horiz-adv-x="1280" 
d="M41 1356q0 32 21 54t53 22h1048q32 0 54 -22t22 -54v-185q0 -31 -22 -51t-54 -20h-706q-9 0 -16 -8t-7 -19v-166q0 -10 7 -18t16 -8h706q32 0 54 -21t22 -53v-199q0 -57 -76 -57h-706q-9 0 -16 -8t-7 -19v-166q0 -10 7 -18t16 -8h706q32 0 54 -20.5t22 -51.5v-184
q0 -32 -22 -54t-54 -22h-1048q-32 0 -53 22t-21 54v1280z" />
    <glyph glyph-name="F" unicode="F" horiz-adv-x="1382" 
d="M41 1356q0 32 20.5 54t51.5 22h1155q31 0 52 -22t21 -54v-201q0 -31 -21 -52.5t-52 -21.5h-793q-9 0 -15.5 -7t-6.5 -17v-142q0 -11 6.5 -18.5t15.5 -7.5h766q32 0 54 -21t22 -53v-199q0 -32 -21.5 -52.5t-54.5 -20.5h-766q-9 0 -15.5 -8t-6.5 -19v-440q0 -32 -22.5 -54
t-53.5 -22h-264q-31 0 -51.5 22t-20.5 54v1280z" />
    <glyph glyph-name="G" unicode="G" horiz-adv-x="1468" 
d="M41 991q0 182 127.5 311.5t308.5 129.5h514q181 0 308.5 -129.5t127.5 -311.5v-28q0 -18 -10.5 -29.5t-27.5 -11.5h-314q-18 0 -28.5 11.5t-10.5 29.5q0 32 -22 52.5t-53 20.5h-431q-40 0 -69 -28.5t-29 -69.5v-444q0 -41 28.5 -70t69.5 -29h406q40 0 70 29t30 70
q0 11 -8.5 18.5t-19.5 7.5h-115q-20 0 -34.5 15.5t-14.5 35.5v144q0 19 14.5 33t34.5 14h485q20 0 34.5 -14t14.5 -33v-277q0 -182 -127.5 -310t-308.5 -128h-514q-181 0 -308.5 128t-127.5 310v553z" />
    <glyph glyph-name="H" unicode="H" horiz-adv-x="1468" 
d="M41 1356q0 32 22 54t54 22h260q32 0 53 -22t21 -54v-443q0 -10 7.5 -17t16.5 -7h518q9 0 16 7t7 17v443q0 32 22 54t54 22h262q32 0 52.5 -21.5t20.5 -54.5v-1280q0 -33 -20.5 -54.5t-52.5 -21.5h-262q-32 0 -54 22t-22 54v440q0 10 -7 17.5t-16 7.5h-518
q-9 0 -16.5 -7.5t-7.5 -17.5v-440q0 -32 -21 -54t-53 -22h-260q-32 0 -54 22t-22 54v1280z" />
    <glyph glyph-name="I" unicode="I" horiz-adv-x="1193" 
d="M41 76v178q0 31 22 52.5t54 21.5h239q9 0 17 7.5t8 16.5v725q0 9 -8 17t-17 8h-239q-32 0 -54 21.5t-22 52.5v180q0 32 22 54t54 22h964q31 0 51.5 -22t20.5 -54v-180q0 -31 -20.5 -52.5t-51.5 -21.5h-243q-10 0 -17.5 -8t-7.5 -17v-725q0 -9 7.5 -16.5t17.5 -7.5h243
q31 0 51.5 -21.5t20.5 -52.5v-178q0 -32 -20.5 -54t-51.5 -22h-964q-32 0 -54 22t-22 54z" />
    <glyph glyph-name="J" unicode="J" horiz-adv-x="1339" 
d="M469 0q-177 0 -302.5 124.5t-125.5 301.5v115q0 35 25.5 59.5t60.5 24.5h207q35 0 59.5 -24.5t24.5 -59.5v-2q0 -69 48.5 -116.5t117.5 -47.5h192q62 0 105 43t43 104v852q0 25 16 41.5t41 16.5h260q25 0 41 -16.5t16 -41.5v-948q0 -176 -125.5 -301t-300.5 -125h-403z
" />
    <glyph glyph-name="K" unicode="K" horiz-adv-x="1437" 
d="M129 0q-35 0 -61.5 25.5t-26.5 60.5v1260q0 35 26.5 60.5t61.5 25.5h256q35 0 60.5 -25.5t25.5 -60.5v-426q0 -23 16 -7l449 490q26 29 63 29h336q40 0 55.5 -37t-10.5 -66l-555 -608q-5 -3 -5 -10t5 -11l551 -598q26 -29 10.5 -65.5t-55.5 -36.5h-336q-37 0 -63 29
l-445 479q-5 5 -10.5 2t-5.5 -10v-414q0 -35 -25.5 -60.5t-60.5 -25.5h-256z" />
    <glyph glyph-name="L" unicode="L" horiz-adv-x="1280" 
d="M41 1356q0 32 21 54t53 22h262q32 0 52 -21.5t20 -54.5v-981q0 -10 7.5 -17.5t16.5 -7.5h690q31 0 53.5 -21.5t22.5 -52.5v-200q0 -32 -22.5 -54t-53.5 -22h-1048q-32 0 -53 22t-21 54v1280z" />
    <glyph glyph-name="M" unicode="M" horiz-adv-x="1722" 
d="M41 1358q0 31 21.5 52.5t52.5 21.5h379q28 0 52 -15.5t36 -40.5l270 -559q3 -6 9 -6t9 6l271 559q12 25 35.5 40.5t52.5 15.5h377q32 0 53.5 -21.5t21.5 -52.5v-1282q0 -31 -22 -53.5t-53 -22.5h-252q-32 0 -54 22t-22 54l2 620q0 8 -8.5 10.5t-11.5 -4.5l-209 -426
q-25 -55 -90 -55h-201q-28 0 -52 14.5t-36 40.5l-209 426q-3 7 -12 5.5t-9 -9.5v-622q0 -32 -20 -54t-51 -22h-256q-31 0 -52.5 22t-21.5 54v1282z" />
    <glyph glyph-name="N" unicode="N" horiz-adv-x="1490" 
d="M41 78v1278q0 32 20.5 54t51.5 22h321q45 0 64 -37l542 -711q4 -6 10.5 -4t6.5 10v666q0 32 21 54t52 22h246q31 0 52.5 -22t21.5 -54v-1278q0 -32 -21.5 -54t-52.5 -22h-319q-43 0 -64 37l-540 711q-5 6 -12 3.5t-7 -10.5v-665q0 -32 -21.5 -54t-52.5 -22h-247
q-31 0 -51.5 22t-20.5 54z" />
    <glyph glyph-name="O" unicode="O" horiz-adv-x="1490" 
d="M485 0q-186 0 -315 129.5t-129 314.5v543q0 121 59 223.5t161 162t224 59.5h523q183 0 312.5 -130.5t129.5 -314.5v-543q0 -184 -129.5 -314t-312.5 -130h-523zM403 582q0 -78 56.5 -134.5t134.5 -56.5h303q78 0 133 56.5t55 134.5v268q0 78 -55 134t-133 56h-303
q-78 0 -134.5 -56t-56.5 -134v-268z" />
    <glyph glyph-name="P" unicode="P" horiz-adv-x="1415" 
d="M41 1356q0 32 22 54t54 22h821q19 0 48 -5.5t71.5 -21t84.5 -38.5t84.5 -62.5t74.5 -89t52.5 -121.5t20.5 -156t-19 -156t-49.5 -121t-71 -88.5t-81.5 -62.5t-84 -38t-74.5 -20.5t-56.5 -5.5h-463q-9 0 -16.5 -7.5t-7.5 -16.5v-346q0 -32 -21 -54t-53 -22h-260
q-32 0 -54 22t-22 54v1280zM451 1032v-188q0 -10 7.5 -17.5t16.5 -7.5h338q51 0 85.5 35t33.5 86q-1 49 -38 83t-87 34h-332q-9 0 -16.5 -8t-7.5 -17z" />
    <glyph glyph-name="Q" unicode="Q" horiz-adv-x="1492" 
d="M485 0q-186 0 -315 129.5t-129 314.5v543q0 121 59 223.5t161 162t224 59.5h525q184 0 313 -130t129 -315v-551q0 -97 -48.5 -190t-127.5 -154l164 -205q19 -25 6.5 -52.5t-43.5 -27.5h-367q-25 0 -39 17l-137 176h-375zM580 1040q-78 0 -133.5 -56t-55.5 -134v-268
q0 -78 55.5 -134.5t133.5 -56.5h331q78 0 134.5 56.5t56.5 134.5v268q0 78 -56.5 134t-134.5 56h-331z" />
    <glyph glyph-name="R" unicode="R" horiz-adv-x="1499" 
d="M41 1358q0 31 21 52.5t53 21.5h727q71 0 130.5 -4.5t123.5 -18.5t115 -36.5t98 -60t78 -88.5t50.5 -123t20.5 -161q1 -86 -18 -158.5t-54 -124.5t-74 -88t-87 -63q-6 -5 -8 -14t2 -15q59 -108 225 -403q14 -25 0 -49.5t-43 -24.5h-289q-21 0 -40 11t-28 30l-208 346
q-37 59 -103 59h-272q-11 0 -19 -6.5t-8 -15.5v-348q0 -31 -21.5 -52.5t-52.5 -21.5h-245q-32 0 -53 21.5t-21 52.5v1282zM477 1075q-19 0 -31 -12t-12 -31v-188q0 -17 12 -29t31 -12h420q59 0 97 40t38 99q-1 55 -42.5 94t-98.5 39h-414z" />
    <glyph glyph-name="S" unicode="S" horiz-adv-x="1552" 
d="M451 578q-43 3 -92 16.5t-107 44t-103.5 74t-76.5 113.5t-31 155q0 229 96.5 340t313.5 111h690q144 0 244 -102t100 -247v-100q0 -43 -43 -43h-299q-19 0 -31 11.5t-12 31.5q0 40 -29 69t-70 29h-458q-40 0 -67 -28t-27 -68q0 -46 17.5 -67.5t78.5 -28.5
q49 -6 268.5 -18t288.5 -19q130 -12 190 -33q218 -77 219 -375q0 -68 -11 -125.5t-29.5 -100t-46.5 -76.5t-57 -56.5t-67 -39t-70.5 -25t-72.5 -13.5t-69 -6.5t-64 -1.5h-565q-161 0 -277 116t-116 279v54q0 19 13 31t32 12h295q19 0 31 -12t12 -31q0 -41 29 -70t69 -29h457
q40 0 68.5 26t29.5 64q1 41 -25 68t-71 35q-29 4 -258 16.5t-297 18.5z" />
    <glyph glyph-name="T" unicode="T" horiz-adv-x="1468" 
d="M41 1356q0 32 22 54t54 22h1235q32 0 53.5 -22t21.5 -54v-201q0 -31 -21.5 -52.5t-53.5 -21.5h-389q-9 0 -17 -7t-8 -17v-981q0 -32 -21 -54t-53 -22h-262q-32 0 -53 22t-21 54v981q0 10 -7.5 17t-16.5 7h-387q-32 0 -54 21.5t-22 52.5v201z" />
    <glyph glyph-name="U" unicode="U" horiz-adv-x="1468" 
d="M41 1356q0 31 22 53.5t54 22.5h241q32 0 53 -22.5t21 -53.5v-815q0 -61 44 -105.5t106 -44.5h303q61 0 104 44t43 106v815q0 31 21.5 53.5t52.5 22.5h246q32 0 53.5 -22.5t21.5 -53.5v-912q0 -186 -130 -315t-316 -129h-498q-185 0 -313.5 129t-128.5 315v912z" />
    <glyph glyph-name="V" unicode="V" horiz-adv-x="1538" 
d="M43 1366q-8 24 6.5 45t40.5 21h289q23 0 42.5 -14t27.5 -36l311 -864q2 -6 8.5 -6t9.5 6l314 864q6 22 26 36t43 14h289q24 0 38.5 -21t6.5 -45l-469 -1317q-7 -22 -27 -35.5t-43 -13.5h-372q-24 0 -44.5 13.5t-27.5 35.5z" />
    <glyph glyph-name="W" unicode="W" horiz-adv-x="2103" 
d="M45 1362q-9 25 7 47.5t42 22.5h228q28 0 50 -16t31 -42l244 -674q1 -6 8 -6t9 6l184 668q8 28 31.5 46t52.5 18h242q29 0 51 -18t30 -46l185 -668q2 -6 8 -6t8 6l242 674q9 26 31.5 42t50.5 16h231q26 0 42 -22.5t7 -47.5l-463 -1305q-20 -57 -79 -57h-191
q-29 0 -53 17.5t-31 45.5l-182 674q-1 6 -8 6t-9 -6l-182 -674q-7 -28 -31 -45.5t-53 -17.5h-190q-28 0 -50.5 15.5t-31.5 41.5z" />
    <glyph glyph-name="X" unicode="X" horiz-adv-x="1654" 
d="M76 0q-22 0 -31.5 20t4.5 37l531 658q3 3 0 10l-523 649q-14 17 -4.5 37.5t31.5 20.5h371q41 0 67 -33l297 -369q7 -11 15 0l299 369q26 33 67 33h371q22 0 31.5 -20.5t-3.5 -37.5l-524 -649q-3 -7 0 -10l531 -658q14 -17 4.5 -37t-31.5 -20h-373q-41 0 -67 33l-305 377
q-8 11 -15 0l-303 -377q-26 -33 -67 -33h-373z" />
    <glyph glyph-name="Y" unicode="Y" horiz-adv-x="1638" 
d="M45 1378q-10 17 0.5 35.5t30.5 18.5h336q45 0 71 -41l328 -523q3 -4 8 -4t8 4l328 523q26 41 74 41h334q20 0 29.5 -18.5t-1.5 -35.5l-549 -878h2v-414q0 -35 -25.5 -60.5t-60.5 -25.5h-276q-35 0 -61.5 25.5t-26.5 60.5v414h2z" />
    <glyph glyph-name="Z" unicode="Z" horiz-adv-x="1468" 
d="M41 76v176q0 73 55 125l758 706q4 5 2 11t-8 6h-733q-32 0 -53 20t-21 51v185q0 31 21.5 53.5t52.5 22.5h1237q31 0 53 -22.5t22 -53.5v-176q0 -75 -55 -127l-762 -705q-4 -4 -2 -10t8 -6h736q75 0 75 -56v-200q0 -31 -22 -53.5t-53 -22.5h-1237q-31 0 -52.5 22.5
t-21.5 53.5z" />
    <glyph glyph-name="bracketleft" unicode="[" horiz-adv-x="675" 
d="M41 1552q0 31 21.5 52.5t52.5 21.5h446q31 0 52.5 -21.5t21.5 -52.5v-215q0 -31 -21.5 -52t-52.5 -21h-131q-10 0 -17 -7t-7 -18v-1030q0 -11 7 -18t17 -7h131q31 0 52.5 -21t21.5 -52v-215q0 -31 -21.5 -52.5t-52.5 -21.5h-446q-31 0 -52.5 21.5t-21.5 52.5v1656z" />
    <glyph glyph-name="backslash" unicode="\" horiz-adv-x="1236" 
d="M47 1524q-15 37 7.5 69.5t62.5 32.5h233q23 0 42 -12.5t28 -34.5l772 -1925q14 -36 -8.5 -68t-61.5 -32h-233q-24 0 -43.5 13t-26.5 34z" />
    <glyph glyph-name="bracketright" unicode="]" horiz-adv-x="673" 
d="M41 1337v215q0 31 21.5 52.5t52.5 21.5h444q31 0 52.5 -21.5t21.5 -52.5v-1656q0 -31 -21.5 -52.5t-52.5 -21.5h-444q-31 0 -52.5 21.5t-21.5 52.5v215q0 31 21.5 52t52.5 21h131q10 0 17 7t7 18v1030q0 11 -7 18t-17 7h-131q-31 0 -52.5 21t-21.5 52z" />
    <glyph glyph-name="asciicircum" unicode="^" horiz-adv-x="968" 
d="M78 862q-20 0 -30.5 15.5t-4.5 35.5l250 676q13 37 55 37h277q40 0 53 -37l248 -676q6 -20 -4.5 -35.5t-30.5 -15.5h-205q-40 0 -53 37l-139 373q-2 4 -8 4t-9 -4l-137 -373q-13 -37 -53 -37h-209z" />
    <glyph glyph-name="underscore" unicode="_" horiz-adv-x="1263" 
d="M41 74q0 34 24 59t58 25h1018q34 0 58 -25t24 -59v-150q0 -34 -24 -58t-58 -24h-1018q-34 0 -58 24t-24 58v150z" />
    <glyph glyph-name="grave" unicode="`" horiz-adv-x="391" 
d="M303 1085h-35q-24 0 -41 21l-176 250q-17 25 -4.5 51.5t43.5 26.5h176q19 0 32.5 -12t16.5 -31l35 -250q3 -22 -10.5 -39t-36.5 -17z" />
    <glyph glyph-name="a" unicode="a" 
d="M41 293q0 76 28 132.5t69.5 86.5t102 48t111 23t111.5 5q74 0 170 -12.5t125 -32.5q2 -2 6 -2q12 0 12 12v63q0 41 -29 70t-69 29h-203q-44 0 -57 -37q-14 -27 -43 -27h-287q-19 0 -30.5 12.5t-8.5 30.5q19 122 112.5 204.5t217.5 82.5h418q142 0 243 -100.5t101 -241.5
v-559q0 -32 -25 -56t-57 -24h-248q-15 0 -25 11.5t-10 25.5v10q0 6 -6 10t-12 0q-31 -21 -129 -39t-170 -18q-228 0 -323 71.5t-95 221.5zM418 305q0 -36 42.5 -65t112.5 -29q82 0 122 22t40 72q0 86 -162 86q-71 0 -113 -25.5t-42 -60.5z" />
    <glyph glyph-name="b" unicode="b" horiz-adv-x="1267" 
d="M41 1346q0 35 25.5 60.5t60.5 25.5h192q35 0 61 -25.5t26 -60.5v-457q0 -8 6 -12t12 2q56 51 133 76.5t199 25.5q114 0 198 -25t146.5 -81.5t94.5 -152t32 -230.5q0 -506 -471 -506q-115 0 -192.5 31t-139.5 85q-2 2 -6 2q-12 0 -12 -12v-6q0 -35 -26 -60.5t-61 -25.5
h-192q-35 0 -60.5 25.5t-25.5 60.5v1260zM463 492q0 -42 7 -69.5t27.5 -50.5t61 -33.5t103.5 -10.5q65 0 107 11.5t62 35.5t26.5 50t6.5 67q0 85 -41.5 125t-160.5 40q-65 0 -106 -11t-60.5 -35.5t-26 -50.5t-6.5 -68z" />
    <glyph glyph-name="c" unicode="c" 
d="M41 639q0 141 101 242.5t243 101.5h416q140 0 240 -99t100 -237v-37q0 -22 -16 -37.5t-38 -15.5h-268q-36 0 -49 33q-2 2 -2 10q-12 31 -40 49.5t-62 18.5h-152q-44 0 -77.5 -33.5t-33.5 -77.5v-133q0 -44 33.5 -77.5t77.5 -33.5h152q34 0 62 19.5t40 50.5q0 6 2 8
q13 33 49 33h268q22 0 38 -15t16 -36v-66q0 -127 -90.5 -217t-216.5 -90h-449q-142 0 -243 101.5t-101 244.5v293z" />
    <glyph glyph-name="d" unicode="d" horiz-adv-x="1267" 
d="M41 492q0 135 32 230.5t94.5 152t146.5 81.5t198 25q120 0 197 -25.5t135 -76.5q6 -6 12 -2t6 12v457q0 35 26 60.5t60 25.5h193q35 0 60.5 -25.5t25.5 -60.5v-1260q0 -35 -25.5 -60.5t-60.5 -25.5h-193q-35 0 -60.5 25.5t-25.5 60.5v6q0 6 -6 10t-12 0
q-133 -116 -332 -116q-471 0 -471 506zM604 657q-117 0 -159 -40t-42 -125q0 -41 6.5 -67t26 -50t61.5 -35.5t107 -11.5q64 0 104.5 10.5t61.5 33.5t28 50.5t7 69.5q0 41 -6.5 68t-26.5 50.5t-61.5 35t-106.5 11.5z" />
    <glyph glyph-name="e" unicode="e" 
d="M41 639q0 141 102 242.5t244 101.5h410q142 0 243 -101.5t101 -242.5v-178q0 -31 -21 -52.5t-53 -21.5h-635q-11 0 -18.5 -7.5t-7.5 -17.5v-18q0 -41 28.5 -70.5t69.5 -29.5h213q41 0 59 37q14 28 41 28h289q15 0 26 -13t9 -28q-15 -114 -102.5 -191t-204.5 -77h-447
q-143 0 -244.5 102t-101.5 244v293zM504 719q-41 0 -69.5 -27.5t-28.5 -68.5v-21q0 -9 8 -16.5t18 -7.5h320q10 0 18 7.5t8 16.5v21q0 41 -29 68.5t-69 27.5h-176z" />
    <glyph glyph-name="f" unicode="f" horiz-adv-x="1042" 
d="M41 739v170q0 32 21.5 53t52.5 21h73q15 0 27 12t12 27v59q0 145 102 248t246 103h353q32 0 52.5 -21.5t20.5 -52.5v-170q0 -31 -21 -52.5t-52 -21.5h-240q-40 0 -69 -29.5t-29 -70.5v-6q0 -9 7 -17t17 -8h168q31 0 53.5 -21.5t22.5 -52.5v-170q0 -29 -22 -50t-54 -21
h-168q-10 0 -17 -8t-7 -17v-569q0 -32 -21.5 -53t-52.5 -21h-217q-31 0 -52.5 21.5t-21.5 52.5v555q0 15 -12 27t-27 12h-71q-31 0 -52.5 21t-21.5 50z" />
    <glyph glyph-name="g" unicode="g" horiz-adv-x="1290" 
d="M41 492q0 135 35 231.5t101.5 152t153.5 80.5t201 25q121 0 197.5 -25.5t134.5 -76.5q6 -4 12.5 0t6.5 10v8q0 35 25.5 60.5t60.5 25.5h194q35 0 60.5 -25.5t25.5 -60.5l-2 -1001q-2 -141 -103 -240.5t-243 -99.5h-541q-117 0 -207 77t-90 185v73q0 31 21 53.5t51 22.5
h238q36 0 49 -30q12 -24 36.5 -38t51.5 -14h274q41 0 70 29t29 70v149q0 6 -6.5 10t-12.5 0q-66 -58 -143.5 -92.5t-188.5 -34.5q-239 0 -365 112t-126 364zM625 657q-62 0 -102 -10.5t-61.5 -33.5t-29.5 -51t-8 -70q0 -41 6 -67t25.5 -50t61.5 -35.5t108 -11.5q63 0 104 11
t60.5 34.5t26.5 50t7 68.5t-6 68t-25.5 50.5t-60.5 35.5t-106 11z" />
    <glyph glyph-name="h" unicode="h" 
d="M115 2q-31 0 -52.5 21t-21.5 53v1282q0 32 21.5 53t52.5 21h215q32 0 54 -21t22 -53v-469q0 -6 6 -10t12 0q60 52 126 77t175 25q59 0 113 -9.5t110.5 -35t98 -65.5t68 -107t26.5 -152v-536q0 -31 -22.5 -52.5t-53.5 -21.5h-215q-32 0 -54 21t-22 53v405q0 78 -52 127
t-132 49q-81 0 -132 -47.5t-52 -128.5v-405q0 -32 -22 -53t-54 -21h-215z" />
    <glyph glyph-name="i" unicode="i" horiz-adv-x="481" 
d="M113 0q-31 0 -51.5 21t-20.5 53v835q0 32 20.5 53t51.5 21h254q31 0 52 -21t21 -53v-835q0 -32 -21 -53t-52 -21h-254zM41 1358q0 32 20.5 53t51.5 21h254q31 0 52 -21t21 -53v-170q0 -32 -21 -53t-52 -21h-254q-31 0 -51.5 21t-20.5 53v170z" />
    <glyph glyph-name="j" unicode="j" horiz-adv-x="720" 
d="M41 -371v224q0 31 21 51t53 20h57q41 0 69.5 29.5t28.5 71.5v884q0 32 21.5 53t52.5 21h262q32 0 53 -21t21 -53v-1007q0 -143 -100 -244.5t-242 -101.5h-223q-32 0 -53 20.5t-21 52.5zM270 1358q0 31 21.5 52.5t52.5 21.5h262q32 0 53 -21.5t21 -52.5v-170
q0 -32 -21 -53t-53 -21h-262q-31 0 -52.5 21t-21.5 53v170z" />
    <glyph glyph-name="k" unicode="k" horiz-adv-x="1202" 
d="M41 1358q0 31 21.5 52.5t52.5 21.5h217q31 0 52.5 -21.5t21.5 -52.5v-666q0 -6 6 -8t10 2l280 281q14 14 37 14h373q21 0 35 -14t14 -35t-14 -35l-383 -387q-8 -8 -8 -16q0 -7 8 -19l381 -393q14 -14 14 -35q0 -19 -14 -33t-35 -14h-371q-23 0 -37 14l-280 285
q-4 6 -10 4t-6 -8v-221q0 -31 -21.5 -52.5t-52.5 -21.5h-217q-31 0 -52.5 21.5t-21.5 52.5v1284z" />
    <glyph glyph-name="l" unicode="l" horiz-adv-x="493" 
d="M41 1358q0 31 22 52.5t54 21.5h262q31 0 52.5 -21.5t21.5 -52.5v-1284q0 -31 -21.5 -52.5t-52.5 -21.5h-262q-32 0 -54 21.5t-22 52.5v1284z" />
    <glyph glyph-name="m" unicode="m" horiz-adv-x="1914" 
d="M41 76v833q0 32 21.5 53t52.5 21h215q32 0 54 -21t22 -53v-20q0 -6 6 -10t12 0q60 52 126 77t175 25q108 0 204.5 -36.5t151.5 -119.5q82 80 173 117t206 37q58 0 112.5 -9.5t110.5 -35t97.5 -65.5t67.5 -107t26 -152v-536q0 -31 -21.5 -52.5t-52.5 -21.5h-217
q-32 0 -53 21t-21 53v405q0 77 -53 126.5t-133 49.5q-81 0 -132 -47.5t-52 -128.5v-405q0 -31 -21.5 -51.5t-52.5 -20.5h-215q-32 0 -53 21t-21 53v405q0 77 -53 126.5t-133 49.5q-81 0 -132 -47.5t-52 -128.5v-405q0 -32 -22 -53t-54 -21h-215q-31 0 -52.5 21t-21.5 53z
" />
    <glyph glyph-name="n" unicode="n" 
d="M113 0q-31 0 -51.5 21t-20.5 53v835q0 32 20.5 53t51.5 21h217q32 0 52.5 -21t20.5 -53v-22q0 -6 6.5 -10t12.5 0q59 52 126 77t177 25q59 0 113 -9.5t110.5 -35t98 -65.5t68 -107t26.5 -152v-536q0 -31 -22.5 -52.5t-53.5 -21.5h-215q-32 0 -54 21t-22 53v405
q0 78 -52 127t-132 49q-81 0 -133.5 -48t-53.5 -128v-405q0 -32 -20.5 -53t-52.5 -21h-217z" />
    <glyph glyph-name="o" unicode="o" 
d="M387 0q-144 0 -245 101.5t-101 244.5v293q0 141 101 241.5t245 100.5h408q143 0 244.5 -100.5t101.5 -241.5v-293q0 -142 -101.5 -244t-244.5 -102h-408zM406 430q0 -48 33.5 -82.5t80.5 -34.5h144q46 0 79 35t33 82v123q0 46 -33.5 80.5t-78.5 34.5h-144
q-47 0 -80.5 -34.5t-33.5 -80.5v-123z" />
    <glyph glyph-name="p" unicode="p" horiz-adv-x="1269" 
d="M127 -444q-35 0 -60.5 25.5t-25.5 60.5v1253q0 35 25.5 60.5t60.5 25.5h192q35 0 61 -25.5t26 -60.5v-8q0 -8 6 -11t12 1q58 51 135 76.5t199 25.5q113 0 197 -25.5t147 -81.5t95 -152t32 -231q0 -505 -471 -505q-115 0 -192.5 31t-139.5 85q-6 4 -12 0t-6 -10v-448
q0 -35 -25.5 -60.5t-60.5 -25.5h-195zM666 655q-65 0 -107 -11.5t-62 -35.5t-27 -51t-7 -68q0 -42 7.5 -69t28.5 -50t62 -33.5t105 -10.5q65 0 106 11t60 35t25.5 50t6.5 67q0 86 -40.5 126t-157.5 40z" />
    <glyph glyph-name="q" unicode="q" horiz-adv-x="1267" 
d="M41 492q0 135 31.5 230.5t94.5 151t147 80.5t198 25q121 0 198.5 -25.5t133.5 -76.5q6 -4 13 0t7 10v8q0 35 25.5 60.5t60.5 25.5h191q34 -6 59.5 -30t26.5 -56v-1255q0 -34 -25.5 -59t-60.5 -25h-193q-35 0 -60.5 25.5t-25.5 60.5v448q0 8 -6 12t-12 -2
q-137 -116 -332 -116q-471 0 -471 508zM604 655q-117 0 -157.5 -39.5t-40.5 -123.5q0 -42 6.5 -68.5t25.5 -50.5t60 -35.5t106 -11.5q64 0 104.5 11t61.5 34.5t28 51t7 69.5q0 41 -6.5 67.5t-26 50t-61 34.5t-107.5 11z" />
    <glyph glyph-name="r" unicode="r" horiz-adv-x="894" 
d="M115 0q-32 0 -53 21t-21 53v835q0 32 21 53t53 21h217q31 0 51 -21t20 -53v-22q0 -6 7.5 -10t13.5 0q118 106 334 106h33q32 0 52.5 -21t20.5 -53v-170q0 -30 -20.5 -50.5t-52.5 -20.5h-156q-125 1 -177 -48.5t-55 -140.5v-405q0 -32 -20 -53t-51 -21h-217z" />
    <glyph glyph-name="s" unicode="s" 
d="M287 387q-104 6 -175.5 77.5t-70.5 172.5v100q0 101 72.5 172.5t173.5 71.5l579 2q103 0 175.5 -72.5t72.5 -175.5v-41q0 -20 -14.5 -34.5t-34.5 -14.5h-250q-32 0 -45 29q-20 45 -70 45h-223q-31 0 -51.5 -21t-19.5 -53q0 -14 10.5 -24.5t25.5 -10.5l451 -32
q105 -9 176.5 -77.5t71.5 -168.5v-84q0 -103 -72.5 -175.5t-175.5 -72.5h-578q-103 0 -176 72.5t-73 173.5v16q0 20 14.5 35.5t34.5 15.5h252q13 0 27 -9t20 -21q15 -37 59 -37h232q31 0 51.5 20.5t19.5 52.5q0 14 -11 24.5t-26 10.5z" />
    <glyph glyph-name="t" unicode="t" horiz-adv-x="1196" 
d="M10 739v170q0 32 20.5 53t51.5 21h90q10 0 18.5 8t8.5 17v131q0 32 20 53.5t51 21.5h217q32 0 52 -21t20 -54v-131q0 -9 8 -17t17 -8h495q32 0 54 -21t22 -53v-170q0 -29 -22 -50t-54 -21h-495q-9 0 -17 -8t-8 -17v-278q0 -19 15.5 -35.5t35.5 -16.5h97q34 0 62 19.5
t40 50.5q0 6 2 8q13 33 49 33h242q22 0 37.5 -14.5t15.5 -36.5v-66q0 -127 -89.5 -217t-215.5 -90h-406q-102 0 -173.5 72t-71.5 174v422h-117q-30 0 -51 21t-21 50z" />
    <glyph glyph-name="u" unicode="u" 
d="M41 911q0 30 22.5 51t53.5 21h202q32 0 54 -21t22 -53v-403q0 -77 55 -126.5t136 -49.5t136 48t56 128v403q0 32 21 53t53 21h217q31 0 51.5 -21t20.5 -53v-835q0 -32 -20.5 -53t-51.5 -21h-217q-32 0 -53 21t-21 53v22q0 6 -6 10t-12 0q-59 -52 -126 -77t-177 -25
q-59 0 -113 9.5t-110.5 35.5t-98 66t-68 107t-26.5 153v536z" />
    <glyph glyph-name="v" unicode="v" horiz-adv-x="1177" 
d="M43 915q-8 25 6.5 46.5t40.5 21.5h232q23 0 42 -13.5t27 -35.5l189 -586q2 -6 8 -6t8 6l190 586q7 22 27 35.5t43 13.5h231q26 0 41 -21.5t7 -46.5l-283 -868q-8 -20 -27.5 -33.5t-42.5 -13.5h-391q-23 0 -42 13.5t-27 33.5z" />
    <glyph glyph-name="w" unicode="w" horiz-adv-x="1742" 
d="M43 915q-8 25 7.5 46.5t41.5 21.5h221q28 0 50.5 -16.5t31.5 -42.5l131 -406q2 -6 9 -6t8 6l131 406q9 26 31.5 42.5t50.5 16.5h229q28 0 50.5 -16.5t31.5 -42.5l131 -406q2 -6 10 -6t9 6l131 406q9 26 31.5 42.5t50.5 16.5h221q26 0 41.5 -21.5t7.5 -46.5l-277 -856
q-9 -26 -31.5 -42.5t-50.5 -16.5h-292q-17 0 -31 10t-19 25l-120 375q-1 6 -8 6t-9 -6l-121 -375q-5 -15 -18.5 -25t-30.5 -10h-291q-28 0 -50.5 16.5t-31.5 42.5z" />
    <glyph glyph-name="x" unicode="x" horiz-adv-x="1368" 
d="M76 0q-22 0 -31 20t6 37l377 432q8 7 0 15l-371 422q-15 17 -5 37t32 20h385q40 0 66 -29l141 -163q8 -8 16 0l142 163q26 29 65 29h387q22 0 32 -20t-5 -37l-371 -422q-8 -8 0 -15l377 -432q15 -17 5 -37t-32 -20h-385q-39 0 -65 29l-150 172q-8 8 -16 0l-148 -172
q-26 -29 -65 -29h-387z" />
    <glyph glyph-name="y" unicode="y" horiz-adv-x="1210" 
d="M25 918q-9 23 5 44t40 21h270q24 0 43.5 -13t26.5 -34l174 -479q3 -6 10 -6t10 6l180 479q6 21 25 34t43 13h268q26 0 40.5 -20.5t6.5 -44.5l-487 -1313q-7 -22 -27 -35.5t-43 -13.5h-229q-38 0 -60.5 31.5t-9.5 68.5l129 344h-22q-23 0 -43 13.5t-27 35.5z" />
    <glyph glyph-name="z" unicode="z" 
d="M41 74v200q0 44 35 62l456 313q6 5 3.5 12t-9.5 7h-411q-32 0 -53 20.5t-21 50.5v170q0 32 21 53t53 21h952q31 0 52.5 -21t21.5 -53v-200q0 -44 -35 -62l-457 -315q-6 -3 -4 -11t8 -8h414q31 0 52.5 -20.5t21.5 -50.5v-168q0 -32 -21.5 -53t-52.5 -21h-952q-32 0 -53 21
t-21 53z" />
    <glyph glyph-name="braceleft" unicode="{" horiz-adv-x="927" 
d="M63 676q-23 22 -23 51t23 51l207 213q9 8 16 103.5t7 130.5v55q0 143 100 244.5t244 101.5h174q32 0 54 -21t22 -53v-217q0 -31 -22 -52t-54 -21h-55q-42 0 -71.5 -24.5t-29.5 -63.5v-283q0 -31 -20 -51q-14 -14 -47 -49.5t-45 -47.5q-6 -6 -6 -16.5t6 -15.5
q50 -46 92 -88q20 -17 20 -54v-364q0 -13 4 -21.5t10 -12t16.5 -4.5t19.5 0t24.5 2t26.5 1h55q32 0 54 -21.5t22 -52.5v-215q0 -32 -22 -54t-54 -22h-174q-144 0 -244 102t-100 245v55q0 37 -7 144t-16 116z" />
    <glyph glyph-name="bar" unicode="|" horiz-adv-x="448" 
d="M41 1542q0 34 25 59t59 25h201q34 0 58 -24t24 -58v-1906q0 -34 -24 -59t-58 -25h-201q-34 0 -59 25t-25 59v1904z" />
    <glyph glyph-name="braceright" unicode="}" horiz-adv-x="925" 
d="M115 1262q-32 0 -53 21t-21 52v217q0 32 21 53t53 21h174q141 0 242.5 -102t101.5 -244v-55q0 -36 6.5 -131t15.5 -103l207 -213q22 -22 22 -51t-22 -51l-207 -209q-9 -9 -15.5 -115t-6.5 -145v-55q0 -142 -101.5 -244.5t-242.5 -102.5h-174q-32 0 -53 22t-21 54v215
q0 31 21 52.5t53 21.5h57q12 0 30.5 -1.5t28 -2t20 2t15 11.5t4.5 25v364q0 34 23 54q42 42 92 88q6 5 6 15.5t-6 16.5l-94 97q-21 24 -21 51v283q0 39 -28 63.5t-70 24.5h-57z" />
    <glyph glyph-name="asciitilde" unicode="~" horiz-adv-x="1263" 
d="M98 367q-28 0 -45 20.5t-12 48.5q14 69 54 129.5t100 100.5l2 2q92 59 198 59q108 0 197 -59l215 -144q27 -18 61 -18q33 0 60 18l2 2q29 23 41 58q14 39 53 39h139q27 0 45 -21.5t13 -48.5q-25 -149 -154 -236h-2q-89 -59 -199 -59q-105 0 -194 59l-217 144
q-27 18 -60 18q-32 0 -59 -18l-4 -4q-30 -18 -43 -51q-14 -39 -53 -39h-138z" />
    <glyph glyph-name="uni007F" horiz-adv-x="681" 
 />
    <glyph glyph-name="uni00A0" unicode="&#xa0;" horiz-adv-x="655" 
 />
    <glyph glyph-name="exclamdown" unicode="&#xa1;" horiz-adv-x="483" 
d="M41 -109v865q0 35 25.5 60.5t60.5 25.5h229q35 0 60.5 -25.5t25.5 -60.5v-865q0 -35 -25.5 -60.5t-60.5 -25.5h-229q-35 0 -60.5 25.5t-25.5 60.5zM41 1026v125q0 35 25.5 60.5t60.5 25.5h229q35 0 60.5 -25.5t25.5 -60.5v-125q0 -35 -25.5 -60.5t-60.5 -25.5h-229
q-35 0 -60.5 25.5t-25.5 60.5z" />
    <glyph glyph-name="cent" unicode="&#xa2;" 
d="M41 641q0 141 101 241.5t243 100.5h23v113q0 34 23.5 58t57.5 24h201q34 0 59 -24t25 -58v-113h29q139 0 238.5 -99t99.5 -237v-37q0 -22 -14.5 -37.5t-36.5 -15.5h-271q-36 0 -49 33q-2 2 -2 10q-12 31 -40 49.5t-62 18.5h-152q-46 0 -78.5 -32.5t-32.5 -78.5v-133
q0 -46 32.5 -78.5t78.5 -32.5h152q34 0 62 19.5t40 50.5q0 6 2 8q13 33 49 33h271q22 0 36.5 -14.5t14.5 -36.5v-66q0 -127 -89.5 -217t-215.5 -90h-62v-113q0 -34 -25 -58t-59 -24h-201q-34 0 -57.5 24t-23.5 58v113h-23q-142 0 -243 101.5t-101 244.5v295z" />
    <glyph glyph-name="sterling" unicode="&#xa3;" horiz-adv-x="1380" 
d="M41 780q0 32 22.5 53t53.5 21h110v139q0 182 128 310.5t309 128.5h229q180 0 308 -129t128 -310v-63q0 -20 -14.5 -34.5t-34.5 -14.5h-297q-20 0 -33.5 13.5t-15.5 33.5q-2 45 -31.5 76.5t-73.5 31.5h-102q-44 0 -75 -31t-31 -75v-76h163q31 0 53.5 -21.5t22.5 -52.5
v-168q0 -31 -22 -52t-54 -21h-163v-72q0 -50 -34 -84.5t-83 -34.5h762q31 0 52 -20.5t21 -51.5v-202q0 -32 -22 -53t-53 -21h-1139q-34 0 -59 24t-25 58v201q0 27 20 46t48 19q49 0 83.5 34.5t34.5 84.5v72h-110q-31 0 -53.5 21.5t-22.5 51.5v168z" />
    <glyph glyph-name="currency" unicode="&#xa4;" horiz-adv-x="1337" 
d="M63 287q-23 26 -21 59.5t28 56.5l120 109q-10 42 -10 74v258q0 32 10 74l-120 108q-26 23 -28 57t21 60l113 127q25 28 60 28q30 0 55 -22l145 -129q32 4 51 4h361q21 0 53 -4l146 129q25 22 55 22q36 0 61 -28l113 -127q23 -26 21.5 -60t-27.5 -57l-121 -108
q8 -33 8 -74v-258q0 -41 -8 -74l121 -109q26 -23 27.5 -56.5t-21.5 -59.5l-113 -127q-26 -29 -61 -29q-29 0 -55 23l-146 129q-32 -4 -53 -4h-361q-19 0 -51 4l-145 -129q-26 -23 -55 -23q-34 0 -60 29zM598 889q-47 0 -81 -33.5t-34 -79.5v-123q0 -47 34 -80.5t81 -33.5
h141q46 0 80.5 33.5t34.5 80.5v123q0 46 -34.5 79.5t-80.5 33.5h-141z" />
    <glyph glyph-name="yen" unicode="&#xa5;" horiz-adv-x="1640" 
d="M45 1380q-10 17 0.5 35.5t30.5 18.5h334q47 0 73 -41l326 -523q3 -4 9 -4t9 4l328 523q26 41 74 41h336q20 0 28.5 -18.5t-0.5 -35.5l-282 -452h153q34 0 59 -24t25 -58v-98q0 -32 -25 -56t-59 -24h-319l-84 -136h403q34 0 59 -24.5t25 -58.5v-99q0 -34 -25 -58t-59 -24
h-420v-182q0 -35 -26.5 -60.5t-61.5 -25.5h-276q-35 0 -60.5 25.5t-25.5 60.5v182h-422q-32 0 -56 24t-24 58v99q0 34 24 58.5t56 24.5h403l-83 136h-320q-32 0 -56 24t-24 56v98q0 34 24 58t56 24h156z" />
    <glyph glyph-name="brokenbar" unicode="&#xa6;" horiz-adv-x="448" 
d="M41 1544q0 34 24 58t58 24h203q34 0 58 -24t24 -58v-721q0 -34 -24 -58t-58 -24h-203q-34 0 -58 24t-24 58v721zM123 -446q-34 0 -58 25t-24 59v718q0 34 24 58t58 24h203q34 0 58 -24t24 -58v-718q0 -34 -24 -59t-58 -25h-203z" />
    <glyph glyph-name="section" unicode="&#xa7;" horiz-adv-x="1597" 
d="M41 485q0 264 133 371q-41 80 -41 178q0 222 94.5 311t319.5 89h586q151 0 248.5 -78.5t97.5 -218.5v-109q0 -20 -12.5 -32.5t-32.5 -12.5h-246q-19 0 -32 12.5t-13 32.5q0 41 -29.5 74t-69.5 33h-405q-39 0 -66.5 -28.5t-27.5 -68.5q0 -46 17.5 -67.5t78.5 -28.5
q49 -6 243 -18t261 -19q4 0 13 -1q139 -13 208 -43q189 -85 190 -363q0 -229 -129 -344q35 -81 35 -207q0 -64 -9.5 -118t-27 -92t-41.5 -68.5t-52.5 -49t-60.5 -33t-66 -19.5t-68 -9.5t-67 -3.5t-64 0h-31h-461q-168 0 -281.5 95t-113.5 253v53q0 19 11.5 32t31.5 13h248
q19 0 31 -12t12 -31q0 -41 29 -72.5t69 -31.5h403q40 0 68.5 27t30.5 65q1 40 -25 66t-72 34q-30 4 -234.5 16.5t-268.5 18.5q-43 3 -92 16.5t-107.5 44.5t-104.5 74t-77 113.5t-31 156.5zM442 520q-3 -46 21.5 -82t85.5 -43q54 -7 250.5 -20t247.5 -17q40 2 72.5 36.5
t29.5 76.5q-9 108 -100 123q-24 3 -116 9.5t-208.5 13.5t-173.5 12q-38 -1 -72 -35t-37 -74z" />
    <glyph glyph-name="dieresis" unicode="&#xa8;" horiz-adv-x="876" 
d="M41 1192v166q0 31 22.5 52.5t53.5 21.5h166q32 0 53.5 -21.5t21.5 -52.5v-166q0 -32 -21.5 -54t-53.5 -22h-166q-31 0 -53.5 22t-22.5 54zM520 1358q0 31 22.5 52.5t53.5 21.5h166q32 0 53 -21.5t21 -52.5v-166q0 -32 -21 -54t-53 -22h-166q-31 0 -53.5 22t-22.5 54v166z
" />
    <glyph glyph-name="copyright" unicode="&#xa9;" horiz-adv-x="2177" 
d="M645 -195q-123 0 -235 48t-192.5 128.5t-128.5 192.5t-48 234v616q0 122 48 233.5t128.5 192.5t192.5 128.5t235 47.5h885q123 0 235 -47.5t193.5 -128.5t129.5 -192.5t48 -233.5v-616q0 -122 -48 -234t-129.5 -192.5t-193.5 -128.5t-235 -48h-885zM354 457
q0 -139 100 -238.5t240 -99.5h789q138 0 238 99.5t100 238.5v518q0 139 -99.5 237.5t-238.5 98.5h-789q-140 0 -240 -98.5t-100 -237.5v-518zM530 582v268q0 130 94.5 223.5t225.5 93.5h485q129 0 220.5 -91t91.5 -220v-35q0 -20 -14.5 -33.5t-35.5 -13.5h-245q-31 0 -45 31
q-2 2 -2 8q-10 28 -36.5 44.5t-58.5 16.5h-243q-41 0 -71 -29.5t-30 -70.5v-121q0 -41 30 -70.5t71 -29.5h243q32 0 58 17.5t37 45.5q0 7 2 9q12 28 45 28h245q21 0 35.5 -13.5t14.5 -33.5v-59q0 -117 -82.5 -200t-198.5 -83h-465q-87 0 -172.5 42.5t-142 117t-56.5 158.5z
" />
    <glyph glyph-name="ordfeminine" unicode="&#xaa;" horiz-adv-x="790" 
d="M41 1196q0 48 17.5 82.5t42.5 53.5t63 29.5t69 13.5t70 3q48 0 107 -7t77 -19q2 -2 5 -2q8 0 8 8v55q0 26 -18.5 44t-43.5 18h-127q-25 0 -35 -23q-10 -16 -28 -16h-178q-11 0 -18.5 8t-6.5 18q10 75 68.5 119.5t138.5 44.5h260q93 0 165.5 -56.5t72.5 -142.5v-364
q0 -20 -15.5 -35.5t-34.5 -15.5h-180q-9 0 -14.5 7.5t-5.5 16.5v6q0 5 -5 7.5t-8 -0.5q-20 -13 -81 -25t-105 -12q-142 0 -201 45.5t-59 138.5zM373 1266q-51 0 -82 -18.5t-31 -43.5q0 -26 30.5 -46.5t82.5 -20.5q60 0 88 15.5t28 51.5q0 62 -116 62z" />
    <glyph glyph-name="guillemotleft" unicode="&#xab;" horiz-adv-x="724" 
d="M49 1300q-7 9 -7 21.5t7 19.5l279 279q9 9 21.5 4t12.5 -18v-148q0 -14 -8 -22l-108 -109q-6 -6 0 -12l108 -109q8 -8 8 -20v-152q0 -13 -12.5 -18t-21.5 4zM375 1300q-7 9 -7 21.5t7 19.5l276 279q9 9 21 4t12 -18v-148q0 -14 -8 -22l-107 -109q-6 -6 0 -12l107 -109
q8 -8 8 -20v-152q0 -13 -12 -18t-21 4z" />
    <glyph glyph-name="logicalnot" unicode="&#xac;" 
d="M123 336q-34 0 -58 24t-24 58v149q0 34 24 59t58 25h936q34 0 58 -25t24 -59v-483q0 -34 -24 -59t-58 -25h-150q-34 0 -58 25t-24 59v227q0 10 -7.5 17.5t-18.5 7.5h-678z" />
    <glyph glyph-name="uni00AD" unicode="&#xad;" horiz-adv-x="804" 
 />
    <glyph glyph-name="registered" unicode="&#xae;" horiz-adv-x="2177" 
d="M41 1026q0 122 48 233.5t128.5 192.5t192.5 128.5t235 47.5h885q123 0 235 -47.5t193.5 -128.5t129.5 -192.5t48 -233.5v-616q0 -122 -48 -234t-129.5 -192.5t-193.5 -128.5t-235 -48h-885q-123 0 -235 48t-192.5 128.5t-128.5 192.5t-48 234v616zM354 977v-518
q0 -139 100 -238.5t240 -99.5h789q138 0 238 99.5t100 238.5v518q0 139 -99.5 237.5t-238.5 98.5h-789q-140 0 -240 -98.5t-100 -237.5zM528 1118q0 21 16 36t38 15h796q123 0 195 -90.5t72 -220.5q0 -84 -55 -161.5t-126 -110.5q-14 -7 -6 -19q115 -165 176 -254
q11 -15 -0.5 -31t-34.5 -16h-225q-37 0 -53 25l-164 221q-26 37 -82 37h-246q-16 0 -16 -17v-213q0 -22 -14.5 -36.5t-36.5 -14.5h-180q-22 0 -38 15t-16 36v799zM813 918v-119q0 -27 25 -27h436q27 0 54.5 23.5t27.5 64.5q0 43 -24 63.5t-62 20.5h-432q-25 0 -25 -26z" />
    <glyph glyph-name="macron" unicode="&#xaf;" horiz-adv-x="874" 
d="M123 1118q-34 0 -58 24t-24 58v150q0 34 24 59t58 25h629q34 0 58 -25t24 -59v-150q0 -34 -24 -58t-58 -24h-629z" />
    <glyph glyph-name="degree" unicode="&#xb0;" horiz-adv-x="2181" 
d="M186 8q-17 0 -23.5 15.5t5.5 27.5l1354 1350q39 39 92 39h381q17 0 23.5 -16.5t-5.5 -28.5l-1356 -1350q-37 -37 -90 -37h-381zM285 745q-100 0 -172 72.5t-72 173.5v205q0 101 72 173.5t172 72.5h350q101 0 172.5 -72.5t71.5 -173.5v-205q0 -101 -71.5 -173.5
t-172.5 -72.5h-350zM1303 252v205q0 15 4 43q0 1 1 3t1 3v2q17 84 83.5 139t153.5 55h355q98 0 168.5 -72t70.5 -173v-205q0 -27 -2 -41q0 -1 -1 -4t-1 -4q-17 -84 -83 -139.5t-152 -55.5h-355q-100 0 -171.5 71.5t-71.5 172.5zM1579 315q0 -29 20.5 -50t51.5 -21h145
q29 0 50.5 21t21.5 50v78q0 29 -21.5 51.5t-50.5 22.5h-145q-30 0 -51 -22t-21 -52v-78zM315 1133v-78q0 -29 21.5 -50.5t52.5 -21.5h143q29 0 50.5 21.5t21.5 50.5v78q0 29 -21.5 50t-50.5 21h-143q-31 0 -52.5 -21t-21.5 -50z" />
    <glyph glyph-name="plusminus" unicode="&#xb1;" horiz-adv-x="1269" 
d="M41 834v217q0 20 14.5 34.5t34.5 14.5h363q11 0 17.5 7t6.5 17v260q0 20 15.5 35t35.5 15h215q20 0 35 -15t15 -35v-260q0 -10 6.5 -17t17.5 -7h363q20 0 34.5 -14.5t14.5 -34.5v-217q0 -20 -14.5 -35t-34.5 -15h-363q-10 0 -17 -7.5t-7 -18.5v-256q0 -20 -15 -35.5
t-35 -15.5h-215q-20 0 -35.5 15.5t-15.5 35.5v256q0 11 -7 18.5t-17 7.5h-363q-20 0 -34.5 15t-14.5 35zM41 76v166q0 31 21 52t53 21h1038q32 0 54 -21t22 -52v-166q0 -32 -22 -54t-54 -22h-1038q-32 0 -53 22t-21 54z" />
    <glyph glyph-name="twosuperior" unicode="&#xb2;" horiz-adv-x="634" 
d="M74 1020q-13 0 -23 9t-10 22v172q0 54 35 94t88 49l221 39q15 3 25 15.5t10 27.5q0 13 -10 22t-23 9h-139q-13 0 -23 -9t-10 -22v-6q0 -13 -9.5 -22t-21.5 -9h-110q-13 0 -23 9t-10 22v39q0 61 43.5 104t103.5 43h258q60 0 104 -43t44 -104v-92q0 -54 -35 -94.5
t-88 -49.5l-242 -43q-14 -4 -14 -16q0 -8 5.5 -13.5t12.5 -5.5h328q13 0 23 -8.5t10 -21.5v-86q0 -13 -10 -22t-23 -9h-487z" />
    <glyph glyph-name="threesuperior" unicode="&#xb3;" horiz-adv-x="647" 
d="M41 1221q0 24 31 24h129q12 0 21 -9t9 -22v-8q0 -15 11 -27t26 -12h113q15 0 26 12t11 27v6q0 15 -11 26t-26 11h-86q-13 0 -23 9t-10 22v86q0 13 10.5 23t22.5 10h84q15 0 27 11t12 26v6q0 15 -12 27t-27 12h-111q-15 0 -26 -12t-11 -27v-8q0 -13 -9 -22t-21 -9h-129
q-12 0 -21.5 9t-9.5 22v34q0 40 12.5 69.5t31.5 46.5t48.5 27t57.5 13.5t63 3.5h141q35 0 63 -3.5t56.5 -13.5t48 -27t31.5 -46.5t12 -69.5q0 -110 -74 -143q-2 0 -2 -2t2 -2q74 -33 74 -137q0 -81 -42 -122.5t-120 -41.5h-239q-78 0 -121 42t-43 122v37z" />
    <glyph glyph-name="acute" unicode="&#xb4;" horiz-adv-x="393" 
d="M90 1085q-23 0 -37.5 18t-11.5 40l37 248q3 19 16 31t31 12h176q31 0 44.5 -26.5t-3.5 -51.5l-176 -250q-17 -21 -41 -21h-35z" />
    <glyph glyph-name="uni00B5" unicode="&#xb5;" 
d="M41 -289v1202q0 31 21.5 51.5t52.5 20.5h204q32 0 53 -21t21 -53v-403q0 -77 55.5 -127.5t137.5 -50.5q83 0 136 48.5t54 129.5v403q0 32 22 53t54 21h217q31 0 51.5 -21t20.5 -53v-835q0 -32 -20.5 -54t-51.5 -22h-217q-32 0 -54 22t-22 54v22q0 6 -5 9t-11 -1
q-59 -52 -126 -77t-177 -25q-24 0 -64 4v-297q0 -65 -44.5 -110t-108.5 -45h-45q-64 0 -109 45t-45 110z" />
    <glyph glyph-name="paragraph" unicode="&#xb6;" horiz-adv-x="1488" 
d="M387 451q-144 0 -245 101t-101 243v292q0 143 101 245t245 102h979q34 0 58 -24t24 -58v-1463q0 -34 -24 -58t-58 -24h-199q-34 0 -59 24t-25 58v1201q0 10 -7.5 18t-18.5 8h-129q-11 0 -19 -8t-8 -18v-1201q0 -34 -24 -58t-56 -24h-198q-34 0 -59 24t-25 58v537
q0 10 -7.5 17.5t-17.5 7.5h-127z" />
    <glyph glyph-name="periodcentered" unicode="&#xb7;" horiz-adv-x="397" 
d="M41 805q0 31 21.5 52.5t52.5 21.5h168q32 0 52.5 -21.5t20.5 -52.5v-164q0 -33 -20.5 -54.5t-52.5 -21.5h-168q-31 0 -52.5 22t-21.5 54v164z" />
    <glyph glyph-name="cedilla" unicode="&#xb8;" horiz-adv-x="638" 
d="M41 -377q0 9 6.5 17t15.5 8h125q16 0 23 -15v-4q13 -30 47 -30h43q22 0 36.5 13.5t14.5 35.5v61q0 19 -11 32.5t-28 16.5h-108q-31 0 -44.5 26.5t3.5 51.5l190 270h244l-158 -225q36 -21 58 -57t22 -78v-135q0 -66 -47.5 -113t-112.5 -47h-163q-65 0 -110.5 45.5
t-45.5 110.5v16z" />
    <glyph glyph-name="onesuperior" unicode="&#xb9;" horiz-adv-x="415" 
d="M41 1475q0 14 10 24l142 121q8 8 20 8h129q12 0 22.5 -9.5t10.5 -21.5v-565q0 1 -4.5 -2t-13 -6.5t-15.5 -3.5h-111q-12 0 -21 9.5t-9 21.5v362q-1 4 -6 2l-97 -82q-8 -8 -22 -8t-24.5 10t-10.5 25v115z" />
    <glyph glyph-name="ordmasculine" unicode="&#xba;" horiz-adv-x="770" 
d="M41 1229v182q0 90 63.5 153.5t153.5 63.5h254q90 0 153.5 -63.5t63.5 -153.5v-182q0 -90 -63.5 -153.5t-153.5 -63.5h-254q-90 0 -153.5 63.5t-63.5 153.5zM92 924h586q22 0 36.5 -15t14.5 -37v-73q0 -22 -14.5 -36.5t-36.5 -14.5h-586q-22 0 -36.5 14.5t-14.5 36.5v73
q0 22 14.5 37t36.5 15zM332 1450q-35 0 -59.5 -24.5t-24.5 -59.5v-92q0 -35 24.5 -60.5t59.5 -25.5h106q35 0 59.5 25.5t24.5 60.5v92q0 35 -24.5 59.5t-59.5 24.5h-106z" />
    <glyph glyph-name="guillemotright" unicode="&#xbb;" horiz-adv-x="722" 
d="M41 1606q0 13 12 18t21 -4l278 -277q8 -9 8 -22t-8 -21l-278 -280q-9 -9 -21 -4t-12 18v152q0 12 8 20l107 109q7 7 0 14l-107 109q-8 8 -8 20v148zM365 1458v148q0 13 11.5 18t20.5 -4l279 -277q8 -9 8 -22t-8 -21l-279 -280q-9 -9 -20.5 -4t-11.5 18v152q0 12 8 20
l106 109q7 7 0 14l-106 109q-8 8 -8 20z" />
    <glyph glyph-name="onequarter" unicode="&#xbc;" horiz-adv-x="1484" 
d="M59 -6q-12 0 -17 11t3 20l1069 1361q31 39 82 39h203q12 0 17 -10.5t-3 -19.5l-1071 -1362q-31 -39 -80 -39h-203zM795 127v123q0 16 8 24l346 422q11 15 29 15h151q15 0 26 -11t11 -26v-398q0 -4 4 -8t8 -4h29q15 0 26 -11t11 -26v-100q0 -15 -11 -26t-26 -11h-29
q-4 0 -8 -4t-4 -8v-47q0 -15 -11 -26t-26 -11h-131q-15 0 -26 11t-11 26v47q0 4 -3.5 8t-8.5 4h-318q-15 0 -25.5 11t-10.5 26zM109 1077q-13 -10 -27 -10q-16 0 -28.5 11.5t-12.5 29.5v137q0 18 12 27l168 143q10 10 25 10h153q15 0 26 -10.5t11 -25.5v-666q0 1 -5 -2
t-14 -6.5t-18 -3.5h-131q-15 0 -26 9.5t-11 24.5v426q0 9 -8 5zM1030 264h119q5 0 8.5 4t3.5 8v148q0 3 -4.5 4t-5.5 -2l-125 -154q-4 -8 4 -8z" />
    <glyph glyph-name="onehalf" unicode="&#xbd;" horiz-adv-x="1615" 
d="M61 0q-12 0 -18 12t2 21l1073 1362q31 39 82 39h201q12 0 17.5 -11t-1.5 -20l-1073 -1362q-33 -41 -82 -41h-201zM928 240q0 63 40 112.5t101 59.5l260 45q19 3 30 16.5t11 32.5q0 15 -11 26t-26 11h-164q-15 0 -25.5 -11t-10.5 -26v-6q0 -15 -11 -26t-26 -11h-131
q-15 0 -26 11t-11 26v45q0 72 50 122t122 50h303q72 0 122 -50t50 -122v-107q0 -63 -41 -112.5t-102 -59.5l-283 -51q-16 -3 -16 -18q0 -8 6.5 -14.5t13.5 -6.5h385q15 0 26 -11t11 -26v-100q0 -15 -11 -27t-26 -12h-573q-15 0 -26 12t-11 27v201zM111 1085q-13 -10 -27 -10
q-16 0 -29.5 12.5t-13.5 30.5v135q0 19 14 29l168 143q9 9 25 9h153q15 0 26 -11t11 -26v-666q0 1 -5 -2.5t-14 -7.5t-18 -4h-131q-15 0 -26 11t-11 26v426q0 8 -8 4z" />
    <glyph glyph-name="threequarters" unicode="&#xbe;" horiz-adv-x="1642" 
d="M201 33l1071 1362q31 39 80 39h204q12 0 17.5 -11t-2.5 -20l-1073 -1362q-33 -41 -80 -41h-203q-12 0 -17 12t3 21zM41 1247q0 58 20.5 97t58.5 57.5t78 25.5t93 7h168q53 0 93 -7t78 -25.5t58.5 -57.5t20.5 -97q0 -43 -10 -76.5t-25 -52t-27.5 -28t-23.5 -13.5
q-1 0 -1 -3t1 -3q12 -4 24 -12.5t27.5 -26t25 -49t9.5 -72.5q0 -95 -51 -144.5t-142 -49.5h-283q-91 0 -141.5 49.5t-50.5 144.5v43q0 29 37 29h151q15 0 26 -11t11 -26v-10q0 -19 12 -31t31 -12h133q19 0 31 12t12 31v8q0 19 -12 31t-31 12h-102q-15 0 -26 12t-11 27v100
q0 15 11 26t26 11h100q19 0 32 13t13 32v6q0 19 -13 32.5t-32 13.5h-131q-18 0 -30.5 -13.5t-12.5 -32.5v-10q0 -15 -11 -26t-26 -11h-151q-15 0 -26 11t-11 26v43zM952 258q0 14 9 23l346 424q9 12 28 12h152q15 0 26 -10t11 -25v-397q0 -5 4 -9t8 -4h29q15 0 26 -10.5
t11 -25.5v-101q0 -15 -11 -27t-26 -12h-29q-4 0 -8 -4t-4 -8v-45q0 -15 -11 -27t-26 -12h-131q-15 0 -26 12t-11 27v45q0 4 -3.5 8t-8.5 4h-318q-15 0 -26 12t-11 27v123zM1184 281q-4 -9 2 -9h121q4 0 8 4t4 9v147q0 3 -4.5 4t-5.5 -2z" />
    <glyph glyph-name="questiondown" unicode="&#xbf;" horiz-adv-x="1380" 
d="M387 -193q-143 0 -244.5 101.5t-101.5 243.5v196q0 142 101.5 244t244.5 102h27q31 0 51 20.5t20 51.5t21.5 52.5t52.5 21.5h262q31 0 52.5 -21.5t21.5 -52.5v-68q0 -146 -102 -249t-248 -103h-2q-38 0 -65 -27t-27 -65q0 -41 28.5 -69.5t69.5 -28.5h282q41 0 70 28.5
t29 69.5v18q0 31 21.5 52.5t52.5 21.5h262q31 0 52 -21.5t21 -52.5v-120q0 -142 -101.5 -243.5t-244.5 -101.5h-606zM485 1178q0 26 19 44.5t45 18.5h282q26 0 45 -18.5t19 -44.5v-170q0 -26 -19 -45t-45 -19h-282q-26 0 -45 19t-19 45v170z" />
    <glyph glyph-name="Agrave" unicode="&#xc0;" horiz-adv-x="1589" 
d="M90 0q-26 0 -40.5 20.5t-6.5 45.5l467 1316q8 22 27.5 36t42.5 14h428q23 0 42 -14t27 -36l469 -1316q8 -25 -6.5 -45.5t-40.5 -20.5h-299q-24 0 -44 13t-26 34l-63 178q-9 17 -25 17h-499q-15 0 -23 -17l-63 -178q-6 -21 -26 -34t-44 -13h-297zM627 1876h176
q19 0 32.5 -12t16.5 -31l35 -250q3 -22 -11.5 -38.5t-37.5 -16.5h-35q-22 0 -39 20l-176 250q-17 25 -4.5 51.5t43.5 26.5zM662 623q-4 -10 4 -21.5t20 -11.5h215q12 0 20 11t3 22l-121 360q-3 7 -9.5 7t-9.5 -7z" />
    <glyph glyph-name="Aacute" unicode="&#xc1;" horiz-adv-x="1589" 
d="M90 0q-26 0 -40.5 20.5t-6.5 45.5l467 1316q8 22 27.5 36t42.5 14h426q23 0 42 -14t27 -36l471 -1316q8 -25 -7.5 -45.5t-41.5 -20.5h-297q-24 0 -44 13t-26 34l-63 178q-9 17 -25 17h-499q-15 0 -23 -17l-65 -178q-6 -21 -26 -34t-44 -13h-295zM700 1583l35 250
q3 19 16.5 31t32.5 12h174q31 0 44.5 -26.5t-3.5 -51.5l-176 -250q-17 -20 -41 -20h-34q-23 0 -37 16.5t-11 38.5zM662 623q-4 -10 4 -21.5t20 -11.5h215q12 0 20 11t3 22l-121 360q-3 7 -10.5 7t-10.5 -7z" />
    <glyph glyph-name="Acircumflex" unicode="&#xc2;" horiz-adv-x="1589" 
d="M92 0q-26 0 -41.5 20.5t-7.5 45.5l469 1316q8 22 27.5 36t42.5 14h426q23 0 42 -14t27 -36l469 -1316q8 -25 -6.5 -45.5t-40.5 -20.5h-297q-24 0 -43.5 13t-25.5 34l-66 178q-9 17 -23 17h-499q-17 0 -25 -17l-63 -178q-6 -21 -26 -34t-44 -13h-295zM485 1528l144 327
q11 21 33 21h276q22 0 29 -21l143 -327q4 -10 -1.5 -18.5t-16.5 -8.5h-181q-21 0 -28 21l-80 166q-4 4 -8 0l-80 -166q-7 -21 -31 -21h-178q-11 0 -18 8.5t-3 18.5zM664 623q-5 -11 2.5 -22t19.5 -11h215q12 0 20.5 11.5t4.5 21.5l-121 360q-3 7 -10.5 7t-10.5 -7z" />
    <glyph glyph-name="Atilde" unicode="&#xc3;" horiz-adv-x="1589" 
d="M90 0q-26 0 -40.5 20.5t-6.5 45.5l467 1316q8 22 27.5 36t42.5 14h428q23 0 42 -14t27 -36l469 -1316q8 -25 -6.5 -45.5t-40.5 -20.5h-299q-24 0 -44 13t-26 34l-63 178q-9 17 -23 17h-499q-17 0 -25 -17l-63 -178q-6 -21 -26 -34t-44 -13h-297zM358 1659q23 110 113 170
l4 2q65 45 146 45q83 0 145 -45l158 -107q24 -14 45 -14q22 0 43 14l2 2q23 20 30 41q11 29 39 29h103q20 0 33 -15.5t10 -35.5q-18 -107 -115 -172h-2q-67 -45 -143 -45q-79 0 -146 45l-159 104q-18 15 -43 15t-46 -15l-2 -2q-21 -15 -30 -39q-10 -26 -41 -26h-101
q-21 0 -34 14.5t-9 34.5zM664 623q-5 -11 2.5 -22t19.5 -11h215q12 0 20.5 11.5t4.5 21.5l-123 360q-3 7 -9.5 7t-9.5 -7z" />
    <glyph glyph-name="Adieresis" unicode="&#xc4;" horiz-adv-x="1589" 
d="M90 0q-26 0 -40.5 20.5t-6.5 45.5l467 1316q8 22 27.5 36t42.5 14h426q23 0 42 -14t27 -36l471 -1316q8 -25 -6.5 -45.5t-40.5 -20.5h-299q-24 0 -44 13t-26 34l-63 178q-9 17 -25 17h-499q-15 0 -23 -17l-65 -178q-6 -21 -26 -34t-44 -13h-295zM395 1802q0 31 22.5 52.5
t53.5 21.5h166q32 0 54 -21.5t22 -52.5v-166q0 -32 -22 -53.5t-54 -21.5h-166q-31 0 -53.5 21.5t-22.5 53.5v166zM874 1802q0 31 22.5 52.5t53.5 21.5h166q32 0 53 -21.5t21 -52.5v-166q0 -32 -21 -53.5t-53 -21.5h-166q-31 0 -53.5 21.5t-22.5 53.5v166zM662 623
q-4 -10 4 -21.5t20 -11.5h215q12 0 20 11t3 22l-121 360q-3 7 -10.5 7t-10.5 -7z" />
    <glyph glyph-name="Aring" unicode="&#xc5;" horiz-adv-x="1589" 
d="M92 0q-26 0 -41.5 20.5t-7.5 45.5l469 1316q8 22 27.5 36t42.5 14h426q23 0 42 -14t27 -36l469 -1316q8 -25 -6.5 -45.5t-40.5 -20.5h-297q-24 0 -43.5 13t-25.5 34l-64 178q-9 17 -25 17h-499q-17 0 -25 -17l-63 -178q-6 -21 -26 -34t-44 -13h-295zM795 1509
q-86 0 -147.5 61.5t-61.5 147.5t61.5 147.5t147.5 61.5t147.5 -61.5t61.5 -147.5t-61.5 -147.5t-147.5 -61.5zM664 623q-4 -10 4 -21.5t20 -11.5h213q12 0 20.5 11.5t4.5 21.5l-121 360q-3 7 -10.5 7t-10.5 -7zM725 1718q0 -29 20.5 -49t49.5 -20t49 20t20 49t-20 49.5
t-49 20.5t-49.5 -20.5t-20.5 -49.5z" />
    <glyph glyph-name="AE" unicode="&#xc6;" horiz-adv-x="2359" 
d="M94 0q-30 0 -45 25t0 51l754 1292q17 29 46.5 46.5t63.5 17.5l1332 -2q32 0 53.5 -22t21.5 -54v-185q0 -31 -21.5 -51t-53.5 -20h-707q-9 0 -17 -8.5t-8 -18.5v-166q0 -10 8 -18t17 -8h707q31 0 53 -21.5t22 -52.5v-180q0 -31 -22 -53.5t-53 -22.5h-707q-9 0 -17 -7.5
t-8 -17.5v-168q0 -10 8 -17t17 -7h707q32 0 53.5 -21.5t21.5 -52.5v-184q0 -31 -22 -52.5t-53 -21.5h-1051q-31 0 -53.5 21.5t-22.5 52.5v155q0 10 -6.5 17.5t-15.5 7.5h-422q-46 0 -68 -39l-88 -152q-17 -29 -46.5 -46t-63.5 -17h-314zM844 623q-3 -6 0 -12.5t10 -6.5h242
q9 0 15.5 7.5t6.5 17.5v401q0 14 -12 18t-19 -8z" />
    <glyph glyph-name="Ccedilla" unicode="&#xc7;" horiz-adv-x="1468" 
d="M41 444v541q0 186 129 316.5t313 130.5h498q186 0 316 -130.5t130 -316.5v-55q0 -20 -15.5 -34.5t-35.5 -14.5h-295q-20 0 -34.5 14.5t-14.5 34.5q0 44 -31 75t-75 31h-346q-60 0 -104 -51t-44 -113v-331q0 -62 43.5 -106t104.5 -44h346q44 0 75 31.5t31 75.5
q0 20 14.5 34.5t34.5 14.5h295q20 0 35.5 -14.5t15.5 -34.5v-54q0 -186 -130 -315t-316 -129h-76l-78 -115q36 -21 58 -58t22 -79v-133q0 -66 -47 -113t-112 -47h-164q-64 0 -110 45.5t-46 110.5v16q0 9 8 17t17 8h122q16 0 23 -14v-5q14 -32 47 -32h45q22 0 35.5 14.5
t13.5 36.5v61q0 19 -11 32.5t-28 16.5h-108q-31 0 -44.5 26.5t3.5 51.5l113 160h-181q-185 0 -313.5 129t-128.5 315z" />
    <glyph glyph-name="Egrave" unicode="&#xc8;" horiz-adv-x="1280" 
d="M41 74v1282q0 32 21 54t53 22h1048q32 0 54 -22t22 -54v-185q0 -31 -22 -51t-54 -20h-706q-9 0 -16 -8t-7 -19v-170q0 -10 7 -17t16 -7h706q32 0 54 -22t22 -54v-197q0 -57 -76 -57h-706q-9 0 -16 -8t-7 -19v-166q0 -10 7 -18t16 -8h706q32 0 54 -20.5t22 -51.5v-184
q0 -32 -22 -53t-54 -21h-1048q-32 0 -53 21t-21 53zM440 1798q-16 25 -2.5 51.5t43.5 26.5h176q19 0 33 -12t17 -31l34 -250q3 -22 -11.5 -38.5t-37.5 -16.5h-35q-22 0 -39 20z" />
    <glyph glyph-name="Eacute" unicode="&#xc9;" horiz-adv-x="1280" 
d="M41 74v1282q0 32 21 54t53 22h1048q32 0 54 -22t22 -54v-185q0 -31 -22 -51t-54 -20h-706q-9 0 -16 -8t-7 -19v-170q0 -10 7 -17t16 -7h706q32 0 54 -22t22 -54v-197q0 -57 -76 -57h-706q-9 0 -16 -8t-7 -19v-166q0 -10 7 -18t16 -8h706q32 0 54 -20.5t22 -51.5v-184
q0 -32 -22 -53t-54 -21h-1048q-32 0 -53 21t-21 53zM584 1528q-23 0 -36.5 16.5t-10.5 38.5l34 250q3 19 17 31t33 12h176q31 0 43.5 -26.5t-4.5 -51.5l-177 -250q-17 -20 -41 -20h-34z" />
    <glyph glyph-name="Ecircumflex" unicode="&#xca;" horiz-adv-x="1280" 
d="M41 74v1282q0 32 22 54t54 22h1048q32 0 53 -22t21 -54v-185q0 -31 -21 -51t-53 -20h-708q-9 0 -16 -8t-7 -19v-170q0 -10 7 -17t16 -7h708q32 0 53 -22t21 -54v-197q0 -57 -74 -57h-708q-9 0 -16 -8t-7 -19v-166q0 -10 7 -18t16 -8h708q32 0 53 -20.5t21 -51.5v-184
q0 -32 -21 -53t-53 -21h-1048q-32 0 -54 21t-22 53zM348 1509q-26 0 -18 19l141 327q11 21 31 21h276q24 0 31 -21l143 -327q4 -10 -2 -14.5t-18 -4.5h-178q-27 0 -31 13l-80 166q-4 4 -8 0l-80 -166q-4 -13 -29 -13h-178z" />
    <glyph glyph-name="Edieresis" unicode="&#xcb;" horiz-adv-x="1280" 
d="M41 74v1282q0 32 21 54t53 22h1048q32 0 54 -22t22 -54v-185q0 -31 -22 -52t-54 -21h-706q-9 0 -16 -7.5t-7 -17.5v-170q0 -10 7 -17t16 -7h706q32 0 54 -22t22 -54v-197q0 -57 -76 -57h-706q-9 0 -16 -8t-7 -19v-166q0 -10 7 -18t16 -8h706q32 0 54 -21.5t22 -52.5v-182
q0 -32 -22 -53t-54 -21h-1048q-32 0 -53 21t-21 53zM795 1561q-31 0 -53.5 21.5t-22.5 53.5v166q0 31 22.5 52.5t53.5 21.5h166q32 0 53.5 -21.5t21.5 -52.5v-166q0 -32 -21.5 -53.5t-53.5 -21.5h-166zM317 1561q-31 0 -52 21.5t-21 53.5v166q0 31 21 52.5t52 21.5h164
q32 0 54 -21.5t22 -52.5v-166q0 -32 -22 -53.5t-54 -21.5h-164z" />
    <glyph glyph-name="Igrave" unicode="&#xcc;" horiz-adv-x="1193" 
d="M41 74v178q0 31 21 52.5t53 21.5h241q9 0 16 7.5t7 16.5v725q0 9 -7 17t-16 8h-241q-32 0 -53 21.5t-21 52.5v182q0 32 21 54t53 22h964q31 0 52.5 -22t21.5 -54v-182q0 -31 -21.5 -52.5t-52.5 -21.5h-241q-10 0 -18.5 -8t-8.5 -17v-725q0 -9 8.5 -16.5t18.5 -7.5h241
q31 0 52.5 -21.5t21.5 -52.5v-178q0 -32 -21.5 -53t-52.5 -21h-964q-32 0 -53 21t-21 53zM399 1798q-17 25 -3.5 51.5t44.5 26.5h176q19 0 32 -12t16 -31l36 -250q3 -22 -11.5 -38.5t-37.5 -16.5h-35q-24 0 -41 20z" />
    <glyph glyph-name="Iacute" unicode="&#xcd;" horiz-adv-x="1193" 
d="M41 74v178q0 31 22 52.5t54 21.5h239q9 0 16 7.5t7 16.5v725q0 9 -7 17t-16 8h-239q-32 0 -54 21.5t-22 52.5v182q0 32 22 54t54 22h962q31 0 52.5 -22t21.5 -54v-182q0 -31 -21.5 -52.5t-52.5 -21.5h-241q-10 0 -17.5 -8t-7.5 -17v-725q0 -9 7.5 -16.5t17.5 -7.5h241
q31 0 52.5 -21.5t21.5 -52.5v-178q0 -32 -21.5 -53t-52.5 -21h-962q-32 0 -54 21t-22 53zM543 1528q-23 0 -37.5 16.5t-11.5 38.5l36 250q3 19 16 31t32 12h176q31 0 44.5 -26.5t-3.5 -51.5l-177 -250q-17 -20 -40 -20h-35z" />
    <glyph glyph-name="Icircumflex" unicode="&#xce;" horiz-adv-x="1193" 
d="M41 74v178q0 31 22 52.5t54 21.5h239q9 0 17 7.5t8 16.5v725q0 9 -8 17t-17 8h-239q-32 0 -54 21.5t-22 52.5v182q0 32 22 54t54 22h964q31 0 51.5 -22t20.5 -54v-182q0 -31 -20.5 -52.5t-51.5 -21.5h-243q-10 0 -17.5 -8t-7.5 -17v-725q0 -9 7.5 -16.5t17.5 -7.5h243
q31 0 51.5 -21.5t20.5 -52.5v-178q0 -32 -20.5 -53t-51.5 -21h-964q-32 0 -54 21t-22 53zM305 1509q-12 0 -18 4.5t-2 14.5l143 327q10 21 31 21h276q24 0 31 -21l143 -327q4 -10 -2 -14.5t-18 -4.5h-178q-27 0 -31 13l-78 166q-4 4 -8 0l-80 -166q-4 -13 -31 -13h-178z" />
    <glyph glyph-name="Idieresis" unicode="&#xcf;" horiz-adv-x="1193" 
d="M41 74v178q0 31 22 52.5t54 21.5h239q9 0 17 7.5t8 16.5v725q0 9 -8 17t-17 8h-239q-32 0 -54 21.5t-22 52.5v182q0 32 22 54t54 22h964q31 0 51.5 -22t20.5 -54v-182q0 -31 -20.5 -52.5t-51.5 -21.5h-243q-10 0 -17.5 -8t-7.5 -17v-725q0 -9 7.5 -16.5t17.5 -7.5h243
q31 0 51.5 -21.5t20.5 -52.5v-178q0 -32 -20.5 -53t-51.5 -21h-964q-32 0 -54 21t-22 53zM754 1561q-31 0 -52.5 21.5t-21.5 53.5v166q0 31 21.5 52.5t52.5 21.5h166q32 0 53.5 -21.5t21.5 -52.5v-166q0 -32 -21.5 -53.5t-53.5 -21.5h-166zM201 1636v166q0 31 21 52.5
t52 21.5h166q32 0 54 -21.5t22 -52.5v-166q0 -32 -22 -53.5t-54 -21.5h-166q-31 0 -52 21.5t-21 53.5z" />
    <glyph glyph-name="Eth" unicode="&#xd0;" horiz-adv-x="1654" 
d="M41 786q0 38 28 66.5t66 28.5h92v475q0 32 21.5 54t52.5 22h868q184 0 314.5 -131t130.5 -316v-543q0 -184 -130 -314t-315 -130h-868q-31 0 -52.5 22t-21.5 54v475h-92q-38 0 -66 27t-28 65v145zM621 549v-117q0 -18 12.5 -30.5t30.5 -12.5h364q78 0 134.5 56.5
t56.5 134.5v268q0 78 -56.5 134t-134.5 56h-364q-19 0 -31 -12t-12 -29v-116h301q38 0 65 -28t27 -67v-145q0 -38 -27 -65t-65 -27h-301z" />
    <glyph glyph-name="Ntilde" unicode="&#xd1;" horiz-adv-x="1490" 
d="M41 1356q0 32 20.5 54t51.5 22h321q45 0 64 -37l540 -713q4 -6 11.5 -3.5t7.5 9.5v668q0 32 20 54t51 22h246q31 0 53.5 -22t22.5 -54v-1282q0 -32 -22.5 -53t-53.5 -21h-319q-42 0 -62 35l-540 713q-5 6 -12 3.5t-7 -10.5v-667q0 -32 -22.5 -53t-53.5 -21h-245
q-31 0 -51.5 21t-20.5 53v1282zM311 1661q22 108 113 168l2 2q65 45 145 45q84 0 146 -45l160 -105q24 -14 45 -14q22 0 43 14h2q22 19 30 43q10 27 39 27h101q20 0 33 -14.5t10 -34.5q-18 -107 -115 -172l-2 -2q-61 -43 -143 -43q-80 0 -144 43l-160 106q-18 15 -43 15
q-24 0 -45 -15l-4 -2q-21 -15 -30 -39q-10 -28 -39 -28h-101q-21 0 -34 15.5t-9 35.5z" />
    <glyph glyph-name="Ograve" unicode="&#xd2;" horiz-adv-x="1492" 
d="M485 0q-186 0 -315 129.5t-129 314.5v543q0 121 59 223.5t161 162t224 59.5h525q184 0 313 -130t129 -315v-543q0 -185 -129 -314.5t-313 -129.5h-525zM389 580q0 -78 56.5 -133.5t134.5 -55.5h331q78 0 134.5 55.5t56.5 133.5v270q0 78 -56.5 134t-134.5 56h-331
q-78 0 -134.5 -56t-56.5 -134v-270zM590 1876h176q19 0 32.5 -12t16.5 -31l35 -250q3 -22 -11.5 -38.5t-37.5 -16.5h-35q-22 0 -39 20l-176 250q-17 25 -4.5 51.5t43.5 26.5z" />
    <glyph glyph-name="Oacute" unicode="&#xd3;" horiz-adv-x="1490" 
d="M483 0q-185 0 -313.5 129.5t-128.5 314.5v543q0 185 128.5 315t313.5 130h525q183 0 312.5 -130.5t129.5 -314.5v-543q0 -184 -129.5 -314t-312.5 -130h-525zM389 580q0 -78 56.5 -133.5t134.5 -55.5h331q78 0 133.5 55.5t55.5 133.5v270q0 78 -55.5 134t-133.5 56h-331
q-78 0 -134.5 -56t-56.5 -134v-270zM643 1583l35 250q3 19 16.5 31t32.5 12h176q31 0 44.5 -26.5t-3.5 -51.5l-178 -250q-17 -20 -39 -20h-35q-23 0 -37.5 16.5t-11.5 38.5z" />
    <glyph glyph-name="Ocircumflex" unicode="&#xd4;" horiz-adv-x="1492" 
d="M485 0q-186 0 -315 129.5t-129 314.5v543q0 121 59 223.5t161 162t224 59.5h525q184 0 313 -130t129 -315v-543q0 -185 -129 -314.5t-313 -129.5h-525zM391 580q0 -78 55.5 -133.5t133.5 -55.5h331q78 0 134.5 55.5t56.5 133.5v270q0 78 -56.5 134t-134.5 56h-331
q-78 0 -133.5 -56t-55.5 -134v-270zM434 1528l144 327q10 21 30 21h279q21 0 28 -21l144 -327q4 -10 -3 -17.5t-18 -7.5h-178q-23 0 -29 19l-79 166q-4 4 -9 0l-79 -166q-6 -19 -31 -19h-178q-11 0 -18 7.5t-3 17.5z" />
    <glyph glyph-name="Otilde" unicode="&#xd5;" horiz-adv-x="1492" 
d="M485 2q-186 0 -315 129.5t-129 314.5v543q0 121 59 223.5t161 162t224 59.5h525q184 0 313 -130t129 -315v-543q0 -185 -129 -314.5t-313 -129.5h-525zM391 852v-268q0 -78 56.5 -134.5t134.5 -56.5h331q78 0 134.5 56.5t56.5 134.5v268q0 78 -56.5 134t-134.5 56h-331
q-78 0 -134.5 -56t-56.5 -134zM313 1663q23 110 113 170l2 2q65 45 145 45q84 0 146 -45l160 -106q26 -15 45 -15q20 0 43 15l2 2q23 20 30 41q11 28 39 28h103q20 0 33 -15.5t10 -35.5q-18 -107 -115 -172h-2q-67 -45 -145 -45q-77 0 -144 45l-160 104q-18 15 -43 15
q-24 0 -45 -15l-4 -2q-21 -15 -30 -39q-10 -26 -39 -26h-101q-21 0 -34 14.5t-9 34.5z" />
    <glyph glyph-name="Odieresis" unicode="&#xd6;" horiz-adv-x="1490" 
d="M485 2q-186 0 -315 129.5t-129 314.5v543q0 121 59 223.5t161 162t224 59.5h525q183 0 311.5 -130t128.5 -315v-543q0 -185 -128.5 -314.5t-311.5 -129.5h-525zM389 852v-268q0 -78 56.5 -134.5t134.5 -56.5h331q78 0 133.5 56.5t55.5 134.5v268q0 78 -55.5 134
t-133.5 56h-331q-78 0 -134.5 -56t-56.5 -134zM350 1638v166q0 31 21.5 52.5t52.5 21.5h166q32 0 54 -21.5t22 -52.5v-166q0 -32 -21.5 -52.5t-54.5 -20.5h-166q-31 0 -52.5 20.5t-21.5 52.5zM827 1804q0 31 22.5 52.5t53.5 21.5h164q32 0 54 -21.5t22 -52.5v-166
q0 -32 -21.5 -52.5t-54.5 -20.5h-164q-31 0 -53.5 20.5t-22.5 52.5v166z" />
    <glyph glyph-name="multiply" unicode="&#xd7;" horiz-adv-x="1206" 
d="M70 1016q-29 28 -29 65.5t29 65.5l102 102q29 29 66 29q36 0 65 -29l299 -301l301 301q29 29 66 29q36 0 65 -29l103 -102q28 -28 28 -65.5t-28 -65.5l-301 -299l301 -301q28 -28 28 -64.5t-28 -64.5l-103 -105q-28 -28 -65 -28q-38 0 -66 28l-301 301l-299 -301
q-28 -28 -65 -28q-38 0 -66 28l-102 105q-29 28 -29 64.5t29 64.5l299 301z" />
    <glyph glyph-name="Oslash" unicode="&#xd8;" horiz-adv-x="1861" 
d="M78 152q-12 -6 -24.5 1.5t-12.5 20.5v264q0 28 15 50.5t40 33.5l129 60v407q0 121 59 223.5t161.5 162t224.5 59.5h524q126 0 230.5 -65.5t160.5 -174.5l199 90q12 6 24.5 -2t12.5 -22v-263q0 -28 -15.5 -51.5t-40.5 -34.5l-129 -57v-408q0 -184 -129.5 -314t-312.5 -130
h-524q-126 0 -231.5 66t-162.5 174zM575 737l619 279q-47 26 -96 26h-332q-78 0 -134.5 -56t-56.5 -134v-115zM672 420q49 -27 94 -27h332q78 0 133 56.5t55 134.5v112z" />
    <glyph glyph-name="Ugrave" unicode="&#xd9;" horiz-adv-x="1468" 
d="M41 446v914q0 31 21 52.5t53 21.5h243q32 0 53 -21.5t21 -52.5v-817q0 -61 44 -105.5t106 -44.5h303q61 0 104 44t43 106v817q0 31 21.5 52.5t52.5 21.5h246q32 0 53.5 -21.5t21.5 -52.5v-914q0 -186 -130 -315t-316 -129h-498q-185 0 -313.5 129t-128.5 315zM537 1800
q-18 25 -5 51.5t43 26.5h177q19 0 32.5 -12t16.5 -31l35 -248q3 -22 -12 -39.5t-38 -17.5h-34q-22 0 -39 20z" />
    <glyph glyph-name="Uacute" unicode="&#xda;" horiz-adv-x="1468" 
d="M483 2q-185 0 -313.5 129t-128.5 315v914q0 31 21 52.5t53 21.5h243q32 0 53 -21.5t21 -52.5v-817q0 -61 44 -105.5t106 -44.5h303q61 0 104 44t43 106v817q0 31 21.5 52.5t52.5 21.5h246q32 0 53.5 -21.5t21.5 -52.5v-914q0 -186 -130 -315t-316 -129h-498zM678 1530
q-23 0 -37.5 17.5t-11.5 39.5l37 248q3 19 16.5 31t32.5 12h174q31 0 44.5 -26.5t-3.5 -51.5l-176 -250q-17 -20 -41 -20h-35z" />
    <glyph glyph-name="Ucircumflex" unicode="&#xdb;" horiz-adv-x="1468" 
d="M41 1360q0 31 21 52.5t53 21.5h243q32 0 53 -21.5t21 -52.5v-817q0 -62 43.5 -106t104.5 -44h305q61 0 104 44t43 106v817q0 31 21.5 52.5t52.5 21.5h246q32 0 53.5 -21.5t21.5 -52.5v-914q0 -186 -130 -315t-316 -129h-498q-185 0 -313.5 129t-128.5 315v914zM440 1507
q-11 0 -17.5 7.5t-2.5 17.5l143 328q9 18 31 18h276q25 0 31 -18l143 -328q4 -10 -2.5 -17.5t-17.5 -7.5h-178q-25 0 -31 17l-78 168q-4 4 -8 0l-80 -168q-6 -17 -31 -17h-178z" />
    <glyph glyph-name="Udieresis" unicode="&#xdc;" horiz-adv-x="1468" 
d="M41 1360q0 31 21 52.5t53 21.5h241q32 0 54 -21.5t22 -52.5v-817q0 -62 43.5 -106t104.5 -44h305q61 0 104 44t43 106v817q0 31 21.5 52.5t52.5 21.5h246q32 0 53.5 -21.5t21.5 -52.5v-914q0 -186 -130 -315t-316 -129h-498q-185 0 -313.5 129t-128.5 315v914zM813 1638
v166q0 31 22.5 52.5t53.5 21.5h166q32 0 53.5 -21.5t21.5 -52.5v-166q0 -32 -21.5 -52.5t-53.5 -20.5h-166q-31 0 -53.5 20.5t-22.5 52.5zM334 1804q0 31 22.5 52.5t53.5 21.5h165q32 0 54 -21.5t22 -52.5v-166q0 -32 -21.5 -52.5t-54.5 -20.5h-165q-31 0 -53.5 20.5
t-22.5 52.5v166z" />
    <glyph glyph-name="Yacute" unicode="&#xdd;" horiz-adv-x="1638" 
d="M47 1380q-6 9 -6 19q0 14 10 24.5t25 10.5h334q47 0 73 -41l328 -521q3 -4 8 -4t8 4l328 521q26 41 74 41h336q13 0 22.5 -10.5t9.5 -24.5q0 -7 -4 -19l-549 -876v-414q0 -35 -25.5 -61.5t-60.5 -26.5h-278q-35 0 -60.5 26.5t-25.5 61.5v414zM725 1587l37 250q7 41 47 41
h176q31 0 44.5 -26.5t-3.5 -51.5l-176 -248q-18 -22 -41 -22h-35q-23 0 -37.5 17.5t-11.5 39.5z" />
    <glyph glyph-name="Thorn" unicode="&#xde;" horiz-adv-x="1468" 
d="M41 94v1247q0 38 27.5 65.5t64.5 27.5h209q38 0 65 -27.5t27 -65.5v-63h506q133 0 245 -65.5t177 -178.5t65 -246v-118q0 -133 -65 -245.5t-177 -177.5t-245 -65h-506v-88q0 -38 -27 -65t-65 -27h-209q-37 0 -64.5 27t-27.5 65zM434 846v-232q0 -17 12 -29t31 -12h400
q64 0 110.5 46.5t46.5 109.5q0 65 -46.5 111.5t-110.5 46.5h-400q-19 0 -31 -12t-12 -29z" />
    <glyph glyph-name="germandbls" unicode="&#xdf;" horiz-adv-x="1519" 
d="M41 80v979q0 94 29 163t74.5 109t114.5 64t135 31.5t149 7.5h387q58 0 109.5 -3.5t108.5 -14t103.5 -28t90 -46t73 -67t47 -94t17.5 -122.5q0 -70 -14 -128t-33.5 -93t-46 -62t-45 -38.5t-35.5 -18.5q-9 -4 2 -8q22 -8 46 -25.5t55 -52.5t51 -99t20 -145
q0 -188 -100.5 -287.5t-282.5 -99.5h-398q-32 0 -54.5 23t-22.5 55v178q0 32 22.5 55t54.5 23h238q45 0 78 33.5t35 79.5q1 47 -34 80.5t-83 33.5h-234q-32 0 -54.5 22t-22.5 54v158q0 32 22.5 54.5t54.5 22.5h238q45 0 78 33.5t35 79.5q1 47 -34 81t-83 34h-340
q-48 0 -83 -34t-34 -81v-907q0 -32 -23 -55t-55 -23h-278q-32 0 -55 23t-23 55z" />
    <glyph glyph-name="agrave" unicode="&#xe0;" horiz-adv-x="1179" 
d="M41 293q0 76 28 132t69 86t102 48t111 22.5t112 4.5q75 0 170.5 -11.5t124.5 -31.5q2 -2 6 -2q12 0 12 10v65q0 41 -29 70t-69 29h-203q-19 0 -35 -10t-22 -27q-14 -27 -43 -27h-287q-19 0 -30.5 12.5t-8.5 30.5q19 122 112.5 204.5t217.5 82.5h418q142 0 242 -100.5
t100 -241.5v-559q0 -32 -24 -56t-56 -24h-248q-15 0 -25 11.5t-10 25.5v10q0 6 -6 10t-12 0q-31 -21 -129 -39t-170 -18q-228 0 -323 71.5t-95 221.5zM393 1354q-17 25 -4.5 51.5t43.5 26.5h176q19 0 32.5 -12t16.5 -31l35 -250q3 -22 -11.5 -39t-37.5 -17h-33q-24 0 -41 21
zM418 305q0 -36 42.5 -65t112.5 -29q81 0 120.5 22t39.5 72q0 86 -160 86q-71 0 -113 -25.5t-42 -60.5z" />
    <glyph glyph-name="aacute" unicode="&#xe1;" 
d="M41 293q0 65 18.5 115t53 81t73.5 52t91 30.5t93.5 13t92.5 3.5q74 0 170 -12.5t125 -32.5h8q10 0 10 10v63q0 41 -29 71t-69 30h-203q-42 0 -55 -37q-14 -29 -45 -29h-287q-19 0 -30.5 13t-8.5 32q19 123 112.5 205t217.5 82h418q142 0 243 -100.5t101 -241.5v-561
q0 -32 -25 -56t-57 -24h-248q-15 0 -25 11.5t-10 25.5v10q0 6 -6 10t-12 0q-31 -21 -129 -39t-170 -18q-228 0 -323 71.5t-95 221.5zM537 1083q-23 0 -38 17t-12 39l35 250q3 19 16.5 31t32.5 12h177q30 0 43 -26.5t-5 -51.5l-176 -250q-18 -21 -39 -21h-34zM418 307
q0 -36 42.5 -66t112.5 -30q82 0 122 22.5t40 73.5q0 84 -162 84q-72 0 -113.5 -25t-41.5 -59z" />
    <glyph glyph-name="acircumflex" unicode="&#xe2;" 
d="M41 293q0 65 18.5 115t53 81t73.5 52t91 30.5t93.5 13t92.5 3.5q74 0 170 -12.5t125 -32.5h8q10 0 10 10v63q0 41 -29 71t-69 30h-203q-42 0 -55 -37q-14 -29 -45 -29h-287q-19 0 -30.5 13t-8.5 32q19 123 112.5 205t217.5 82h418q142 0 243 -100.5t101 -241.5v-561
q0 -32 -25 -56t-57 -24h-248q-15 0 -25 11.5t-10 25.5v10q0 6 -6 10t-12 0q-31 -21 -129 -39t-170 -18q-228 0 -323 71.5t-95 221.5zM299 1057q-11 0 -17.5 9t-2.5 19l143 326q10 21 31 21h276q24 0 31 -21l143 -326q4 -10 -2.5 -19t-17.5 -9h-178q-24 0 -31 20l-80 168
q-4 4 -8 0l-78 -168q-7 -20 -31 -20h-178zM573 391q-72 0 -113.5 -25t-41.5 -59q0 -36 42.5 -66t112.5 -30q82 0 122 22.5t40 73.5q0 84 -162 84z" />
    <glyph glyph-name="atilde" unicode="&#xe3;" 
d="M41 293q0 65 18.5 115t53 81t73.5 52t91 30.5t93.5 13t92.5 3.5q74 0 170 -12.5t125 -32.5h8q10 0 10 10v63q0 41 -29 71t-69 30h-203q-42 0 -55 -37q-14 -29 -45 -29h-287q-19 0 -30.5 13t-8.5 32q19 123 112.5 205t217.5 82h418q142 0 243 -100.5t101 -241.5v-561
q0 -32 -24 -56t-56 -24h-250q-15 0 -25 11.5t-10 25.5v10q0 6 -6 10t-12 0q-31 -21 -129 -39t-170 -18q-228 0 -323 71.5t-95 221.5zM156 1217q22 108 112 167l4 2q67 46 146 46t143 -46l160 -104q25 -14 45 -14q22 0 43 14l2 2q24 21 31 41q11 29 39 29h102q20 0 33 -15.5
t10 -35.5q-19 -108 -115 -173l-2 -2q-64 -43 -143 -43q-81 0 -145 43l-160 107q-17 14 -43 14q-25 0 -45 -14l-2 -2q-22 -16 -31 -39q-11 -29 -41 -29h-100q-20 0 -33.5 16t-9.5 36zM418 307q0 -36 42.5 -66t112.5 -30q82 0 122 22.5t40 73.5q0 84 -162 84q-72 0 -113.5 -25
t-41.5 -59z" />
    <glyph glyph-name="adieresis" unicode="&#xe4;" 
d="M459 0q-228 0 -323 71.5t-95 221.5q0 65 18.5 115t53 81t73.5 52t91 30.5t93.5 13t92.5 3.5q74 0 170 -12.5t125 -32.5h8q10 0 10 10v63q0 41 -29 71t-69 30h-201q-19 0 -35 -10t-22 -27q-14 -29 -43 -29h-289q-19 0 -29.5 13t-7.5 32q19 124 111.5 205.5t216.5 81.5h418
q142 0 243 -100.5t101 -241.5v-561q0 -32 -24 -56t-56 -24h-250q-15 0 -25 11.5t-10 25.5v10q0 6 -6 10t-12 0q-31 -21 -129 -39t-170 -18zM193 1192v166q0 31 22 52.5t53 21.5h166q32 0 54 -21.5t22 -52.5v-166q0 -32 -22 -54t-54 -22h-166q-31 0 -53 22t-22 54zM748 1116
q-31 0 -53.5 22t-22.5 54v166q0 31 22.5 52.5t53.5 21.5h165q32 0 54 -21.5t22 -52.5v-166q0 -32 -22 -54t-54 -22h-165zM573 391q-72 0 -113.5 -25t-41.5 -59q0 -36 42.5 -66t112.5 -30q82 0 122 22.5t40 73.5q0 84 -162 84z" />
    <glyph glyph-name="aring" unicode="&#xe5;" 
d="M41 293q0 65 18.5 115t53 81t73.5 52t91 30.5t93.5 13t92.5 3.5q74 0 170 -12.5t125 -32.5h8q10 0 10 10v63q0 41 -29 71t-69 30h-201q-19 0 -35 -10t-22 -27q-14 -29 -43 -29h-289q-19 0 -29.5 13t-7.5 32q19 124 111.5 205.5t216.5 81.5h418q142 0 243 -100.5
t101 -241.5v-561q0 -32 -24 -56t-56 -24h-250q-15 0 -25 11.5t-10 25.5v10q0 6 -6 10t-12 0q-31 -21 -128 -39t-169 -18q-228 0 -324 71.5t-96 221.5zM592 1483q86 0 147.5 -61.5t61.5 -147.5t-61.5 -147.5t-147.5 -61.5t-147.5 61.5t-61.5 147.5t61.5 147.5t147.5 61.5z
M573 391q-71 0 -112 -25t-41 -59q0 -36 41.5 -66t111.5 -30q82 0 122 22.5t40 73.5q0 84 -162 84zM592 1204q29 0 49.5 20.5t20.5 49.5t-20.5 49t-49.5 20t-49.5 -20t-20.5 -49t20.5 -49.5t49.5 -20.5z" />
    <glyph glyph-name="ae" unicode="&#xe6;" horiz-adv-x="1890" 
d="M461 0q-228 0 -324 71.5t-96 221.5q0 76 28 132t69 86t102 48t111 22.5t112 4.5q76 0 172 -11.5t125 -31.5q2 -2 6 -2q12 0 12 10v65q0 41 -30 70t-70 29h-201q-19 0 -35 -10t-22 -27q-14 -27 -43 -27h-287q-19 0 -30.5 12.5t-8.5 30.5q19 123 112 206t216 83h418
q90 0 161 -41q74 41 166 41h381q142 0 243 -101.5t101 -242.5v-178q0 -31 -20.5 -52.5t-52.5 -21.5h-609q-10 0 -17 -7t-7 -18v-18q0 -41 28.5 -70.5t69.5 -29.5h184q19 0 35.5 10t24.5 25q15 30 41 30h286q15 0 26 -13t9 -28q-15 -115 -102 -191.5t-203 -76.5h-418
q-74 0 -141 30.5t-115 84.5q-187 -115 -407 -115zM575 391q-71 0 -113 -25.5t-42 -60.5q0 -36 42.5 -65t112.5 -29q81 0 120.5 22t39.5 72q0 86 -160 86zM1143 621v-19q0 -9 7 -16.5t17 -7.5h293q10 0 18.5 7.5t8.5 16.5v19q0 41 -30.5 69.5t-70.5 28.5h-145
q-41 0 -69.5 -28.5t-28.5 -69.5z" />
    <glyph glyph-name="ccedilla" unicode="&#xe7;" horiz-adv-x="1179" 
d="M41 346v293q0 141 101 242.5t243 101.5h416q139 0 238.5 -99t99.5 -237v-39q0 -22 -15 -36.5t-37 -14.5h-268q-36 0 -49 33q-2 2 -2 8q-12 31 -40 50.5t-62 19.5h-152q-44 0 -77.5 -33.5t-33.5 -77.5v-133q0 -44 33.5 -77.5t77.5 -33.5h152q34 0 62 19.5t40 50.5q0 6 2 8
q13 33 49 33h268q22 0 37 -14.5t15 -36.5v-66q0 -127 -89.5 -217t-215.5 -90h-70l-78 -113q36 -20 57 -56.5t21 -78.5v-135q0 -66 -46.5 -113t-111.5 -47h-166q-64 0 -109.5 45.5t-45.5 110.5v16q0 9 7.5 17t16.5 8h123q16 0 23 -14q0 -1 1 -2.5t1 -2.5q14 -32 47 -32h43
q22 0 36.5 14.5t14.5 36.5v61q0 18 -11.5 32t-29.5 17h-108q-31 0 -43.5 26.5t4.5 51.5l110 158h-135q-142 0 -243 101.5t-101 244.5z" />
    <glyph glyph-name="egrave" unicode="&#xe8;" 
d="M41 346v293q0 141 102 242.5t244 101.5h408q142 0 244 -101.5t102 -242.5v-178q0 -31 -22 -52.5t-54 -21.5h-635q-10 0 -17 -7t-7 -18v-18q0 -41 28.5 -70.5t69.5 -29.5h213q18 0 33.5 10.5t23.5 26.5q14 28 43 28h287q15 0 26 -13t9 -28q-15 -115 -102 -191.5
t-203 -76.5h-447q-143 0 -244.5 102t-101.5 244zM393 1354q-17 25 -3.5 51.5t44.5 26.5h176q18 0 31 -12t16 -31l37 -248q3 -22 -11.5 -40t-37.5 -18h-35q-24 0 -41 21zM406 602q0 -9 7 -16.5t17 -7.5h322q10 0 17 7.5t7 16.5v21q0 41 -29 68.5t-69 27.5h-174
q-41 0 -69.5 -27.5t-28.5 -68.5v-21z" />
    <glyph glyph-name="eacute" unicode="&#xe9;" 
d="M41 639q0 141 102 242.5t244 101.5h408q142 0 244 -101.5t102 -242.5v-178q0 -31 -22 -52.5t-54 -21.5h-635q-10 0 -17 -7t-7 -18v-18q0 -41 28.5 -70.5t69.5 -29.5h213q18 0 33.5 10.5t23.5 26.5q14 28 43 28h287q15 0 26 -13t9 -28q-15 -115 -102 -191.5t-203 -76.5
h-447q-143 0 -244.5 102t-101.5 244v293zM537 1083q-23 0 -38 18t-12 40l35 248q3 19 16.5 31t32.5 12h177q31 0 44 -26.5t-4 -51.5l-178 -250q-18 -21 -39 -21h-34zM406 602q0 -9 7 -16.5t17 -7.5h322q10 0 17 7.5t7 16.5v21q0 41 -29 68.5t-69 27.5h-174
q-41 0 -69.5 -27.5t-28.5 -68.5v-21z" />
    <glyph glyph-name="ecircumflex" unicode="&#xea;" 
d="M387 0q-143 0 -244.5 102t-101.5 244v293q0 141 102 242.5t244 101.5h408q142 0 244 -101.5t102 -242.5v-178q0 -31 -22 -52.5t-54 -21.5h-635q-10 0 -17 -7t-7 -18v-18q0 -41 28.5 -70.5t69.5 -29.5h213q18 0 33.5 10.5t23.5 26.5q14 28 43 28h287q15 0 26 -13t9 -28
q-15 -115 -102 -191.5t-203 -76.5h-447zM299 1059q-11 0 -17.5 8t-2.5 18l143 328q10 19 31 19h276q25 0 31 -19l143 -328q4 -10 -2.5 -18t-17.5 -8h-178q-25 0 -31 18l-78 168q-4 4 -8 0l-80 -168q-6 -18 -31 -18h-178zM406 602q0 -9 7 -16.5t17 -7.5h322q10 0 17 7.5
t7 16.5v21q0 41 -29 68.5t-69 27.5h-174q-41 0 -69.5 -27.5t-28.5 -68.5v-21z" />
    <glyph glyph-name="edieresis" unicode="&#xeb;" 
d="M41 346v293q0 141 102 242.5t244 101.5h408q142 0 244 -101.5t102 -242.5v-178q0 -31 -22 -52.5t-54 -21.5h-635q-10 0 -17 -7t-7 -18v-18q0 -41 28.5 -70.5t69.5 -29.5h213q18 0 34.5 10.5t24.5 26.5q14 28 41 28h287q15 0 26 -13t9 -28q-15 -115 -102 -191.5
t-203 -76.5h-447q-143 0 -244.5 102t-101.5 244zM748 1116q-31 0 -53.5 22t-22.5 54v166q0 31 22.5 52.5t53.5 21.5h165q32 0 54 -21.5t22 -52.5v-166q0 -32 -22 -54t-54 -22h-165zM268 1116q-31 0 -52 22t-21 54v166q0 31 21 52.5t52 21.5h166q32 0 54 -21.5t22 -52.5v-166
q0 -32 -22 -54t-54 -22h-166zM406 623v-21q0 -9 7 -16.5t17 -7.5h322q10 0 17 7.5t7 16.5v21q0 41 -29 68.5t-69 27.5h-174q-41 0 -69.5 -27.5t-28.5 -68.5z" />
    <glyph glyph-name="igrave" unicode="&#xec;" horiz-adv-x="489" 
d="M47 76v833q0 32 21.5 53t52.5 21h254q31 0 52.5 -21t21.5 -53v-833q0 -32 -21.5 -54t-52.5 -22h-254q-31 0 -52.5 22t-21.5 54zM90 1432h176q19 0 32.5 -12t16.5 -31l35 -248q3 -22 -10.5 -40t-36.5 -18h-35q-24 0 -41 21l-176 250q-17 25 -4.5 51.5t43.5 26.5z" />
    <glyph glyph-name="iacute" unicode="&#xed;" horiz-adv-x="487" 
d="M115 0q-31 0 -52.5 22t-21.5 54v833q0 32 21.5 53t52.5 21h254q30 0 50.5 -21t20.5 -53v-833q0 -32 -21 -54t-50 -22h-254zM139 1141l35 248q3 19 16.5 31t32.5 12h174q31 0 43.5 -26.5t-4.5 -51.5l-174 -250q-18 -21 -41 -21h-35q-23 0 -36.5 18t-10.5 40z" />
    <glyph glyph-name="icircumflex" unicode="&#xee;" horiz-adv-x="706" 
d="M154 76v833q0 32 21 53t52 21h252q31 0 52.5 -21t21.5 -53v-833q0 -32 -21.5 -54t-52.5 -22h-252q-31 0 -52 22t-21 54zM43 1085l141 328q10 19 33 19h275q24 0 30 -19l142 -328q4 -10 -2 -21t-17 -11h-178q-10 0 -19 7.5t-12 16.5l-80 168q-4 4 -8 0l-78 -168
q-8 -24 -30 -24h-179q-10 0 -16.5 10.5t-1.5 21.5z" />
    <glyph glyph-name="idieresis" unicode="&#xef;" horiz-adv-x="878" 
d="M240 909q0 32 20 53t51 21h256q31 0 51.5 -21t20.5 -53v-833q0 -32 -20.5 -54t-51.5 -22h-256q-31 0 -51 22t-20 54v833zM520 1192v166q0 31 22.5 52.5t53.5 21.5h166q32 0 54 -21.5t22 -52.5v-166q0 -32 -22 -54t-54 -22h-166q-31 0 -53.5 22t-22.5 54zM41 1358
q0 31 22.5 52.5t53.5 21.5h166q32 0 53.5 -21.5t21.5 -52.5v-166q0 -32 -21.5 -54t-53.5 -22h-166q-31 0 -53.5 22t-22.5 54v166z" />
    <glyph glyph-name="eth" unicode="&#xf0;" 
d="M41 639q0 142 101 243t245 101h344q-9 58 -37 113l-116 -41q-20 -8 -40.5 1t-27.5 29l-16 50q-7 20 1.5 38.5t28.5 26.5l94 33q-56 81 -149 151q-15 10 -10 29t24 19h318q27 0 54.5 -14.5t42.5 -29t40 -42.5l106 36q20 8 39.5 -1t26.5 -29l18 -49q7 -20 -2.5 -39
t-29.5 -27l-72 -25q57 -122 77.5 -187t30 -165.5t9.5 -304.5v-209q0 -143 -102 -244.5t-246 -101.5h-406q-144 0 -245 101.5t-101 244.5v293zM406 430q0 -47 33.5 -81t80.5 -34h142q45 0 78.5 35.5t33.5 83.5v121q0 46 -33.5 80.5t-78.5 34.5h-142q-47 0 -80.5 -34.5
t-33.5 -80.5v-125z" />
    <glyph glyph-name="ntilde" unicode="&#xf1;" 
d="M41 909q0 32 21.5 53t52.5 21h215q32 0 54 -21t22 -53v-22q0 -6 6 -10t12 0q60 52 126 77t175 25q59 0 113 -9.5t110.5 -35t98 -65.5t68 -107t26.5 -152v-536q0 -31 -22.5 -52.5t-53.5 -21.5h-215q-32 0 -54 22t-22 54v403q0 78 -52 128t-132 50t-131.5 -48.5
t-52.5 -129.5v-403q0 -32 -22 -54t-54 -22h-215q-31 0 -52.5 22t-21.5 54v833zM154 1217q23 110 112 169l2 3q65 45 146 45q83 0 145 -45l160 -107q25 -14 45 -14q22 0 43 14v2q24 21 31 41q11 29 41 29h100q20 0 33 -15.5t10 -35.5q-19 -110 -113 -173l-2 -2
q-64 -43 -145 -43q-82 0 -146 43l-157 107q-17 14 -43 14q-25 0 -45 -14l-4 -2q-22 -16 -31 -39q-10 -27 -41 -27h-100q-20 0 -32.5 15t-8.5 35z" />
    <glyph glyph-name="ograve" unicode="&#xf2;" 
d="M41 639q0 142 101 243t245 101h406q144 0 246 -101.5t102 -242.5v-293q0 -143 -102 -244.5t-246 -101.5h-406q-144 0 -245 101.5t-101 244.5v293zM406 555v-125q0 -47 33.5 -81t80.5 -34h142q46 0 79 34t33 81v125q0 46 -33.5 80.5t-78.5 34.5h-142q-47 0 -80.5 -34.5
t-33.5 -80.5zM393 1354q-17 25 -3.5 51.5t44.5 26.5h176q19 0 32.5 -12t16.5 -31l35 -248q3 -22 -11.5 -40t-37.5 -18h-35q-22 0 -39 21z" />
    <glyph glyph-name="oacute" unicode="&#xf3;" 
d="M41 346v293q0 142 101 243t245 101h406q144 0 246 -101.5t102 -242.5v-293q0 -143 -102 -244.5t-246 -101.5h-406q-144 0 -245 101.5t-101 244.5zM520 670q-47 0 -80.5 -34.5t-33.5 -80.5v-125q0 -47 33.5 -81t80.5 -34h142q46 0 80 34t34 81v125q0 46 -34 80.5t-80 34.5
h-142zM537 1083q-23 0 -38 18t-12 40l37 248q3 19 16 31t31 12h177q31 0 44 -26.5t-4 -51.5l-176 -250q-18 -21 -41 -21h-34z" />
    <glyph glyph-name="ocircumflex" unicode="&#xf4;" horiz-adv-x="1179" 
d="M41 346v295q0 142 100 243t244 101h408q144 0 245 -101t101 -243v-295q0 -143 -101 -244.5t-245 -101.5h-408q-144 0 -244 101.5t-100 244.5zM297 1059q-11 0 -16.5 8t-1.5 18l141 328q10 19 33 19h276q25 0 31 -19l141 -328q4 -10 -1.5 -18t-16.5 -8h-181q-22 0 -28 18
l-80 168q-4 4 -8 0l-80 -168q-6 -18 -31 -18h-178zM403 557v-127q0 -47 34 -81t81 -34h141q46 0 80.5 34t34.5 81v127q0 46 -34.5 79.5t-80.5 33.5h-141q-47 0 -81 -33.5t-34 -79.5z" />
    <glyph glyph-name="otilde" unicode="&#xf5;" horiz-adv-x="1179" 
d="M41 346v295q0 142 100 243t244 101h408q144 0 245 -101t101 -243v-295q0 -143 -101 -244.5t-245 -101.5h-408q-144 0 -244 101.5t-100 244.5zM156 1219q22 108 112 167l2 3q65 45 146 45q83 0 145 -45l160 -105q25 -14 45 -14q22 0 43 14h2q22 19 29 41q11 29 41 29h102
q20 0 32 -14.5t9 -34.5q-19 -112 -113 -175h-2q-64 -43 -145 -43q-79 0 -143 43l-160 105q-17 14 -43 14q-25 0 -45 -14h-4q-22 -16 -31 -39q-11 -29 -39 -29h-100q-20 0 -33.5 16t-9.5 36zM403 557v-127q0 -47 35 -81t82 -34h142q46 0 79 34t33 81v127q0 46 -33 79.5
t-79 33.5h-142q-47 0 -82 -33.5t-35 -79.5z" />
    <glyph glyph-name="odieresis" unicode="&#xf6;" 
d="M387 0q-144 0 -245 101.5t-101 244.5v295q0 142 101 243t245 101h406q144 0 246 -101.5t102 -242.5v-295q0 -143 -102 -244.5t-246 -101.5h-406zM403 430q0 -47 35 -81t82 -34h142q46 0 79 34t33 81v127q0 46 -33 79.5t-79 33.5h-142q-47 0 -82 -33.5t-35 -79.5v-127z
M672 1192v168q0 30 22.5 51t53.5 21h165q32 0 53 -20.5t21 -51.5v-168q0 -32 -21 -53t-53 -21h-165q-31 0 -53.5 21t-22.5 53zM268 1118q-31 0 -53 21t-22 53v168q0 30 22 51t53 21h166q32 0 53 -20.5t21 -51.5v-168q0 -32 -21 -53t-53 -21h-166z" />
    <glyph glyph-name="divide" unicode="&#xf7;" horiz-adv-x="1267" 
d="M41 610v213q0 20 14.5 34.5t34.5 14.5h1088q20 0 34.5 -14.5t14.5 -34.5v-213q0 -20 -14.5 -34.5t-34.5 -14.5h-1088q-20 0 -34.5 14.5t-14.5 34.5zM477 1044v168q0 31 21.5 51.5t52.5 20.5h166q32 0 53 -20.5t21 -51.5v-168q0 -32 -21 -52.5t-53 -20.5h-166
q-31 0 -52.5 20.5t-21.5 52.5zM551 150q-31 0 -52.5 20.5t-21.5 52.5v166q0 31 21.5 52.5t52.5 21.5h166q32 0 53 -21.5t21 -52.5v-166q0 -32 -21 -52.5t-53 -20.5h-166z" />
    <glyph glyph-name="oslash" unicode="&#xf8;" horiz-adv-x="1464" 
d="M41 307q0 17 10 30.5t25 18.5l106 37v248q0 142 101 243t245 101h406q114 0 203 -65.5t125 -169.5l127 43q12 5 23 -3.5t11 -21.5v-88q0 -17 -9.5 -30.5t-24.5 -18.5l-109 -37v-248q0 -142 -102 -244t-244 -102h-406q-114 0 -202.5 65.5t-124.5 170.5l-127 -41
q-12 -5 -22.5 2t-10.5 20v90zM918 473l-345 -115q32 -43 89 -43h141q46 0 80.5 35t34.5 82v41zM547 555v-41l344 113q-34 43 -88 43h-141q-47 0 -81 -34.5t-34 -80.5z" />
    <glyph glyph-name="ugrave" unicode="&#xf9;" 
d="M457 4q-59 0 -113 9.5t-110.5 35.5t-98 66t-68 107t-26.5 153v536q0 31 22.5 52.5t53.5 21.5h202q32 0 53 -22t21 -54v-397q0 -77 56 -127.5t137 -50.5t135 49t55 129v397q0 32 22 54t54 22h215q31 0 52.5 -22t21.5 -54v-833q0 -32 -21.5 -54t-52.5 -22h-215
q-32 0 -54 22t-22 54v22q0 6 -6 9t-12 -1q-60 -52 -126 -77t-175 -25zM444 1356q-17 25 -3.5 50.5t44.5 25.5h177q19 0 32.5 -11t16.5 -30l34 -250q3 -22 -11.5 -39t-37.5 -17h-34q-22 0 -39 21z" />
    <glyph glyph-name="uacute" unicode="&#xfa;" 
d="M41 375v536q0 31 22.5 52.5t53.5 21.5h202q32 0 53 -22t21 -54v-397q0 -77 56 -127.5t137 -50.5t135 49t55 129v397q0 32 22 54t54 22h215q31 0 52.5 -22t21.5 -54v-833q0 -32 -21.5 -54t-52.5 -22h-215q-32 0 -54 22t-22 54v22q0 6 -5 9t-11 -1q-59 -52 -126 -77
t-177 -25q-59 0 -113 9.5t-110.5 35.5t-98 66t-68 107t-26.5 153zM485 1085q-23 0 -37.5 17t-11.5 39l37 250q7 41 47 41h176q31 0 44.5 -25.5t-3.5 -50.5l-176 -250q-17 -21 -41 -21h-35z" />
    <glyph glyph-name="ucircumflex" unicode="&#xfb;" 
d="M41 375v536q0 31 22.5 52.5t53.5 21.5h202q32 0 54 -22t22 -54v-397q0 -77 55.5 -127.5t135.5 -50.5q81 0 136 49t56 129v397q0 32 21 54t53 22h217q31 0 51.5 -22t20.5 -54v-833q0 -32 -20.5 -54t-51.5 -22h-217q-32 0 -53 22t-21 54v22q0 6 -6 9t-12 -1
q-59 -52 -126 -77t-177 -25q-59 0 -113 9.5t-110.5 35.5t-98 66t-68 107t-26.5 153zM299 1059q-11 0 -17.5 8t-2.5 18l143 328q10 19 33 19h276q23 0 29 -19l143 -328q4 -10 -1.5 -18t-16.5 -8h-180q-23 0 -29 18l-80 168q-4 4 -8 0l-80 -168q-6 -18 -31 -18h-178z" />
    <glyph glyph-name="udieresis" unicode="&#xfc;" horiz-adv-x="1179" 
d="M41 375v536q0 31 21.5 52.5t52.5 21.5h202q32 0 54 -22t22 -54v-397q0 -77 55.5 -127.5t135.5 -50.5q81 0 136 49t56 129v397q0 32 21 54t53 22h217q31 0 51.5 -22t20.5 -54v-833q0 -32 -20.5 -54t-51.5 -22h-217q-32 0 -53 22t-21 54v22q0 6 -6 9t-12 -1
q-59 -52 -126 -77t-177 -25q-59 0 -113 9.5t-110 35.5t-97.5 66t-67.5 107t-26 153zM745 1118q-31 0 -52 21t-21 53v168q0 31 21 51.5t52 20.5h168q32 0 53 -20.5t21 -51.5v-168q0 -32 -21 -53t-53 -21h-168zM193 1360q0 31 21 51.5t52 20.5h168q32 0 53 -20.5t21 -51.5
v-168q0 -32 -21 -53t-53 -21h-168q-31 0 -52 21t-21 53v168z" />
    <glyph glyph-name="yacute" unicode="&#xfd;" horiz-adv-x="1230" 
d="M45 920q-9 23 6 44t41 21h266q23 0 43 -13.5t27 -35.5l178 -477q3 -6 9.5 -6t9.5 6l180 477q6 21 25.5 35t43.5 14h267q26 0 40.5 -20.5t6.5 -44.5l-488 -1311q-8 -22 -27 -35.5t-42 -13.5h-232q-38 0 -59.5 31.5t-7.5 68.5l127 342h-23q-23 0 -42 13.5t-27 35.5z
M561 1085q-23 0 -37.5 17t-11.5 39l37 250q7 41 47 41h176q31 0 44.5 -25.5t-3.5 -50.5l-176 -250q-17 -21 -41 -21h-35z" />
    <glyph glyph-name="thorn" unicode="&#xfe;" horiz-adv-x="1267" 
d="M41 1346q0 35 25.5 60.5t60.5 25.5h192q35 0 61 -25.5t26 -60.5v-457q0 -8 6 -11t12 3q56 51 133 76.5t199 25.5q114 0 198 -25t146.5 -81.5t94.5 -152t32 -230.5q0 -508 -471 -508q-115 0 -192.5 31t-139.5 85q-2 2 -6 2q-12 0 -12 -10v-452q0 -35 -24.5 -60.5
t-59.5 -25.5h-195q-35 0 -60.5 25.5t-25.5 60.5v1704zM463 494q0 -42 7 -69.5t27.5 -51t61 -34.5t103.5 -11q65 0 107 11.5t62 36t26.5 51t6.5 67.5q0 85 -41.5 124t-160.5 39q-64 0 -105 -11t-61 -34.5t-26.5 -50t-6.5 -67.5z" />
    <glyph glyph-name="ydieresis" unicode="&#xff;" horiz-adv-x="1230" 
d="M45 920q-9 23 6 44t41 21h266q23 0 43 -13.5t27 -35.5l176 -477q3 -6 10.5 -6t10.5 6l180 477q6 21 25.5 35t43.5 14h267q26 0 40.5 -20.5t6.5 -44.5l-488 -1311q-8 -22 -27 -35.5t-42 -13.5h-232q-38 0 -59.5 31.5t-7.5 68.5l127 342h-23q-23 0 -42 13.5t-27 35.5z
M696 1360q0 31 22.5 52.5t53.5 21.5h166q32 0 54 -21.5t22 -52.5v-166q0 -32 -22 -54t-54 -22h-166q-31 0 -53.5 22t-22.5 54v166zM219 1360q0 31 22.5 52.5t53.5 21.5h164q32 0 54 -21.5t22 -52.5v-166q0 -32 -22 -54t-54 -22h-164q-31 0 -53.5 22t-22.5 54v166z" />
    <glyph glyph-name="Amacron" unicode="&#x100;" horiz-adv-x="1591" 
d="M90 0q-26 0 -40.5 20.5t-6.5 45.5l469 1316q8 22 27 36t43 14h426q48 0 69 -50l469 -1316q9 -25 -6 -45.5t-41 -20.5h-297q-25 0 -44 12.5t-25 34.5l-66 178q-2 6 -9 11.5t-14 5.5h-499q-17 0 -25 -17l-63 -178q-7 -21 -26.5 -34t-43.5 -13h-297zM479 1876h631
q34 0 58 -24t24 -58v-149q0 -34 -24 -58t-58 -24h-631q-34 0 -58 24t-24 58v149q0 34 24 58t58 24zM664 623q-5 -11 2.5 -21t19.5 -10h215q12 0 20 10t5 21l-121 362q-3 6 -11 6t-10 -6z" />
    <glyph glyph-name="amacron" unicode="&#x101;" horiz-adv-x="1179" 
d="M41 293q0 76 28 132.5t69.5 86.5t102 48t111 23t111.5 5q72 0 168 -12.5t127 -32.5q2 -2 6 -2q12 0 12 12v63q0 41 -30 70t-70 29h-201q-41 0 -57 -37q-14 -27 -43 -27h-287q-19 0 -30.5 13t-8.5 30q19 124 112 205.5t218 81.5h418q141 0 241.5 -100.5t100.5 -241.5v-559
q0 -33 -23.5 -56.5t-56.5 -23.5h-248q-15 0 -25 11.5t-10 25.5v12q0 6 -7 9t-11 -1q-33 -21 -130 -39t-169 -18q-228 0 -323 71.5t-95 221.5zM193 1200v150q0 34 23.5 58t57.5 24h631q34 0 58 -24t24 -58v-150q0 -34 -24 -58t-58 -24h-631q-34 0 -57.5 24t-23.5 58zM418 305
q0 -36 42 -65t113 -29q81 0 120.5 22t39.5 72q0 86 -160 86q-71 0 -113 -25.5t-42 -60.5z" />
    <glyph glyph-name="Abreve" unicode="&#x102;" horiz-adv-x="1591" 
d="M92 0q-26 0 -41 20.5t-6 45.5l469 1316q9 22 28 36t42 14h424q24 0 42.5 -14t26.5 -36l471 -1316q8 -25 -6.5 -45.5t-40.5 -20.5h-299q-24 0 -43 12.5t-26 34.5l-64 178q-9 17 -25 17h-497q-7 0 -14 -5.5t-9 -11.5l-65 -178q-6 -21 -25.5 -34t-44.5 -13h-297zM518 1876
h123q18 0 31 -10.5t18 -26.5q12 -34 41.5 -55t65.5 -21t64.5 21t39.5 55q15 37 49 37h125q23 0 38.5 -18t12.5 -41q-22 -119 -114.5 -198t-214.5 -79t-215 79t-115 198q-5 23 10.5 41t40.5 18zM666 623q-3 -11 4.5 -21t19.5 -10h213q12 0 19.5 10.5t3.5 20.5l-119 362
q-3 6 -10.5 6t-10.5 -6z" />
    <glyph glyph-name="abreve" unicode="&#x103;" 
d="M459 0q-228 0 -323 71.5t-95 221.5q0 76 28.5 132.5t69.5 86.5t102 48t111 23t111 5q74 0 170 -12.5t125 -32.5q2 -2 8 -2q10 0 10 12v63q0 41 -29 70t-69 29h-201q-44 0 -57 -37q-17 -27 -45 -27h-287q-17 0 -28.5 13t-8.5 30q17 123 110.5 205t217.5 82h418
q142 0 243 -100.5t101 -241.5v-559q0 -32 -24 -56t-56 -24h-250q-15 0 -25 11.5t-10 25.5v12q0 6 -6 9t-12 -1q-31 -21 -129 -39t-170 -18zM311 1432h125q36 0 49 -37q11 -33 40.5 -54.5t64.5 -21.5q36 0 65.5 21.5t40.5 54.5q13 37 49 37h125q25 0 41 -18.5t11 -41.5
q-22 -119 -115 -197.5t-217 -78.5q-122 0 -215 78.5t-115 197.5q-5 23 10.5 41.5t40.5 18.5zM418 305q0 -36 42.5 -65t112.5 -29q82 0 122 22t40 72q0 86 -162 86q-70 0 -112.5 -26t-42.5 -60z" />
    <glyph glyph-name="Aogonek" unicode="&#x104;" horiz-adv-x="1591" 
d="M90 0q-26 0 -40.5 20.5t-6.5 45.5l469 1316q8 22 27 36t43 14h426q48 0 69 -50l469 -1316q9 -25 -6 -45.5t-41 -20.5h-20q-49 1 -97 -20t-76 -57t-18 -73q14 -49 82 -49q40 0 85 18t73 46q6 5 14 1t8 -11v-129q0 -44 -27 -78t-68.5 -53.5t-85 -29t-83.5 -9.5
q-86 0 -147.5 28.5t-90 72.5t-39 96t-2.5 100t29 84q37 61 80 98q15 11 8 28l-57 162q-2 6 -9 11.5t-14 5.5h-499q-17 0 -25 -17l-63 -178q-6 -21 -25 -34t-43 -13h-299zM664 623q-5 -11 2.5 -21t19.5 -10h215q12 0 20 10t5 21l-121 362q-3 6 -11 6t-10 -6z" />
    <glyph glyph-name="aogonek" unicode="&#x105;" horiz-adv-x="1179" 
d="M41 293q0 76 28 132.5t69.5 86.5t102 48t111 23t111.5 5q72 0 168 -12.5t127 -32.5q2 -2 6 -2q12 0 12 12v63q0 41 -29.5 70t-68.5 29h-203q-41 0 -57 -37q-14 -27 -43 -27h-287q-19 0 -30.5 13t-8.5 30q19 123 112.5 205t217.5 82h418q141 0 241.5 -100.5t100.5 -241.5
v-559q0 -30 -20 -52.5t-50 -27.5h-2q-49 1 -96.5 -20t-74.5 -57t-17 -73q11 -49 79 -49q41 0 86.5 18t73.5 46q6 5 13.5 1t7.5 -11v-129q0 -45 -27 -79.5t-69 -53.5t-85 -28t-84 -9q-72 0 -125.5 18.5t-82.5 49.5t-45.5 69t-17.5 78.5t4.5 76t17.5 64.5q25 59 80 104
q6 6 2.5 13.5t-11.5 5.5q-156 -35 -237 -35q-228 0 -323 71.5t-95 221.5zM573 391q-71 0 -113 -25.5t-42 -60.5q0 -36 42 -65t113 -29q81 0 120.5 22t39.5 72q0 86 -160 86z" />
    <glyph glyph-name="Cacute" unicode="&#x106;" horiz-adv-x="1468" 
d="M483 0q-183 0 -312.5 130t-129.5 314v541q0 186 129.5 316.5t312.5 130.5h498q186 0 316 -130.5t130 -316.5v-55q0 -21 -14 -35t-35 -14h-295q-20 0 -34.5 14.5t-14.5 34.5q0 44 -31 75t-75 31h-346q-60 0 -104 -51.5t-44 -114.5v-329q0 -61 43 -104.5t105 -43.5h346
q44 0 75 31.5t31 75.5q0 20 14.5 34.5t34.5 14.5h295q21 0 35 -14t14 -35v-56q0 -185 -130 -314.5t-316 -129.5h-498zM672 1583l35 250q3 19 16.5 31t32.5 12h176q30 0 43.5 -26.5t-4.5 -51.5l-176 -250q-13 -20 -41 -20h-33q-23 0 -37.5 16.5t-11.5 38.5z" />
    <glyph glyph-name="cacute" unicode="&#x107;" 
d="M387 0q-141 0 -243.5 102t-102.5 244v293q0 141 102.5 242.5t243.5 101.5h416q139 0 238.5 -99t99.5 -237v-37q0 -22 -14.5 -37.5t-36.5 -15.5h-271q-16 0 -32.5 13.5t-16.5 29.5q-12 30 -40.5 49t-61.5 19h-152q-46 0 -78 -32.5t-32 -78.5v-133q0 -44 32 -76.5t78 -32.5
h152q34 0 62 18.5t40 49.5q0 6 2 8q13 33 47 33h271q22 0 36.5 -14.5t14.5 -36.5v-66q0 -127 -89.5 -217t-215.5 -90h-449zM569 1139l35 250q3 19 16.5 31t32.5 12h176q29 0 43.5 -26.5t-2.5 -51.5l-178 -250q-14 -21 -39 -21h-35q-23 0 -37.5 17t-11.5 39z" />
    <glyph glyph-name="Ccircumflex" unicode="&#x108;" horiz-adv-x="1468" 
d="M41 985q0 186 129 316.5t313 130.5h498q186 0 316 -130.5t130 -316.5v-55q0 -20 -14.5 -34.5t-34.5 -14.5h-297q-20 0 -34.5 14.5t-14.5 34.5q0 44 -31 75t-75 31h-346q-60 0 -104 -52t-44 -114v-329q0 -61 43 -104.5t105 -43.5h346q44 0 75 31.5t31 75.5q0 20 14.5 34.5
t34.5 14.5h297q20 0 34.5 -14.5t14.5 -34.5v-56q0 -186 -130 -315t-316 -129h-498q-185 0 -313.5 129t-128.5 315v541zM442 1507q-11 0 -16.5 8.5t-1.5 18.5l141 328q9 18 33 18h274q25 0 31 -18l141 -328q4 -10 -1.5 -18.5t-16.5 -8.5h-180q-23 0 -29 19l-80 168q-4 4 -8 0
l-78 -168q-6 -19 -30 -19h-179z" />
    <glyph glyph-name="ccircumflex" unicode="&#x109;" 
d="M41 346v293q0 141 101 242.5t243 101.5h416q140 0 240 -99t100 -237v-37q0 -22 -16 -37.5t-38 -15.5h-268q-36 0 -49 33q-2 2 -2 10q-12 31 -40 49.5t-62 18.5h-152q-44 0 -77.5 -33.5t-33.5 -77.5v-133q0 -44 33.5 -77.5t77.5 -33.5h152q34 0 62 19.5t40 50.5q0 6 2 8
q13 33 49 33h268q22 0 38 -15t16 -36v-66q0 -127 -90.5 -217t-216.5 -90h-449q-142 0 -243 101.5t-101 244.5zM299 1059q-11 0 -16.5 8t-1.5 18l141 328q10 19 33 19h274q25 0 31 -19l141 -328q4 -10 -1.5 -18t-16.5 -8h-181q-22 0 -28 18l-80 168q-4 4 -8 0l-78 -168
q-6 -18 -31 -18h-178z" />
    <glyph glyph-name="Cdotaccent" unicode="&#x10a;" horiz-adv-x="1468" 
d="M483 0q-185 0 -313.5 129t-128.5 315v541q0 186 129 316.5t313 130.5h498q186 0 316 -130.5t130 -316.5v-55q0 -20 -14.5 -34.5t-34.5 -14.5h-297q-20 0 -34.5 14.5t-14.5 34.5q0 44 -31 75t-75 31h-346q-60 0 -104 -52t-44 -114v-329q0 -61 43 -104.5t105 -43.5h346
q44 0 75 31.5t31 75.5q0 20 14.5 34.5t34.5 14.5h297q20 0 34.5 -14.5t14.5 -34.5v-56q0 -186 -130 -315t-316 -129h-498zM578 1642v166q0 31 22 52.5t53 21.5h166q32 0 53 -21.5t21 -52.5v-166q0 -32 -21 -52.5t-53 -20.5h-166q-31 0 -53 20.5t-22 52.5z" />
    <glyph glyph-name="cdotaccent" unicode="&#x10b;" 
d="M385 0q-142 0 -243 101.5t-101 244.5v293q0 141 101 242.5t243 101.5h416q140 0 240 -99t100 -237v-37q0 -22 -16 -37.5t-38 -15.5h-268q-36 0 -49 33q-2 2 -2 10q-12 31 -40 49.5t-62 18.5h-152q-44 0 -77.5 -33.5t-33.5 -77.5v-133q0 -44 33.5 -77.5t77.5 -33.5h152
q34 0 62 19.5t40 50.5q0 6 2 8q13 33 49 33h268q22 0 38 -15t16 -36v-66q0 -127 -90.5 -217t-216.5 -90h-449zM510 1120q-31 0 -53.5 21t-22.5 53v166q0 31 22.5 52.5t53.5 21.5h166q32 0 53 -21.5t21 -52.5v-166q0 -32 -21 -53t-53 -21h-166z" />
    <glyph glyph-name="Ccaron" unicode="&#x10c;" horiz-adv-x="1468" 
d="M41 985q0 186 129 316.5t313 130.5h498q186 0 316 -130.5t130 -316.5v-55q0 -20 -14.5 -34.5t-34.5 -14.5h-295q-21 0 -35 14t-14 35q0 44 -31.5 75t-74.5 31h-346q-60 0 -104 -51.5t-44 -114.5v-329q0 -61 43 -104.5t105 -43.5h346q43 0 74.5 31.5t31.5 75.5q0 21 14 35
t35 14h295q20 0 34.5 -14.5t14.5 -34.5v-56q0 -185 -130 -314.5t-316 -129.5h-498q-184 0 -313 129.5t-129 314.5v541zM422 1849q-4 9 2 18t16 9h181q21 0 28 -21l80 -165q1 -3 4.5 -3t3.5 3l80 165q7 21 31 21h178q10 0 16 -9t2 -18l-141 -327q-7 -21 -31 -21h-276
q-24 0 -31 21z" />
    <glyph glyph-name="ccaron" unicode="&#x10d;" 
d="M41 346v293q0 141 102 242.5t244 101.5h416q139 0 238.5 -99t99.5 -237v-37q0 -22 -14.5 -37.5t-36.5 -15.5h-271q-36 0 -47 33q-1 2 -2 5t-2 5q-12 30 -39.5 49t-60.5 19h-154q-44 0 -76 -32.5t-32 -78.5v-133q0 -44 32 -76.5t76 -32.5h154q34 0 61 18.5t39 49.5
q1 1 2 4t2 4q10 33 47 33h271q22 0 36.5 -14.5t14.5 -36.5v-66q0 -127 -89.5 -217t-215.5 -90h-449q-143 0 -244.5 102t-101.5 244zM299 1432h178q23 0 31 -19l78 -168q2 -3 5 -3t5 3l78 168q8 19 31 19h178q10 0 16.5 -9t3.5 -18l-143 -328q-6 -18 -31 -18h-276
q-25 0 -31 18l-143 328q-3 9 3.5 18t16.5 9z" />
    <glyph glyph-name="Dcaron" unicode="&#x10e;" horiz-adv-x="1468" 
d="M115 0q-30 0 -52 22t-22 54v1280q0 32 22 54t52 22h868q183 0 313.5 -130.5t130.5 -314.5v-543q0 -184 -130.5 -314t-313.5 -130h-868zM432 999v-567q0 -17 13 -29t30 -12h369q78 0 133 56.5t55 134.5v268q0 78 -55 134t-133 56h-369q-17 0 -30 -12t-13 -29zM389 1876
h178q24 0 31 -21l80 -165q4 -8 8 0l78 165q10 21 31 21h178q12 0 18.5 -9t1.5 -18l-143 -327q-7 -21 -29 -21h-278q-21 0 -31 21l-143 327q-3 9 3.5 18t16.5 9z" />
    <glyph glyph-name="dcaron" unicode="&#x10f;" horiz-adv-x="1658" 
d="M41 492q0 136 31.5 231.5t94.5 151.5t147 81t198 25q123 0 200 -25t132 -77q4 -5 11 -2t7 12v457q0 35 25.5 60.5t60.5 25.5h193q35 0 60.5 -25.5t25.5 -60.5v-1260q0 -35 -25.5 -60.5t-60.5 -25.5h-193q-36 0 -61 25t-25 61v8q0 6 -7 9t-11 -1q-129 -116 -332 -116
q-471 0 -471 506zM1305 1358q0 31 21 52.5t50 21.5h170q29 0 50.5 -21.5t21.5 -52.5v-234q0 -110 -79 -189t-189 -79q-19 0 -32 13t-13 32v68q0 20 13 32.5t32 12.5q41 0 69.5 29.5t28.5 70.5v2h-72q-29 0 -50 21.5t-21 52.5v168zM403 492q0 -41 6 -67t26 -50t62 -35.5
t109 -11.5q63 0 103.5 10.5t61.5 33.5t28.5 50.5t7.5 69.5q0 41 -7 68t-27 50.5t-61.5 35t-105.5 11.5q-119 0 -161 -40t-42 -125z" />
    <glyph glyph-name="Dcroat" unicode="&#x110;" horiz-adv-x="1652" 
d="M41 788q0 38 28 65.5t66 27.5h92v475q0 32 22 54t52 22h868q183 0 313 -130.5t130 -314.5v-543q0 -184 -130 -314t-313 -130h-868q-30 0 -52 22t-22 52v477h-92q-38 0 -66 27t-28 65v145zM621 551v-119q0 -17 12 -29t31 -12h364q78 0 134.5 56.5t56.5 134.5v268
q0 78 -56.5 134t-134.5 56h-364q-19 0 -31 -12t-12 -29v-118h297q38 0 66 -27.5t28 -65.5v-145q0 -38 -28 -65t-66 -27h-297z" />
    <glyph glyph-name="dcroat" unicode="&#x111;" horiz-adv-x="1456" 
d="M41 492q0 136 32 232t95 151.5t147 80.5t197 25q122 0 198.5 -25t133.5 -77q6 -4 12 -1t6 11v139h-188q-32 0 -54 21.5t-22 52.5v117q0 29 22 50t54 21h188v56q0 35 26 60.5t60 25.5h195q35 0 60.5 -25.5t25.5 -60.5v-56h110q32 0 54 -21t22 -50v-117q0 -31 -22 -52.5
t-54 -21.5h-110v-942q0 -35 -25.5 -60.5t-60.5 -25.5h-195q-35 0 -60.5 25.5t-25.5 60.5v8q0 6 -6 9t-12 -1q-62 -54 -139.5 -85t-192.5 -31q-471 0 -471 506zM403 492q0 -41 6 -67t25.5 -50t61.5 -35.5t108 -11.5q64 0 105 10.5t62 33.5t28.5 50.5t7.5 69.5t-7 69
t-27.5 50.5t-62 34.5t-106.5 11q-62 0 -102 -10.5t-61.5 -33.5t-29.5 -51t-8 -70z" />
    <glyph glyph-name="Emacron" unicode="&#x112;" horiz-adv-x="1280" 
d="M41 74v1282q0 32 21 54t53 22h1050q32 0 53 -22t21 -54v-185q0 -31 -21 -52t-53 -21h-708q-9 0 -16 -7.5t-7 -17.5v-168q0 -10 7 -17t16 -7h708q32 0 53 -22t21 -54v-197q0 -57 -74 -57h-708q-9 0 -16 -8t-7 -19v-166q0 -10 7 -18t16 -8h708q32 0 53 -21.5t21 -52.5v-184
q0 -32 -21 -53t-53 -21h-1050q-32 0 -53 21t-21 53zM244 1642v150q0 34 24 59t58 25h628q34 0 58 -25t24 -59v-150q0 -34 -24 -57.5t-58 -23.5h-628q-34 0 -58 23.5t-24 57.5z" />
    <glyph glyph-name="emacron" unicode="&#x113;" 
d="M387 0q-143 0 -244.5 101t-101.5 243v295q0 141 102 242.5t244 101.5h408q142 0 244 -101.5t102 -242.5v-178q0 -31 -22 -52.5t-54 -21.5h-635q-10 0 -17 -7t-7 -18v-18q0 -42 28.5 -72t69.5 -30h213q18 0 33.5 10.5t23.5 26.5q15 30 43 30h287q15 0 26 -13t9 -28
q-15 -115 -102 -191.5t-203 -76.5h-447zM193 1198v150q0 34 24.5 59t58.5 25h631q34 0 58 -25t24 -59v-150q0 -34 -24 -58t-58 -24h-631q-34 0 -58.5 24t-24.5 58zM406 621v-21q0 -9 7 -15.5t17 -6.5h322q10 0 17 6.5t7 15.5v21q0 41 -29 68.5t-69 27.5h-174
q-41 0 -69.5 -27.5t-28.5 -68.5z" />
    <glyph glyph-name="Ebreve" unicode="&#x114;" horiz-adv-x="1280" 
d="M41 76v1280q0 32 21 54t53 22h1048q32 0 54 -22t22 -54v-185q0 -31 -22 -51t-54 -20h-706q-9 0 -16 -8t-7 -19v-166q0 -10 7 -18t16 -8h706q32 0 54 -21t22 -53v-199q0 -57 -76 -57h-706q-9 0 -16 -8t-7 -19v-166q0 -10 7 -18t16 -8h706q32 0 54 -20.5t22 -51.5v-184
q0 -32 -22 -54t-54 -22h-1048q-32 0 -53 22t-21 54zM311 1823q-5 23 10.5 41t40.5 18h123q37 0 50 -37q11 -33 40.5 -54.5t65.5 -21.5t66 21.5t41 54.5q13 37 49 37h125q25 0 40.5 -18t10.5 -41q-22 -119 -115 -198t-217 -79q-123 0 -215.5 78.5t-114.5 198.5z" />
    <glyph glyph-name="ebreve" unicode="&#x115;" 
d="M41 346v293q0 141 102 242.5t244 101.5h410q142 0 243 -101.5t101 -242.5v-178q0 -31 -21 -52.5t-53 -21.5h-635q-11 0 -18.5 -7.5t-7.5 -17.5v-18q0 -41 28.5 -70.5t69.5 -29.5h213q41 0 59 37q14 28 41 28h289q15 0 26 -13t9 -28q-15 -114 -102.5 -191t-204.5 -77h-447
q-143 0 -244.5 102t-101.5 244zM262 1374q-5 23 10.5 41.5t40.5 18.5h123q36 0 49 -37q11 -33 41 -54.5t66 -21.5t65.5 21.5t40.5 54.5q13 37 50 37h124q25 0 41 -18.5t11 -41.5q-22 -119 -115 -197.5t-217 -78.5q-123 0 -215.5 78t-114.5 198zM406 623v-21q0 -9 8 -16.5
t18 -7.5h320q10 0 18 7.5t8 16.5v21q0 41 -29 68.5t-69 27.5h-176q-41 0 -69.5 -27.5t-28.5 -68.5z" />
    <glyph glyph-name="Edotaccent" unicode="&#x116;" horiz-adv-x="1280" 
d="M41 74v1282q0 32 22 54t54 22h1048q32 0 53 -22t21 -54v-185q0 -31 -21 -52t-53 -21h-708q-9 0 -16 -7.5t-7 -17.5v-168q0 -10 7 -17t16 -7h708q32 0 53 -22t21 -54v-197q0 -57 -74 -57h-708q-9 0 -16 -8t-7 -19v-166q0 -10 7 -18t16 -8h708q32 0 53 -21.5t21 -52.5v-184
q0 -32 -21 -53t-53 -21h-1048q-32 0 -54 21t-22 53zM481 1636v166q0 31 21.5 52.5t52.5 21.5h168q32 0 53 -21.5t21 -52.5v-166q0 -32 -21 -53.5t-53 -21.5h-168q-31 0 -52.5 21.5t-21.5 53.5z" />
    <glyph glyph-name="edotaccent" unicode="&#x117;" 
d="M41 639q0 141 102 242.5t244 101.5h408q142 0 244 -101.5t102 -242.5v-178q0 -31 -22 -52.5t-54 -21.5h-635q-10 0 -17 -7t-7 -18v-18q0 -42 28.5 -72t69.5 -30h213q18 0 33.5 10.5t23.5 26.5q15 30 43 30h287q15 0 26 -13t9 -28q-15 -115 -102 -191.5t-203 -76.5h-447
q-143 0 -244.5 101t-101.5 243v295zM432 1192v166q0 31 22.5 52.5t53.5 21.5h166q32 0 54 -21.5t22 -52.5v-166q0 -32 -22 -54t-54 -22h-166q-31 0 -53.5 22t-22.5 54zM406 621v-21q0 -9 7 -15.5t17 -6.5h322q10 0 17 6.5t7 15.5v21q0 41 -29 68.5t-69 27.5h-174
q-41 0 -69.5 -27.5t-28.5 -68.5z" />
    <glyph glyph-name="Eogonek" unicode="&#x118;" horiz-adv-x="1280" 
d="M117 0q-32 0 -54 21t-22 53v1282q0 32 22 54t54 22h1048q32 0 53 -22t21 -54v-185q0 -31 -21 -52t-53 -21h-708q-9 0 -16 -7.5t-7 -17.5v-168q0 -10 7 -17t16 -7h708q32 0 53 -22t21 -54v-197q0 -57 -74 -57h-708q-9 0 -16 -8t-7 -19v-166q0 -10 7 -18t16 -8h708
q32 0 53 -21.5t21 -52.5v-184q0 -30 -20 -51t-50 -23h-2q-49 1 -97 -20t-75.5 -57t-17.5 -73q14 -49 84 -49q41 0 86 17.5t72 44.5q6 6 13 2.5t7 -12.5v-129q0 -44 -27 -78.5t-69 -53t-85 -27.5t-83 -9q-86 0 -147 28.5t-89.5 72.5t-38.5 96t-2 100t29 84q19 33 45 63h-655z
" />
    <glyph glyph-name="eogonek" unicode="&#x119;" 
d="M41 639q0 141 102 242.5t244 101.5h408q142 0 244 -101.5t102 -242.5v-178q0 -31 -22 -52.5t-54 -21.5h-635q-10 0 -17 -7t-7 -18v-18q0 -42 28.5 -72t69.5 -30h213q18 0 34.5 10.5t24.5 26.5q15 30 41 30h287q15 0 26 -13t9 -28q-13 -93 -68 -157l-20 -21
q-96 -105 -121 -140q-49 -69 -37 -116q11 -43 65 -43q37 0 82.5 21t77.5 51q6 6 14.5 2.5t8.5 -12.5v-129q0 -44 -27 -78.5t-69 -53t-85 -27.5t-83 -9q-86 0 -145.5 26t-86 66.5t-34.5 89.5t1.5 94.5t30.5 81.5q30 56 68 86h-324q-143 0 -244.5 101t-101.5 243v295zM406 600
q0 -9 7 -15.5t17 -6.5h322q10 0 17 6.5t7 15.5v21q0 41 -29 68.5t-69 27.5h-174q-41 0 -69.5 -27.5t-28.5 -68.5v-21z" />
    <glyph glyph-name="Ecaron" unicode="&#x11a;" horiz-adv-x="1280" 
d="M41 74v1282q0 32 22 54t54 22h1048q32 0 53 -22t21 -54v-185q0 -31 -21 -52t-53 -21h-708q-9 0 -16 -7.5t-7 -17.5v-168q0 -10 7 -17t16 -7h708q32 0 53 -22t21 -54v-197q0 -57 -74 -57h-708q-9 0 -16 -8t-7 -19v-166q0 -10 7 -18t16 -8h708q32 0 53 -21.5t21 -52.5v-184
q0 -32 -21 -53t-53 -21h-1048q-32 0 -54 21t-22 53zM330 1847q-4 10 1.5 19.5t16.5 9.5h178q22 0 29 -21l80 -167q4 -4 8 0l80 167q7 21 31 21h178q11 0 17.5 -9.5t2.5 -19.5l-143 -325q-7 -21 -31 -21h-276q-20 0 -31 21z" />
    <glyph glyph-name="ecaron" unicode="&#x11b;" 
d="M387 0q-143 0 -244.5 101t-101.5 243v295q0 141 102 242.5t244 101.5h408q142 0 244 -101.5t102 -242.5v-178q0 -31 -21 -52.5t-53 -21.5h-637q-10 0 -17 -7t-7 -18v-18q0 -42 28.5 -72t69.5 -30h213q18 0 34.5 10.5t24.5 26.5q15 30 41 30h287q15 0 26 -13t9 -28
q-15 -115 -102 -191.5t-203 -76.5h-447zM279 1403q-4 10 2.5 19.5t17.5 9.5h178q24 0 31 -21l80 -168q4 -4 8 0l78 168q7 21 31 21h178q11 0 17.5 -9.5t2.5 -19.5l-143 -326q-7 -20 -29 -20h-278q-21 0 -31 20zM406 600q0 -9 7 -15.5t17 -6.5h322q10 0 17 6.5t7 15.5v21
q0 41 -29 68.5t-69 27.5h-174q-41 0 -69.5 -27.5t-28.5 -68.5v-21z" />
    <glyph glyph-name="Gcircumflex" unicode="&#x11c;" horiz-adv-x="1468" 
d="M41 991q0 182 127.5 311.5t308.5 129.5h514q181 0 308.5 -129.5t127.5 -311.5v-28q0 -18 -10.5 -29.5t-27.5 -11.5h-314q-18 0 -28.5 11.5t-10.5 29.5q0 32 -22 52.5t-53 20.5h-431q-40 0 -69 -28.5t-29 -69.5v-444q0 -41 28.5 -70t69.5 -29h406q40 0 70 29t30 70
q0 11 -8.5 18.5t-19.5 7.5h-115q-20 0 -34.5 15.5t-14.5 35.5v144q0 19 14.5 33t34.5 14h485q20 0 34.5 -14t14.5 -33v-277q0 -182 -127.5 -310t-308.5 -128h-514q-181 0 -308.5 128t-127.5 310v553zM442 1507q-11 0 -16.5 8.5t-1.5 18.5l141 328q9 18 33 18h274
q25 0 31 -18l141 -328q4 -10 -1.5 -18.5t-16.5 -8.5h-180q-23 0 -29 19l-80 168q-4 4 -8 0l-78 -168q-6 -19 -30 -19h-179z" />
    <glyph glyph-name="gcircumflex" unicode="&#x11d;" horiz-adv-x="1290" 
d="M41 492q0 135 35 231.5t101.5 152t153.5 80.5t201 25q121 0 197.5 -25.5t134.5 -76.5q6 -4 12.5 0t6.5 10v8q0 35 25.5 60.5t60.5 25.5h194q35 0 60.5 -25.5t25.5 -60.5l-2 -1001q-2 -141 -103 -240.5t-243 -99.5h-541q-117 0 -207 77t-90 185v73q0 31 21 53.5t51 22.5
h238q36 0 49 -30q12 -24 36.5 -38t51.5 -14h274q41 0 70 29t29 70v149q0 6 -6.5 10t-12.5 0q-66 -58 -143.5 -92.5t-188.5 -34.5q-239 0 -365 112t-126 364zM354 1059q-11 0 -16.5 8t-1.5 18l141 328q9 19 33 19h274q25 0 31 -19l141 -328q4 -10 -1.5 -18t-16.5 -8h-180
q-23 0 -29 18l-80 168q-4 4 -8 0l-78 -168q-6 -18 -31 -18h-178zM625 657q-62 0 -102 -10.5t-61.5 -33.5t-29.5 -51t-8 -70q0 -41 6 -67t25.5 -50t61.5 -35.5t108 -11.5q63 0 104 11t60.5 34.5t26.5 50t7 68.5t-6 68t-25.5 50.5t-60.5 35.5t-106 11z" />
    <glyph glyph-name="Gbreve" unicode="&#x11e;" horiz-adv-x="1468" 
d="M477 0q-181 0 -308.5 127t-127.5 309v555q0 182 127.5 311.5t308.5 129.5h514q181 0 308.5 -129.5t127.5 -311.5v-30q0 -17 -12 -28t-29 -11h-311q-19 0 -30 11t-11 28q0 32 -21 53.5t-52 21.5h-431q-40 0 -69 -28.5t-29 -69.5v-444q0 -42 28.5 -71.5t69.5 -29.5h406
q40 0 69 30t29 71q0 12 -7.5 19t-18.5 7h-115q-20 0 -34.5 14.5t-14.5 34.5v146q0 19 14.5 33t34.5 14h485q20 0 34.5 -14t14.5 -33v-279q0 -182 -127.5 -309t-308.5 -127h-514zM434 1817q-5 23 10.5 41t40.5 18h123q36 0 49 -37q11 -33 41 -54.5t66 -21.5t65.5 21.5
t40.5 54.5q13 37 50 37h124q25 0 40 -18t10 -41q-22 -120 -114.5 -198.5t-215.5 -78.5t-215.5 78.5t-114.5 198.5z" />
    <glyph glyph-name="gbreve" unicode="&#x11f;" horiz-adv-x="1290" 
d="M532 16q-239 0 -365 112t-126 364q0 135 35 231.5t101.5 152t153.5 80.5t201 25q121 0 198.5 -25.5t135.5 -76.5q6 -4 12.5 -1t6.5 9v10q0 35 25.5 60.5t60.5 25.5h192q35 0 60.5 -25.5t25.5 -60.5l-2 -1001q-2 -141 -102 -240.5t-242 -99.5h-543q-117 0 -207 76t-90 184
v75q0 31 21 53.5t51 22.5h240q34 0 49 -33q25 -51 86 -51h274q41 0 71 30t30 71v149q0 6 -6.5 9t-12.5 -1q-143 -125 -334 -125zM295 1372q-5 23 10.5 41.5t40.5 18.5h123q36 0 49 -37q11 -33 41 -54.5t66 -21.5t65.5 21.5t40.5 54.5q13 37 49 37h125q25 0 40.5 -18.5
t10.5 -41.5q-22 -119 -114.5 -197.5t-216.5 -78.5q-123 0 -215.5 78t-114.5 198zM627 657q-62 0 -102 -10.5t-61.5 -33.5t-29.5 -51t-8 -70q0 -41 6 -67t25.5 -51t61.5 -36.5t108 -11.5q63 0 104 11t60.5 35t26.5 51t7 69t-6 68t-25.5 50.5t-60.5 35.5t-106 11z" />
    <glyph glyph-name="Gdotaccent" unicode="&#x120;" horiz-adv-x="1468" 
d="M41 438v553q0 182 127.5 311.5t308.5 129.5h514q181 0 308.5 -129.5t127.5 -311.5v-28q0 -18 -10.5 -29.5t-27.5 -11.5h-314q-18 0 -28.5 11.5t-10.5 29.5q0 32 -22 52.5t-53 20.5h-431q-40 0 -69 -28.5t-29 -69.5v-444q0 -41 28.5 -70t69.5 -29h406q40 0 70 29t30 70
q0 11 -8.5 18.5t-19.5 7.5h-115q-20 0 -34.5 15.5t-14.5 35.5v144q0 19 14.5 33t34.5 14h485q20 0 34.5 -14t14.5 -33v-277q0 -182 -127.5 -310t-308.5 -128h-514q-181 0 -308.5 128t-127.5 310zM578 1808q0 31 22 52.5t53 21.5h166q32 0 53 -21.5t21 -52.5v-166
q0 -32 -21 -52.5t-53 -20.5h-166q-31 0 -53 20.5t-22 52.5v166z" />
    <glyph glyph-name="gdotaccent" unicode="&#x121;" horiz-adv-x="1290" 
d="M41 492q0 135 35 231.5t101.5 152t153.5 80.5t201 25q121 0 197.5 -25.5t134.5 -76.5q6 -4 12.5 0t6.5 10v8q0 35 25.5 60.5t60.5 25.5h194q35 0 60.5 -25.5t25.5 -60.5l-2 -1001q-2 -141 -103 -240.5t-243 -99.5h-541q-117 0 -207 77t-90 185v73q0 31 21 53.5t51 22.5
h238q36 0 49 -30q12 -24 36.5 -38t51.5 -14h274q41 0 70 29t29 70v149q0 6 -6.5 10t-12.5 0q-66 -58 -143.5 -92.5t-188.5 -34.5q-239 0 -365 112t-126 364zM424 492q0 -41 6 -67t25.5 -50t61.5 -35.5t108 -11.5q63 0 104 11t60.5 34.5t26.5 50t7 68.5t-6 68t-25.5 50.5
t-60.5 35.5t-106 11q-62 0 -102 -10.5t-61.5 -33.5t-29.5 -51t-8 -70zM563 1120q-31 0 -53.5 21t-22.5 53v166q0 31 22.5 52.5t53.5 21.5h166q32 0 53 -21.5t21 -52.5v-166q0 -32 -21 -53t-53 -21h-166z" />
    <glyph glyph-name="uni0122" unicode="&#x122;" horiz-adv-x="1468" 
d="M41 991q0 182 127.5 311.5t308.5 129.5h514q181 0 308.5 -129.5t127.5 -311.5v-30q0 -17 -12 -28t-29 -11h-311q-18 0 -28.5 10.5t-10.5 28.5q0 32 -22 53.5t-53 21.5h-431q-40 0 -69 -28.5t-29 -69.5v-444q0 -42 28.5 -71.5t69.5 -29.5h406q40 0 70 30t30 71
q0 11 -8.5 18.5t-19.5 7.5h-115q-20 0 -34.5 14.5t-14.5 34.5v146q0 19 14.5 33t34.5 14h485q20 0 34.5 -14t14.5 -33v-279q0 -182 -127.5 -309t-308.5 -127h-514q-181 0 -308.5 127t-127.5 309v555zM575 -203q0 31 21.5 51.5t52.5 20.5h168q31 0 52.5 -20.5t21.5 -51.5
v-235q0 -110 -79 -189.5t-189 -79.5q-19 0 -33.5 13.5t-14.5 31.5v68q0 19 14.5 33t33.5 14q41 0 69.5 28.5t28.5 69.5v5h-72q-31 0 -52.5 20.5t-21.5 50.5v170z" />
    <glyph glyph-name="uni0123" unicode="&#x123;" horiz-adv-x="1290" 
d="M41 492q0 135 35 231.5t101.5 152t153.5 80.5t201 25q121 0 198.5 -25.5t135.5 -76.5q6 -4 12.5 -1t6.5 9v10q0 35 25.5 60.5t60.5 25.5h192q35 0 60.5 -25.5t25.5 -60.5l-2 -1001q-2 -141 -102 -240.5t-242 -99.5h-543q-117 0 -207 76t-90 184v75q0 31 21 53.5t51 22.5
h240q34 0 49 -33q12 -24 36.5 -37.5t51.5 -13.5h272q41 0 71 30t30 71v149q0 6 -6.5 9t-12.5 -1q-143 -125 -334 -125q-239 0 -365 112t-126 364zM561 1116q-31 0 -52.5 21.5t-21.5 52.5v233q0 110 80.5 189.5t190.5 79.5q19 0 32 -13t13 -32v-68q0 -19 -13 -32t-32 -13
q-41 0 -71 -29.5t-30 -70.5v-2h72q31 0 52.5 -21.5t21.5 -52.5v-168q0 -31 -21.5 -52.5t-52.5 -21.5h-168zM426 492q0 -41 6 -67t25.5 -51t61.5 -36.5t108 -11.5q63 0 104 11t60.5 35t26.5 51t7 69t-6 68t-25.5 50.5t-60.5 35.5t-106 11q-62 0 -102 -10.5t-61.5 -33.5
t-29.5 -51t-8 -70z" />
    <glyph glyph-name="Hcircumflex" unicode="&#x124;" horiz-adv-x="1468" 
d="M117 0q-32 0 -54 22t-22 54v1280q0 32 22 54t54 22h260q32 0 53 -22t21 -54v-443q0 -10 7.5 -17t16.5 -7h518q9 0 16 7t7 17v443q0 32 22 54t54 22h262q32 0 52.5 -21.5t20.5 -54.5v-1280q0 -33 -20.5 -54.5t-52.5 -21.5h-262q-32 0 -54 22t-22 54v440q0 10 -7 17.5
t-16 7.5h-518q-9 0 -16.5 -7.5t-7.5 -17.5v-440q0 -32 -21 -54t-53 -22h-260zM442 1507q-11 0 -16.5 8.5t-1.5 18.5l141 328q9 18 33 18h274q25 0 31 -18l141 -328q4 -10 -1.5 -18.5t-16.5 -8.5h-180q-23 0 -29 19l-80 168q-4 4 -8 0l-78 -168q-6 -19 -30 -19h-179z" />
    <glyph glyph-name="hcircumflex" unicode="&#x125;" 
d="M41 1358q0 32 21.5 53t52.5 21h215q32 0 54 -21t22 -53v-469q0 -6 6 -10t12 0q60 52 126 77t175 25q59 0 113 -9.5t110.5 -35t98 -65.5t68 -107t26.5 -152v-536q0 -31 -22.5 -52.5t-53.5 -21.5h-215q-32 0 -54 21t-22 53v405q0 78 -52 127t-132 49q-81 0 -132 -47.5
t-52 -128.5v-405q0 -32 -22 -53t-54 -21h-215q-31 0 -52.5 21t-21.5 53v1282zM-80 1483q-11 0 -16.5 8t-1.5 18l141 328q9 18 33 18h274q25 0 31 -18l141 -328q4 -10 -1.5 -18t-16.5 -8h-180q-23 0 -29 18l-80 168q-4 4 -8 0l-78 -168q-6 -18 -31 -18h-178z" />
    <glyph glyph-name="Hbar" unicode="&#x126;" horiz-adv-x="1835" 
d="M41 1147q0 31 20.5 52.5t51.5 21.5h110v135q0 32 22 54t54 22h260q32 0 54 -22t22 -54v-135h565v135q0 32 22 54t54 22h258q32 0 54 -22t22 -54v-135h110q31 0 52.5 -21.5t21.5 -52.5v-201q0 -31 -21.5 -52.5t-52.5 -21.5h-110v-798q0 -31 -22 -52.5t-54 -21.5h-258
q-32 0 -54 21.5t-22 52.5v286q0 11 -7 19t-17 8h-519q-9 0 -15.5 -8t-6.5 -19v-286q0 -31 -22 -52.5t-54 -21.5h-260q-32 0 -54 21.5t-22 52.5v798h-110q-31 0 -51.5 21.5t-20.5 52.5v201zM635 872v-112q0 -11 6.5 -19t15.5 -8h519q10 0 17 8t7 19v112h-565z" />
    <glyph glyph-name="hbar" unicode="&#x127;" horiz-adv-x="1366" 
d="M41 1116v115q0 31 21.5 52.5t52.5 21.5h114v49q0 32 21 54t51 22h217q31 0 52.5 -22t21.5 -54v-49h190q31 0 51.5 -21.5t20.5 -52.5v-115q0 -31 -20.5 -52.5t-51.5 -21.5h-190v-155q0 -7 7 -10t11 0q60 52 126 77t175 25q58 0 112 -9.5t110.5 -35t97.5 -65.5t67.5 -107
t26.5 -152v-536q0 -30 -22 -52t-52 -22h-217q-31 0 -52 21.5t-21 52.5v405q0 77 -52 126.5t-131 49.5q-82 0 -133.5 -48.5t-52.5 -127.5v-405q0 -31 -21.5 -52.5t-52.5 -21.5h-217q-29 0 -50.5 21.5t-21.5 52.5v968h-114q-31 0 -52.5 21.5t-21.5 52.5z" />
    <glyph glyph-name="Itilde" unicode="&#x128;" horiz-adv-x="1193" 
d="M117 0q-32 0 -54 22t-22 54v178q0 31 22 52.5t54 21.5h239q9 0 17 7.5t8 16.5v725q0 9 -8 17t-17 8h-239q-32 0 -54 21.5t-22 52.5v180q0 32 22 54t54 22h964q31 0 51.5 -22t20.5 -54v-180q0 -31 -20.5 -52.5t-51.5 -21.5h-243q-10 0 -17.5 -8t-7.5 -17v-725
q0 -9 7.5 -16.5t17.5 -7.5h243q31 0 51.5 -21.5t20.5 -52.5v-178q0 -32 -20.5 -54t-51.5 -22h-964zM205 1616q-21 0 -34 15.5t-9 35.5q22 109 112 168l2 2q65 45 146 45q83 0 145 -45l160 -106q26 -15 45 -15q20 0 43 15l2 2q24 21 31 41q10 28 39 28h102q20 0 33 -15.5
t10 -35.5q-18 -108 -114 -172h-3q-67 -45 -145 -45q-76 0 -143 45l-160 104q-18 15 -43 15q-24 0 -45 -15l-4 -2q-22 -16 -31 -39q-10 -26 -39 -26h-100z" />
    <glyph glyph-name="itilde" unicode="&#x129;" horiz-adv-x="483" 
d="M41 74v833q0 32 21.5 54t52.5 22h254q31 0 52 -22t21 -54v-833q0 -32 -21 -53t-52 -21h-254q-31 0 -52.5 21t-21.5 53zM-150 1167q-20 0 -33.5 16t-9.5 36q22 107 113 167l2 3q62 45 146 45q83 0 145 -45l160 -107q24 -14 45 -14q22 0 43 14l2 2q24 21 31 41q11 29 38 29
h103q20 0 33 -15.5t10 -35.5q-19 -108 -115 -173h-2q-67 -45 -145 -45q-77 0 -144 45l-159 105q-17 14 -43 14q-25 0 -45 -14l-5 -2q-21 -15 -30 -39q-10 -27 -39 -27h-101z" />
    <glyph glyph-name="Imacron" unicode="&#x12a;" horiz-adv-x="1193" 
d="M41 74v178q0 31 22 53.5t54 22.5h239q9 0 17 7.5t8 16.5v725q0 9 -8 16t-17 7h-239q-32 0 -54 22.5t-22 53.5v180q0 32 22 54t54 22h964q31 0 51.5 -22t20.5 -54v-180q0 -31 -21 -53.5t-51 -22.5h-243q-10 0 -17.5 -7t-7.5 -16v-725q0 -9 7.5 -16.5t17.5 -7.5h243
q30 0 51 -22.5t21 -53.5v-178q0 -32 -20.5 -53t-51.5 -21h-964q-32 0 -54 21t-22 53zM283 1876h630q34 0 58 -25t24 -59v-150q0 -34 -24 -57.5t-58 -23.5h-630q-34 0 -58 23.5t-24 57.5v150q0 34 24 59t58 25z" />
    <glyph glyph-name="imacron" unicode="&#x12b;" horiz-adv-x="878" 
d="M240 907q0 32 20 54t51 22h256q31 0 51.5 -22t20.5 -54v-833q0 -32 -20.5 -53t-51.5 -21h-256q-31 0 -51 21t-20 53v833zM41 1348q0 34 24 59t58 25h631q34 0 59 -25t25 -59v-150q0 -34 -25 -58t-59 -24h-631q-34 0 -58 24t-24 58v150z" />
    <glyph glyph-name="Iogonek" unicode="&#x12e;" horiz-adv-x="1193" 
d="M115 0q-32 0 -53 21t-21 53v178q0 31 21 53.5t53 22.5h241q9 0 16 7.5t7 16.5v725q0 9 -7 16t-16 7h-241q-32 0 -53 22.5t-21 53.5v180q0 32 21 54t53 22h964q31 0 52.5 -22t21.5 -54v-180q0 -31 -21.5 -53.5t-52.5 -22.5h-241q-11 0 -19 -7t-8 -16v-725q0 -9 8.5 -16.5
t18.5 -7.5h241q31 0 52.5 -22.5t21.5 -53.5v-178q0 -30 -21 -51t-51 -23q-49 1 -97 -20t-75.5 -57t-17.5 -73q14 -49 84 -49q40 0 84 17.5t71 44.5q6 6 14.5 2.5t8.5 -12.5v-129q0 -44 -27 -78t-69.5 -52.5t-85.5 -28t-82 -9.5q-86 0 -147.5 28.5t-90 72.5t-39 96t-2.5 100
t29 84q19 33 45 63h-569z" />
    <glyph glyph-name="iogonek" unicode="&#x12f;" horiz-adv-x="614" 
d="M309 -444q-72 0 -126 18.5t-83 49t-45 68.5t-15.5 78.5t10 77t26.5 66.5q44 75 98 106v887q0 32 20.5 54t51.5 22h254q31 0 52 -22t21 -54v-833q0 -31 -20 -51.5t-49 -22.5h-2h2q-77 2 -142 -46t-51 -104q14 -49 84 -49q40 0 84.5 17.5t71.5 44.5q6 6 14 2.5t8 -12.5
v-129q0 -44 -27 -78.5t-69 -53t-85 -27.5t-83 -9zM174 1188v168q0 32 20.5 54t51.5 22h254q31 0 52 -22t21 -54v-168q0 -32 -21 -54t-52 -22h-254q-31 0 -51.5 22t-20.5 54z" />
    <glyph glyph-name="Idotaccent" unicode="&#x130;" horiz-adv-x="1193" 
d="M41 74v178q0 31 22 53.5t54 22.5h239q9 0 17 7.5t8 16.5v725q0 9 -8 16t-17 7h-239q-32 0 -54 22.5t-22 53.5v180q0 32 22 54t54 22h964q31 0 51.5 -22t20.5 -54v-180q0 -31 -21 -53.5t-51 -22.5h-243q-10 0 -17.5 -7t-7.5 -16v-725q0 -9 7.5 -16.5t17.5 -7.5h243
q30 0 51 -22.5t21 -53.5v-178q0 -32 -20.5 -53t-51.5 -21h-964q-32 0 -54 21t-22 53zM438 1802q0 31 22.5 52.5t53.5 21.5h166q32 0 54 -21.5t22 -52.5v-166q0 -32 -22 -53.5t-54 -21.5h-166q-31 0 -53.5 21.5t-22.5 53.5v166z" />
    <glyph glyph-name="dotlessi" unicode="&#x131;" horiz-adv-x="483" 
d="M115 0q-31 0 -52.5 21t-21.5 53v833q0 32 21.5 54t52.5 22h254q31 0 52 -22t21 -54v-833q0 -32 -21 -53t-52 -21h-254z" />
    <glyph glyph-name="IJ" unicode="&#x132;" horiz-adv-x="2533" 
d="M41 76v178q0 31 22 52.5t54 21.5h239q9 0 17 7.5t8 16.5v725q0 9 -8 17t-17 8h-239q-32 0 -54 21.5t-22 52.5v180q0 32 22 54t54 22h964q31 0 51.5 -22t20.5 -54v-180q0 -31 -20.5 -52.5t-51.5 -21.5h-243q-10 0 -17.5 -8t-7.5 -17v-725q0 -9 7.5 -16.5t17.5 -7.5h243
q31 0 51.5 -21.5t20.5 -52.5v-178q0 -32 -20.5 -54t-51.5 -22h-964q-32 0 -54 22t-22 54zM1235 426v115q0 35 25.5 59.5t60.5 24.5h207q35 0 59.5 -24.5t24.5 -59.5v-2q0 -69 48.5 -116.5t117.5 -47.5h192q62 0 105 43t43 104v852q0 25 16 41.5t41 16.5h260q25 0 41 -16.5
t16 -41.5v-948q0 -176 -125.5 -301t-300.5 -125h-403q-177 0 -302.5 124.5t-125.5 301.5z" />
    <glyph glyph-name="ij" unicode="&#x133;" horiz-adv-x="993" 
d="M313 -147q0 31 21 51t53 20h57q41 0 70 30t29 71v884q0 32 21 53t52 21h263q32 0 52.5 -21t20.5 -53v-1007q0 -143 -100 -244.5t-242 -101.5h-223q-32 0 -53 20.5t-21 52.5v224zM41 909q0 32 20.5 53t51.5 21h254q31 0 52 -21t21 -53v-835q0 -32 -21 -53t-52 -21h-254
q-31 0 -51.5 21t-20.5 53v835zM543 1358q0 31 21 52.5t52 21.5h263q32 0 52.5 -21.5t20.5 -52.5v-170q0 -32 -20.5 -53t-52.5 -21h-263q-31 0 -52 21t-21 53v170zM41 1358q0 32 20.5 53t51.5 21h254q31 0 52 -21t21 -53v-170q0 -32 -21 -53t-52 -21h-254q-31 0 -51.5 21
t-20.5 53v170z" />
    <glyph glyph-name="Jcircumflex" unicode="&#x134;" horiz-adv-x="1339" 
d="M41 541q0 35 25.5 59.5t60.5 24.5h207q35 0 59.5 -24.5t24.5 -59.5v-2q0 -69 48.5 -116.5t117.5 -47.5h192q62 0 105 43t43 104v852q0 25 16 41.5t41 16.5h260q25 0 41 -16.5t16 -41.5v-948q0 -176 -125.5 -301t-300.5 -125h-403q-177 0 -302.5 124.5t-125.5 301.5v115z
M813 1505q-11 0 -16.5 8.5t-1.5 18.5l141 328q9 18 33 18h274q25 0 31 -18l141 -328q4 -10 -1.5 -18.5t-16.5 -8.5h-180q-23 0 -29 19l-80 168q-4 4 -8 0l-78 -168q-6 -19 -31 -19h-178z" />
    <glyph glyph-name="jcircumflex" unicode="&#x135;" horiz-adv-x="823" 
d="M41 -147q0 31 21 51t53 20h57q41 0 69.5 29.5t28.5 71.5v884q0 32 21.5 53t52.5 21h262q32 0 53 -21t21 -53v-1007q0 -143 -100 -244.5t-242 -101.5h-223q-32 0 -53 20.5t-21 52.5v224zM174 1059q-11 0 -16.5 8t-1.5 18l141 328q9 19 33 19h274q25 0 31 -19l141 -328
q4 -10 -1.5 -18t-16.5 -8h-180q-23 0 -29 18l-80 168q-4 4 -8 0l-78 -168q-6 -18 -31 -18h-178z" />
    <glyph glyph-name="uni0136" unicode="&#x136;" horiz-adv-x="1435" 
d="M41 1343q0 36 25.5 62.5t60.5 26.5h256q35 0 60.5 -26.5t25.5 -62.5v-423q0 -10 5.5 -12.5t12.5 5.5l445 490q26 29 63 29h338q40 0 55.5 -37t-10.5 -66l-555 -608q-5 -3 -5 -11t5 -12l551 -598q26 -29 10.5 -64.5t-55.5 -35.5h-338q-39 0 -63 27l-441 479q-5 5 -11.5 3
t-6.5 -9v-414q0 -35 -25.5 -60.5t-60.5 -25.5h-256q-35 0 -60.5 25.5t-25.5 60.5v1257zM606 -547q42 0 71.5 28.5t29.5 69.5v5h-72q-31 0 -52.5 20.5t-21.5 50.5v170q0 31 21.5 51.5t52.5 20.5h168q31 0 52.5 -20.5t21.5 -51.5v-235q0 -110 -80.5 -189.5t-190.5 -79.5
q-19 0 -32 13t-13 32v68q0 19 13 33t32 14z" />
    <glyph glyph-name="uni0137" unicode="&#x137;" horiz-adv-x="1200" 
d="M41 1356q0 31 21 53.5t51 22.5h219q30 0 50.5 -22.5t20.5 -53.5v-664q0 -6 6.5 -9t10.5 1l278 283q14 14 37 14h375q21 0 35 -15t14 -34q0 -21 -14 -35l-385 -387q-6 -6 -6 -16t6 -19l383 -393q14 -14 14 -35q0 -19 -14 -33t-35 -14h-373q-23 0 -37 14l-278 285
q-4 6 -10.5 3t-6.5 -9v-221q0 -31 -20 -51.5t-51 -20.5h-219q-31 0 -51.5 20.5t-20.5 51.5v1284zM444 -594q0 19 13 33t32 14q41 0 70 28.5t29 69.5v5h-72q-31 0 -51.5 20t-20.5 51v170q0 31 20.5 51.5t51.5 20.5h166q31 0 52.5 -20.5t21.5 -51.5v-235q0 -110 -78.5 -189.5
t-188.5 -79.5q-19 0 -32 13t-13 32v68z" />
    <glyph glyph-name="kgreenlandic" unicode="&#x138;" horiz-adv-x="1202" 
d="M41 911q0 31 21.5 52.5t52.5 21.5h217q31 0 52.5 -21.5t21.5 -52.5v-219q0 -6 6 -8t10 2l280 281q14 14 37 14h373q21 0 35 -14t14 -35t-14 -35l-383 -387q-8 -8 -8 -16q0 -7 8 -19l381 -393q14 -14 14 -35q0 -19 -14 -33t-35 -14h-371q-23 0 -37 14l-280 285q-4 6 -10 4
t-6 -8v-221q0 -31 -21.5 -52.5t-52.5 -21.5h-217q-31 0 -52.5 21.5t-21.5 52.5v837z" />
    <glyph glyph-name="Lacute" unicode="&#x139;" horiz-adv-x="1280" 
d="M41 74v1282q0 32 21 54t53 22h262q32 0 52 -21.5t20 -54.5v-981q0 -10 7.5 -18.5t16.5 -8.5h690q31 0 53.5 -21.5t22.5 -52.5v-200q0 -32 -22.5 -53t-53.5 -21h-1048q-32 0 -53 21t-21 53zM137 1597l35 248q3 19 16.5 31t32.5 12h176q29 0 41.5 -26.5t-4.5 -51.5
l-174 -249q-18 -21 -41 -21h-35q-23 0 -36.5 17.5t-10.5 39.5z" />
    <glyph glyph-name="lacute" unicode="&#x13a;" horiz-adv-x="493" 
d="M41 1356q0 31 21 53.5t53 22.5h264q31 0 52.5 -22.5t21.5 -53.5v-1284q0 -31 -21.5 -51.5t-52.5 -20.5h-264q-32 0 -53 20.5t-21 51.5v1284zM143 1597l35 248q3 19 16.5 31t32.5 12h176q31 0 43.5 -26.5t-4.5 -51.5l-176 -249q-17 -21 -39 -21h-34q-23 0 -38 17.5
t-12 39.5z" />
    <glyph glyph-name="uni013B" unicode="&#x13b;" horiz-adv-x="1280" 
d="M41 74v1282q0 32 22 54t54 22h260q32 0 53 -22t21 -54v-981q0 -11 6.5 -19t15.5 -8h692q31 0 52.5 -21.5t21.5 -52.5v-200q0 -32 -21.5 -53t-52.5 -21h-1048q-32 0 -54 21t-22 53zM481 -205q0 31 21.5 52.5t52.5 21.5h168q31 0 52.5 -21.5t21.5 -52.5v-233
q0 -110 -79.5 -189.5t-189.5 -79.5q-19 0 -33 13t-14 32v68q0 19 14 33t33 14q41 0 70 28.5t29 69.5v5h-72q-31 0 -52.5 20.5t-21.5 50.5v168z" />
    <glyph glyph-name="uni013C" unicode="&#x13c;" horiz-adv-x="493" 
d="M117 0q-32 0 -54 20.5t-22 51.5v1284q0 31 22 53.5t54 22.5h262q31 0 52.5 -22.5t21.5 -53.5v-1284q0 -31 -21.5 -51.5t-52.5 -20.5h-262zM90 -662v68q0 19 13 33t32 14q41 0 69.5 28.5t28.5 69.5v5h-69q-31 0 -52.5 20.5t-21.5 50.5v168q0 31 21.5 52.5t52.5 21.5h168
q30 0 50.5 -21.5t20.5 -52.5v-233q0 -110 -79 -189.5t-189 -79.5q-19 0 -32 13t-13 32z" />
    <glyph glyph-name="Lcaron" unicode="&#x13d;" horiz-adv-x="1280" 
d="M41 1356q0 32 22 54t54 22h260q32 0 53 -22t21 -54v-981q0 -10 7.5 -18.5t16.5 -8.5h690q31 0 52.5 -21.5t21.5 -52.5v-200q0 -32 -21.5 -53t-52.5 -21h-1048q-32 0 -54 21t-22 53v1282zM604 901v68q0 19 14 32t33 13q41 0 70 28.5t29 69.5v4h-72q-31 0 -52.5 21.5
t-21.5 52.5v168q0 31 21.5 52.5t52.5 21.5h168q31 0 52.5 -21.5t21.5 -52.5v-234q0 -110 -79.5 -190t-189.5 -80q-19 0 -33 14t-14 33z" />
    <glyph glyph-name="lcaron" unicode="&#x13e;" horiz-adv-x="882" 
d="M41 1356q0 31 22 53.5t54 22.5h262q31 0 52.5 -22.5t21.5 -53.5v-1284q0 -31 -21.5 -51.5t-52.5 -20.5h-262q-32 0 -54 20.5t-22 51.5v1284zM530 1358q0 31 21.5 52.5t52.5 21.5h168q30 0 50 -21.5t20 -52.5v-234q0 -111 -78.5 -190.5t-188.5 -79.5q-19 0 -32 14t-13 33
v68q0 19 13 32t32 13q41 0 70 28.5t29 69.5v4h-70q-31 0 -52.5 21.5t-21.5 52.5v168z" />
    <glyph glyph-name="Ldot" unicode="&#x13f;" horiz-adv-x="1280" 
d="M41 76v1280q0 32 21 54t53 22h262q32 0 52 -21.5t20 -54.5v-981q0 -10 7.5 -17.5t16.5 -7.5h690q31 0 53.5 -21.5t22.5 -52.5v-200q0 -32 -22.5 -54t-53.5 -22h-1048q-32 0 -53 22t-21 54zM483 1090v163q0 31 21.5 52.5t52.5 21.5h168q32 0 53 -21.5t21 -52.5v-163
q0 -32 -21 -54t-53 -22h-168q-31 0 -52.5 22t-21.5 54z" />
    <glyph glyph-name="ldot" unicode="&#x140;" horiz-adv-x="890" 
d="M41 1358q0 31 22 52.5t54 21.5h262q31 0 52.5 -21.5t21.5 -52.5v-1284q0 -31 -21.5 -52.5t-52.5 -21.5h-262q-32 0 -54 21.5t-22 52.5v1284zM535 641v164q0 31 21 52.5t52 21.5h168q32 0 53 -21.5t21 -52.5v-164q0 -32 -21 -54t-53 -22h-168q-31 0 -52 22t-21 54z" />
    <glyph glyph-name="Lslash" unicode="&#x141;" horiz-adv-x="1441" 
d="M41 358v297q0 47 39 66l121 70v565q0 31 22 53.5t53 22.5h263q30 0 51.5 -22.5t21.5 -53.5v-328l312 178q12 8 24.5 0.5t12.5 -22.5v-297q0 -45 -37 -66l-312 -178v-268q0 -10 8 -18.5t17 -8.5h690q31 0 52.5 -22.5t21.5 -53.5v-198q0 -32 -21.5 -53t-52.5 -21h-1051
q-31 0 -53 21.5t-22 52.5v332l-121 -70q-12 -8 -25.5 -0.5t-13.5 22.5z" />
    <glyph glyph-name="lslash" unicode="&#x142;" horiz-adv-x="1001" 
d="M80 281q-12 -8 -25.5 -1.5t-13.5 21.5v297q0 46 39 68l217 122v568q0 31 21 53.5t53 22.5h262q31 0 52.5 -22.5t21.5 -53.5v-330l217 123q12 8 24.5 1t12.5 -22v-297q0 -46 -37 -67l-217 -123v-569q0 -31 -20.5 -51.5t-51.5 -20.5h-264q-32 0 -53 20.5t-21 51.5v331z" />
    <glyph glyph-name="Nacute" unicode="&#x143;" horiz-adv-x="1492" 
d="M115 0q-31 0 -52.5 21t-21.5 53v1280q0 32 21.5 54t52.5 22h321q45 0 64 -37l540 -711q4 -6 11.5 -3.5t7.5 9.5v666q0 32 21.5 54t52.5 22h243q31 0 53.5 -22t22.5 -54v-1280q0 -32 -22.5 -53t-53.5 -21h-317q-44 0 -64 35l-540 713q-5 6 -12 3.5t-7 -10.5v-667
q0 -32 -22.5 -53t-53.5 -21h-245zM645 1583l35 250q3 19 16.5 30t32.5 11h176q31 0 43.5 -25.5t-4.5 -50.5l-176 -250q-17 -20 -39 -20h-35q-23 0 -37.5 16.5t-11.5 38.5z" />
    <glyph glyph-name="nacute" unicode="&#x144;" 
d="M115 0q-31 0 -52.5 21t-21.5 53v833q0 32 21.5 54t52.5 22h215q32 0 54 -22t22 -54v-22q0 -6 6 -9t12 1q60 52 126 77t175 25q59 0 113 -9.5t110.5 -35t98 -65.5t68 -107t26.5 -152v-538q0 -30 -22.5 -51t-53.5 -21h-215q-32 0 -54 21t-22 53v403q0 78 -52 128t-132 50
t-131.5 -48.5t-52.5 -129.5v-403q0 -32 -22 -53t-54 -21h-215zM487 1139l35 250q3 19 16.5 31t32.5 12h177q31 0 44 -26.5t-4 -51.5l-178 -250q-18 -21 -39 -21h-34q-23 0 -38 17t-12 39z" />
    <glyph glyph-name="uni0145" unicode="&#x145;" horiz-adv-x="1490" 
d="M113 0q-31 0 -51.5 21t-20.5 53v1280q0 32 20.5 54t51.5 22h321q45 0 64 -37l542 -711q4 -6 10.5 -4t6.5 10v666q0 32 21 54t52 22h246q31 0 52.5 -22t21.5 -54v-1280q0 -32 -21.5 -53t-52.5 -21h-319q-44 0 -64 35l-540 713q-5 6 -12 3.5t-7 -10.5v-667q0 -32 -21.5 -53
t-52.5 -21h-247zM635 -707q-19 0 -32 13t-13 32v68q0 19 13 33t32 14q41 0 69.5 28.5t28.5 69.5v5h-71q-31 0 -51.5 20t-20.5 51v168q0 31 20.5 52.5t51.5 21.5h169q31 0 51.5 -21.5t20.5 -52.5v-233q0 -110 -79 -189.5t-189 -79.5z" />
    <glyph glyph-name="uni0146" unicode="&#x146;" 
d="M41 907q0 32 21.5 54t52.5 22h215q32 0 54 -22t22 -54v-22q0 -6 6 -9t12 1q60 52 126 77t175 25q59 0 113 -9.5t110.5 -35t98 -65.5t68 -107t26.5 -152v-538q0 -30 -22.5 -51t-53.5 -21h-215q-32 0 -53 21t-21 53v403q0 78 -53 128t-133 50t-131.5 -48.5t-52.5 -129.5
v-403q0 -32 -22 -53t-54 -21h-215q-31 0 -52.5 21t-21.5 53v833zM479 -707q-19 0 -32 13t-13 32v68q0 19 13 33t32 14q41 0 70 28.5t29 69.5v5h-70q-31 0 -52.5 20.5t-21.5 50.5v168q0 31 21.5 52.5t52.5 21.5h168q31 0 51.5 -21.5t20.5 -52.5v-233q0 -110 -79.5 -189.5
t-189.5 -79.5z" />
    <glyph glyph-name="Ncaron" unicode="&#x147;" horiz-adv-x="1492" 
d="M41 1354q0 32 21.5 54t52.5 22h319q47 0 66 -37l540 -711q4 -6 11.5 -3.5t7.5 9.5v666q0 32 21.5 54t52.5 22h243q31 0 53.5 -22t22.5 -54v-1280q0 -32 -22.5 -53t-53.5 -21h-317q-44 0 -64 35l-540 713q-5 6 -12 3.5t-7 -10.5v-667q0 -32 -22.5 -53t-53.5 -21h-245
q-31 0 -52.5 21t-21.5 53v1280zM434 1847q-4 10 3 18.5t18 8.5h178q25 0 31 -19l79 -167q5 -4 9 0l79 167q6 19 29 19h180q11 0 17 -8.5t2 -18.5l-144 -327q-6 -19 -28 -19h-277q-22 0 -32 19z" />
    <glyph glyph-name="ncaron" unicode="&#x148;" horiz-adv-x="1179" 
d="M113 0q-31 0 -51.5 21t-20.5 53v833q0 32 20.5 54t51.5 22h217q32 0 52.5 -21.5t20.5 -54.5v-22q0 -6 6.5 -9t12.5 1q59 52 126 77t177 25q58 0 112.5 -9.5t110.5 -35t97.5 -65.5t67.5 -107t26 -152v-538q0 -31 -21.5 -51.5t-52.5 -20.5h-217q-32 0 -53 21t-21 53v403
q0 78 -52 128t-132 50q-81 0 -133.5 -48.5t-53.5 -129.5v-403q0 -32 -20.5 -53t-52.5 -21h-217zM279 1403q-4 10 1.5 19.5t16.5 9.5h178q24 0 31 -21l80 -168q4 -4 8 0l80 168q7 21 31 21h178q11 0 16.5 -9.5t1.5 -19.5l-141 -326q-7 -20 -31 -20h-276q-23 0 -33 20z" />
    <glyph glyph-name="napostrophe" unicode="&#x149;" horiz-adv-x="1536" 
d="M467 0q-31 0 -51.5 21t-20.5 53v835q0 32 20.5 53t51.5 21h217q32 0 53 -21t21 -53v-22q0 -6 6 -10t12 0q59 52 126 77t177 25q59 0 113 -9.5t110.5 -35t98 -65.5t68 -107t26.5 -152v-536q0 -31 -22.5 -52.5t-53.5 -21.5h-215q-32 0 -54 21t-22 53v405q0 78 -52 127
t-132 49q-81 0 -133 -47.5t-53 -128.5v-405q0 -32 -21 -53t-53 -21h-217zM41 971q0 19 14 32t33 13q41 0 68.5 28.5t27.5 69.5v4h-69q-31 0 -52.5 21.5t-21.5 52.5v168q0 31 21.5 52.5t52.5 21.5h166q31 0 52 -21.5t21 -52.5v-234q0 -110 -78.5 -189t-187.5 -79
q-19 0 -33 13t-14 32v68z" />
    <glyph glyph-name="Omacron" unicode="&#x14c;" horiz-adv-x="1492" 
d="M485 0q-186 0 -315 128.5t-129 313.5v545q0 121 59 223.5t161 162t224 59.5h525q184 0 313 -130t129 -315v-545q0 -184 -129 -313t-313 -129h-525zM391 850v-270q0 -78 56.5 -134.5t134.5 -56.5h331q78 0 134.5 56.5t56.5 134.5v270q0 78 -56.5 134t-134.5 56h-331
q-78 0 -134.5 -56t-56.5 -134zM350 1642v150q0 34 24 59t58 25h631q34 0 58 -25t24 -59v-150q0 -34 -24 -57.5t-58 -23.5h-631q-34 0 -58 23.5t-24 57.5z" />
    <glyph glyph-name="omacron" unicode="&#x14d;" 
d="M387 0q-144 0 -245 100.5t-101 243.5v293q0 142 101 243t245 101h406q144 0 246 -101.5t102 -242.5v-293q0 -143 -101.5 -243.5t-246.5 -100.5h-406zM274 1432h631q34 0 58 -25t24 -59v-148q0 -34 -24 -59t-58 -25h-631q-33 0 -57 25t-24 59v148q0 34 24 59t57 25z
M406 428q0 -47 33.5 -81t80.5 -34h142q46 0 79 34t33 81v125q0 46 -33 79.5t-79 33.5h-142q-47 0 -80.5 -33.5t-33.5 -79.5v-125z" />
    <glyph glyph-name="Obreve" unicode="&#x14e;" horiz-adv-x="1490" 
d="M485 0q-186 0 -315 129.5t-129 314.5v543q0 121 59 223.5t161 162t224 59.5h523q183 0 312.5 -130.5t129.5 -314.5v-543q0 -184 -129.5 -314t-312.5 -130h-523zM403 850v-268q0 -78 56.5 -134.5t134.5 -56.5h303q78 0 133 56.5t55 134.5v268q0 78 -55 134t-133 56h-303
q-78 0 -134.5 -56t-56.5 -134zM416 1823q-5 23 10.5 41t40.5 18h123q36 0 49 -37q11 -33 40.5 -54.5t65.5 -21.5t66 21.5t41 54.5q13 37 49 37h125q25 0 40.5 -18t10.5 -41q-22 -119 -115 -198t-217 -79q-123 0 -215 78.5t-114 198.5z" />
    <glyph glyph-name="obreve" unicode="&#x14f;" 
d="M41 639q0 141 101 241.5t245 100.5h408q143 0 244.5 -100.5t101.5 -241.5v-293q0 -142 -101.5 -244t-244.5 -102h-408q-144 0 -245 101.5t-101 244.5v293zM262 1374q-5 23 10.5 41.5t40.5 18.5h123q36 0 49 -37q11 -33 41 -54.5t66 -21.5t65.5 21.5t40.5 54.5
q13 37 50 37h124q25 0 41 -18.5t11 -41.5q-22 -119 -115 -197.5t-217 -78.5q-123 0 -215.5 78t-114.5 198zM406 553v-123q0 -48 33.5 -82.5t80.5 -34.5h144q46 0 79 35t33 82v123q0 46 -33.5 80.5t-78.5 34.5h-144q-47 0 -80.5 -34.5t-33.5 -80.5z" />
    <glyph glyph-name="Ohungarumlaut" unicode="&#x150;" horiz-adv-x="1490" 
d="M485 0q-186 0 -315 128.5t-129 313.5v545q0 121 59 223.5t161 162t224 59.5h523q183 0 312.5 -130.5t129.5 -314.5v-545q0 -184 -129.5 -313t-312.5 -129h-523zM580 1040q-78 0 -134.5 -56t-56.5 -134v-270q0 -78 56.5 -134.5t134.5 -56.5h331q78 0 133.5 56.5
t55.5 134.5v270q0 78 -55.5 134t-133.5 56h-331zM446 1583l35 250q3 19 16.5 30t32.5 11h175q31 0 44 -25.5t-4 -50.5l-176 -250q-17 -20 -41 -20h-34q-23 0 -37 16.5t-11 38.5zM891 1528q-23 0 -37.5 16.5t-11.5 38.5l35 250q3 19 16.5 30t32.5 11h174q31 0 43.5 -25.5
t-4.5 -50.5l-174 -250q-17 -20 -39 -20h-35z" />
    <glyph glyph-name="ohungarumlaut" unicode="&#x151;" 
d="M387 0q-144 0 -245 100.5t-101 243.5v293q0 142 101 243t245 101h406q144 0 246 -101.5t102 -242.5v-293q0 -143 -101.5 -243.5t-246.5 -100.5h-406zM520 666q-47 0 -80.5 -33.5t-33.5 -79.5v-125q0 -47 33.5 -81t80.5 -34h142q46 0 79 34t33 81v125q0 46 -33 79.5
t-79 33.5h-142zM338 1083q-23 0 -37.5 17t-11.5 39l35 250q3 19 16.5 31t32.5 12h176q31 0 44.5 -26.5t-3.5 -51.5l-176 -250q-18 -21 -41 -21h-35zM686 1139l35 250q3 19 16.5 31t32.5 12h174q31 0 44.5 -26.5t-3.5 -51.5l-176 -250q-17 -21 -41 -21h-35q-23 0 -36.5 17
t-10.5 39z" />
    <glyph glyph-name="OE" unicode="&#x152;" horiz-adv-x="2299" 
d="M41 987q0 185 128.5 315t313.5 130h525q1 0 2 -1t2 -1h1171q32 0 54 -21t22 -53v-185q0 -31 -22 -52t-54 -21h-704q-9 0 -17 -7.5t-8 -17.5v-168q0 -10 8 -17t17 -7h704q32 0 54 -22t22 -54v-199q0 -57 -76 -57h-704q-9 0 -17 -7.5t-8 -17.5v-168q0 -10 8 -17t17 -7h704
q32 0 54 -21.5t22 -52.5v-184q0 -32 -22 -53t-54 -21h-1700q-186 0 -314 128.5t-128 313.5v545zM578 1040q-78 0 -133.5 -56t-55.5 -134v-270q0 -78 55.5 -134.5t133.5 -56.5h331q78 0 134.5 56.5t56.5 134.5v270q0 78 -56.5 134t-134.5 56h-331z" />
    <glyph glyph-name="oe" unicode="&#x153;" horiz-adv-x="1912" 
d="M41 637q0 142 101 243t245 101h406q85 0 159 -41q78 43 166 43h408q142 0 244 -101.5t102 -242.5v-180q0 -31 -22 -51.5t-54 -20.5h-635q-16 0 -22 -16v-27q0 -2 -1 -6t-1 -6q5 -37 32.5 -63.5t65.5 -26.5h213q18 0 34.5 10.5t24.5 26.5q14 28 41 28h287q15 0 26 -12
t9 -27q-15 -115 -102 -191.5t-203 -76.5h-447q-90 0 -164 41q-74 -41 -161 -41h-406q-144 0 -245 100.5t-101 243.5v293zM520 666q-47 0 -80.5 -33.5t-33.5 -79.5v-125q0 -47 33.5 -81t80.5 -34h142q46 0 79 34t33 81v125q0 46 -33 79.5t-79 33.5h-142zM1139 592
q7 -14 22 -14h322q10 0 17 6.5t7 15.5v21q0 41 -29 68.5t-69 27.5h-174q-37 0 -63.5 -21.5t-32.5 -56.5v-47z" />
    <glyph glyph-name="Racute" unicode="&#x154;" horiz-adv-x="1499" 
d="M41 1358q0 31 22 52.5t54 21.5h725q71 0 130.5 -4.5t123.5 -18.5t115 -36.5t98 -60t78 -88.5t50.5 -123t20.5 -161q1 -86 -17.5 -158.5t-53 -124.5t-73.5 -88t-87 -63q-18 -14 -8 -27q37 -68 227 -405q14 -25 -1 -49.5t-44 -24.5h-289q-21 0 -40 11t-28 30l-206 348
q-35 57 -105 57h-272q-11 0 -19 -6.5t-8 -15.5v-348q0 -31 -20.5 -52.5t-51.5 -21.5h-245q-32 0 -54 21.5t-22 52.5v1282zM477 1075q-19 0 -31 -12t-12 -31v-188q0 -17 12 -29t31 -12h420q59 0 97 40t38 99q-1 55 -42.5 94t-98.5 39h-414zM645 1585l37 248q3 19 16 31t31 12
h176q31 0 44.5 -26.5t-3.5 -51.5l-176 -250q-17 -20 -41 -20h-35q-23 0 -37.5 17.5t-11.5 39.5z" />
    <glyph glyph-name="racute" unicode="&#x155;" horiz-adv-x="907" 
d="M117 0q-32 0 -54 22t-22 54v833q0 32 22 53t54 21h215q31 0 52.5 -21t21.5 -53v-22q0 -6 7 -9t13 1q57 51 134 77.5t198 26.5h33q32 0 53.5 -21t21.5 -53v-168q0 -30 -21.5 -51.5t-53.5 -21.5h-156q-124 1 -175 -48.5t-54 -140.5v-403q0 -32 -21.5 -54t-52.5 -22h-215z
M350 1141l35 250q3 19 16.5 30t32.5 11h176q31 0 44.5 -26.5t-3.5 -51.5l-176 -250q-17 -21 -41 -21h-35q-23 0 -37.5 18t-11.5 40z" />
    <glyph glyph-name="uni0156" unicode="&#x156;" horiz-adv-x="1499" 
d="M41 1358q0 31 21 52.5t53 21.5h727q71 0 130.5 -4.5t123.5 -18.5t115 -36.5t98 -60t78 -88.5t50.5 -123t20.5 -161q1 -86 -18 -158.5t-54 -124.5t-74 -88t-87 -63q-6 -5 -8 -13t2 -14q87 -161 225 -405q14 -25 0 -49.5t-43 -24.5h-289q-21 0 -40 11t-28 30l-208 348
q-35 57 -103 57h-272q-11 0 -19 -6.5t-8 -15.5v-348q0 -31 -20.5 -52.5t-51.5 -21.5h-247q-32 0 -53 21.5t-21 52.5v1282zM592 -371v168q0 31 20.5 52.5t51.5 21.5h167q31 0 52.5 -21.5t21.5 -52.5v-233q0 -110 -79 -189.5t-189 -79.5q-19 0 -32 13.5t-13 32.5v67
q0 19 13 32t32 13q41 0 69.5 28.5t28.5 69.5v5h-71q-31 0 -51.5 21t-20.5 52zM477 1075q-19 0 -31 -12t-12 -31v-188q0 -17 12 -29t31 -12h420q59 0 97 40t38 99q-1 55 -42.5 94t-98.5 39h-414z" />
    <glyph glyph-name="uni0157" unicode="&#x157;" horiz-adv-x="907" 
d="M41 909q0 32 22 53t54 21h215q31 0 52.5 -21t21.5 -53v-22q0 -6 6 -9t12 1q57 51 135 77.5t199 26.5h33q32 0 53.5 -21t21.5 -53v-168q0 -30 -21.5 -51.5t-53.5 -21.5h-156q-124 1 -175 -48.5t-54 -140.5v-403q0 -32 -21.5 -54t-52.5 -22h-215q-32 0 -54 22t-22 54v833z
M66 -592q0 19 13 32t32 13q41 0 69.5 28.5t28.5 69.5v5h-70q-31 0 -52 21t-21 52v168q0 31 21 52.5t52 21.5h168q31 0 52.5 -21.5t21.5 -52.5v-233q0 -110 -80 -189.5t-190 -79.5q-19 0 -32 13.5t-13 32.5v67z" />
    <glyph glyph-name="Rcaron" unicode="&#x158;" horiz-adv-x="1499" 
d="M115 2q-32 0 -53 21.5t-21 52.5v1282q0 31 21 52.5t53 21.5h727q71 0 130.5 -4.5t123.5 -18.5t115 -36.5t98 -60t78 -88.5t50.5 -123t20.5 -161q1 -86 -18 -158.5t-54 -124.5t-74 -88t-87 -63q-6 -5 -8 -13t2 -14q87 -161 225 -405q14 -25 0 -49.5t-43 -24.5h-289
q-21 0 -40 11t-28 30l-208 348q-35 57 -103 57h-272q-11 0 -19 -6.5t-8 -15.5v-348q0 -31 -21.5 -52.5t-52.5 -21.5h-245zM457 1876h178q23 0 29 -18l79 -168q5 -4 9 0l79 168q6 18 31 18h178q11 0 18 -8.5t3 -18.5l-143 -327q-6 -19 -31 -19h-277q-20 0 -30 19l-142 327
q-4 10 2 18.5t17 8.5zM434 844q0 -17 12 -29t31 -12h420q57 0 96 41t39 98q-1 55 -42.5 94t-98.5 39h-414q-19 0 -31 -12t-12 -31v-188z" />
    <glyph glyph-name="rcaron" unicode="&#x159;" horiz-adv-x="905" 
d="M115 0q-32 0 -53 22t-21 54v833q0 32 21 53t53 21h217q31 0 51 -21t20 -53v-22q0 -6 7.5 -9t13.5 1q57 51 135 77.5t199 26.5h33q32 0 52.5 -21t20.5 -53v-168q0 -30 -20.5 -51.5t-52.5 -21.5h-156q-125 1 -177 -48.5t-55 -140.5v-403q0 -32 -20 -54t-51 -22h-217z
M141 1405q-4 10 2 18.5t17 8.5h178q25 0 31 -19l80 -168q4 -4 8 0l80 168q6 19 30 19h178q11 0 17 -8.5t2 -18.5l-141 -328q-6 -18 -31 -18h-277q-23 0 -32 18z" />
    <glyph glyph-name="Sacute" unicode="&#x15a;" horiz-adv-x="1554" 
d="M453 578q-43 3 -92 16.5t-107.5 44t-104.5 74t-77 113.5t-31 155q0 229 97 340t315 111h688q144 0 245 -102t101 -247v-100q0 -43 -43 -43h-299q-19 0 -31 11.5t-12 31.5q0 40 -30 69t-71 29h-456q-38 0 -66 -28t-28 -68q0 -45 18 -66t78 -28q49 -6 268.5 -18t288.5 -19
q131 -12 193 -35q215 -79 216 -375q0 -68 -11 -125.5t-29.5 -100t-47 -76.5t-57.5 -56.5t-67 -39t-70.5 -25t-73 -13.5t-69.5 -6.5t-64 -1.5h-561q-163 0 -279 116t-116 279v54q0 19 12 32t31 13l299 -2q19 0 30 -12t11 -31q0 -41 29.5 -70t68.5 -29h455q40 0 69.5 27
t30.5 65q1 40 -25.5 66.5t-72.5 34.5q-29 4 -257.5 16.5t-295.5 18.5zM674 1585l35 248q3 19 16.5 31t32.5 12h176q31 0 43.5 -26.5t-4.5 -51.5l-176 -250q-17 -20 -41 -20h-33q-23 0 -37.5 17.5t-11.5 39.5z" />
    <glyph glyph-name="sacute" unicode="&#x15b;" horiz-adv-x="1179" 
d="M287 387q-104 6 -175.5 77.5t-70.5 172.5v100q0 101 72.5 173.5t173.5 72.5h579q103 0 175.5 -72.5t72.5 -175.5v-41q0 -20 -14.5 -34.5t-34.5 -14.5h-250q-31 0 -45 31q-19 43 -70 43h-223q-31 0 -51.5 -21t-19.5 -53q0 -14 10.5 -24.5t25.5 -10.5l451 -32
q105 -9 175.5 -77t70.5 -169v-82q0 -103 -72 -176.5t-174 -73.5h-578q-103 0 -176 73t-73 175v16q0 20 15 34.5t34 14.5h252q14 0 27.5 -8t19.5 -20q16 -39 59 -39h232q31 0 51.5 20.5t19.5 52.5q0 14 -11 24.5t-26 10.5zM487 1141l35 250q3 19 16.5 30t32.5 11h177
q30 0 43 -26.5t-5 -51.5l-176 -250q-18 -21 -41 -21h-32q-23 0 -38 18t-12 40z" />
    <glyph glyph-name="Scircumflex" unicode="&#x15c;" horiz-adv-x="1552" 
d="M451 578q-43 3 -92 16.5t-107 44t-103.5 74t-76.5 113.5t-31 155q0 229 96.5 340t313.5 111h690q144 0 244 -102t100 -247v-100q0 -43 -43 -43h-299q-19 0 -31 11.5t-12 31.5q0 40 -29 69t-70 29h-458q-40 0 -67 -28t-27 -68q0 -46 17.5 -67.5t78.5 -28.5
q49 -6 268.5 -18t288.5 -19q130 -12 190 -33q218 -77 219 -375q0 -68 -11 -125.5t-29.5 -100t-46.5 -76.5t-57 -56.5t-67 -39t-70.5 -25t-72.5 -13.5t-69 -6.5t-64 -1.5h-565q-161 0 -277 116t-116 279v54q0 19 13 31t32 12h295q19 0 31 -12t12 -31q0 -41 29 -70t69 -29h457
q40 0 68.5 26t29.5 64q1 41 -25 68t-71 35q-29 4 -258 16.5t-297 18.5zM485 1507q-11 0 -16.5 8.5t-1.5 18.5l141 328q9 18 33 18h274q25 0 31 -18l141 -328q4 -10 -1.5 -18.5t-16.5 -8.5h-180q-23 0 -29 19l-80 168q-4 4 -8 0l-78 -168q-6 -19 -30 -19h-179z" />
    <glyph glyph-name="scircumflex" unicode="&#x15d;" 
d="M287 387q-104 6 -175.5 77.5t-70.5 172.5v100q0 101 72.5 172.5t173.5 71.5l579 2q103 0 175.5 -72.5t72.5 -175.5v-41q0 -20 -14.5 -34.5t-34.5 -14.5h-250q-32 0 -45 29q-20 45 -70 45h-223q-31 0 -51.5 -21t-19.5 -53q0 -14 10.5 -24.5t25.5 -10.5l451 -32
q105 -9 176.5 -77.5t71.5 -168.5v-84q0 -103 -72.5 -175.5t-175.5 -72.5h-578q-103 0 -176 72.5t-73 173.5v16q0 20 14.5 35.5t34.5 15.5h252q13 0 27 -9t20 -21q15 -37 59 -37h232q31 0 51.5 20.5t19.5 52.5q0 14 -11 24.5t-26 10.5zM299 1059q-11 0 -16.5 8t-1.5 18
l141 328q10 19 33 19h274q25 0 31 -19l141 -328q4 -10 -1.5 -18t-16.5 -8h-181q-22 0 -28 18l-80 168q-4 4 -8 0l-78 -168q-6 -18 -31 -18h-178z" />
    <glyph glyph-name="Scedilla" unicode="&#x15e;" horiz-adv-x="1554" 
d="M453 578q-43 3 -92 16.5t-107.5 44t-104.5 74t-77 113.5t-31 155q0 229 97 340t315 111h688q144 0 245 -102t101 -247v-100q0 -43 -43 -43h-299q-19 0 -31 11.5t-12 31.5q0 40 -30 69t-71 29h-456q-38 0 -66 -28t-28 -68q0 -45 18 -66t78 -28q49 -6 268.5 -18t288.5 -19
q131 -12 193 -35q215 -79 216 -375q0 -68 -11 -125.5t-29.5 -100t-47 -76.5t-57.5 -56.5t-67 -39t-70.5 -25t-73 -13.5t-69.5 -6.5t-64 -1.5h-561q-163 0 -279 116t-116 279v54q0 19 12 32t31 13l299 -2q19 0 31 -12t12 -31q0 -41 28.5 -70t67.5 -29h455q40 0 69.5 27
t30.5 65q1 40 -25.5 66.5t-72.5 34.5q-29 4 -257.5 16.5t-295.5 18.5zM618 -592q0 18 14.5 31.5t33.5 13.5q41 0 69.5 28.5t28.5 69.5v5h-72q-31 0 -52.5 21t-21.5 52v168q0 31 21.5 52.5t52.5 21.5h168q31 0 52.5 -21.5t21.5 -52.5v-233q0 -110 -79 -189.5t-189 -79.5
q-19 0 -33.5 13.5t-14.5 32.5v67z" />
    <glyph glyph-name="scedilla" unicode="&#x15f;" 
d="M287 387q-104 6 -175.5 77.5t-70.5 172.5v100q0 101 72.5 173.5t173.5 72.5h579q103 0 175.5 -72.5t72.5 -175.5v-41q0 -20 -14.5 -34.5t-34.5 -14.5h-250q-31 0 -45 31q-19 43 -70 43h-223q-31 0 -51.5 -21t-19.5 -53q0 -14 10.5 -24.5t25.5 -10.5l451 -32
q105 -9 176.5 -77.5t71.5 -168.5v-82q0 -103 -72.5 -176.5t-175.5 -73.5h-578q-103 0 -176 73t-73 175v16q0 20 15 34.5t34 14.5h252q14 0 27.5 -8t19.5 -20q16 -39 59 -39h232q31 0 51.5 20.5t19.5 52.5q0 14 -11 24.5t-26 10.5zM432 -659v67q0 19 14 32t33 13
q41 0 70 28.5t29 69.5v5h-72q-31 0 -52.5 21t-21.5 52v168q0 31 21.5 52.5t52.5 21.5h168q31 0 52.5 -21.5t21.5 -52.5v-233q0 -110 -79.5 -189.5t-189.5 -79.5q-19 0 -33 13.5t-14 32.5z" />
    <glyph glyph-name="Scaron" unicode="&#x160;" horiz-adv-x="1552" 
d="M449 578q-43 3 -91.5 16.5t-106.5 44t-103.5 74t-76 113.5t-30.5 155q0 230 95.5 340.5t312.5 110.5h690q144 0 245 -102t101 -247v-100q0 -43 -43 -43h-299q-19 0 -31 11.5t-12 31.5q0 40 -29 69t-70 29h-458q-40 0 -68.5 -28t-28.5 -68q0 -44 19 -65.5t80 -28.5
q49 -6 268.5 -18t288.5 -19q131 -12 193 -35q215 -79 216 -375q0 -68 -11 -125.5t-29.5 -100t-47 -76.5t-57.5 -56.5t-67 -39t-70.5 -25t-73 -13.5t-69.5 -6.5t-64 -1.5h-563q-161 0 -277 116t-116 279v54q0 19 12 32t31 13l297 -2q19 0 31 -12t12 -31q0 -41 29 -70t69 -29
h457q40 0 68 27t30 65q1 40 -25.5 66.5t-72.5 34.5q-29 4 -258 16.5t-297 18.5zM463 1849q-4 10 1.5 18.5t16.5 8.5h181q22 0 28 -18l80 -168q4 -4 8 0l80 168q6 18 31 18h178q11 0 17.5 -8.5t2.5 -18.5l-143 -327q-6 -19 -31 -19h-276q-21 0 -31 19z" />
    <glyph glyph-name="scaron" unicode="&#x161;" 
d="M287 387q-104 6 -175.5 77.5t-70.5 172.5v100q0 101 72.5 173.5t173.5 72.5h581q103 0 174.5 -72.5t71.5 -175.5v-41q0 -20 -14.5 -34.5t-34.5 -14.5h-248q-33 0 -47 31q-19 43 -70 43h-223q-31 0 -51.5 -21t-19.5 -53q0 -14 10.5 -24.5t25.5 -10.5l451 -32
q105 -9 176.5 -77.5t71.5 -168.5v-82q0 -103 -72.5 -176.5t-175.5 -73.5h-578q-103 0 -176 73t-73 175v16q0 20 15 34.5t34 14.5h254q31 0 45 -28q16 -39 59 -39h232q31 0 51.5 20.5t19.5 52.5q0 14 -11 24.5t-26 10.5zM279 1405q-4 10 1.5 18.5t16.5 8.5h180q23 0 29 -19
l80 -168q4 -4 8 0l80 168q6 19 31 19h178q11 0 17.5 -8.5t2.5 -18.5l-143 -328q-6 -18 -31 -18h-276q-22 0 -31 18z" />
    <glyph glyph-name="uni0162" unicode="&#x162;" horiz-adv-x="1468" 
d="M41 1358q0 32 22 53t54 21h1237q32 0 52.5 -21t20.5 -53v-203q0 -31 -20.5 -52.5t-52.5 -21.5h-391q-9 0 -16 -7t-7 -17v-981q0 -32 -22 -54t-54 -22h-262q-32 0 -53 22t-21 54v981q0 10 -7.5 17t-16.5 7h-387q-32 0 -54 21.5t-22 52.5v203zM578 -592q0 19 13 32t32 13
q41 0 69.5 28.5t28.5 69.5v5h-72q-31 0 -51 21t-20 52v168q0 31 20.5 52.5t50.5 21.5h168q31 0 52.5 -21.5t21.5 -52.5v-233q0 -110 -79 -189.5t-189 -79.5q-19 0 -32 13.5t-13 32.5v67z" />
    <glyph glyph-name="uni0163" unicode="&#x163;" horiz-adv-x="1226" 
d="M41 909q0 32 21.5 53t52.5 21h90q10 0 17 8t7 17v131q0 32 21.5 53.5t52.5 21.5h215q32 0 53 -21.5t21 -53.5v-131q0 -9 6.5 -17t15.5 -8h496q32 0 54 -21t22 -53v-168q0 -30 -22 -51.5t-54 -21.5h-496q-9 0 -15.5 -8t-6.5 -17v-278q0 -19 14.5 -34.5t34.5 -15.5h72
q34 0 61 18.5t39 49.5q0 4 4 8q13 33 47 33h271q22 0 36.5 -14.5t14.5 -36.5v-66q0 -127 -89.5 -217t-215.5 -90h-404q-102 0 -175 73t-73 175v420h-114q-31 0 -52.5 22t-21.5 51v168zM457 -659v67q0 19 14 32t33 13q41 0 68.5 28.5t27.5 69.5v5h-70q-31 0 -52 21t-21 52
v168q0 31 21 52.5t52 21.5h166q31 0 52.5 -21.5t21.5 -52.5v-233q0 -110 -78.5 -189.5t-187.5 -79.5q-19 0 -33 13.5t-14 32.5z" />
    <glyph glyph-name="Tcaron" unicode="&#x164;" horiz-adv-x="1468" 
d="M41 1155v203q0 32 22 53t54 21h1235q32 0 53.5 -21t21.5 -53v-203q0 -31 -21.5 -52.5t-53.5 -21.5h-389q-9 0 -17 -7t-8 -17v-981q0 -32 -21 -54t-53 -22h-262q-32 0 -53 22t-21 54v981q0 10 -7.5 17t-16.5 7h-387q-32 0 -54 21.5t-22 52.5zM422 1849q-4 10 1.5 18.5
t16.5 8.5h178q25 0 31 -18l80 -168q4 -4 8 0l80 168q6 18 29 18h180q11 0 16.5 -8.5t1.5 -18.5l-141 -327q-6 -19 -31 -19h-276q-24 0 -33 19z" />
    <glyph glyph-name="tcaron" unicode="&#x165;" horiz-adv-x="1636" 
d="M41 909q0 32 21.5 53t52.5 21h88q10 0 18 8t8 17v131q0 32 21.5 53.5t52.5 21.5h215q32 0 54 -21.5t22 -53.5v-131q0 -9 6.5 -17t15.5 -8h494q32 0 54 -21t22 -53v-166q0 -31 -22 -53t-54 -22h-494q-9 0 -15.5 -8t-6.5 -17v-278q0 -19 14.5 -34.5t34.5 -15.5h70
q34 0 62 18.5t40 49.5q0 6 2 8q13 33 47 33h269q22 0 37.5 -14.5t15.5 -36.5v-66q0 -127 -89.5 -217t-215.5 -90h-406q-102 0 -174 73t-72 175v420h-114q-31 0 -52.5 22t-21.5 53v166zM1280 985v160q0 29 21.5 49t52.5 20h168q31 0 52 -20t21 -49v-223q0 -104 -80 -179
t-190 -75q-19 0 -32 13t-13 30v65q0 17 13 29t32 12q41 0 70.5 27t29.5 67v4h-71q-31 0 -52.5 20.5t-21.5 49.5z" />
    <glyph glyph-name="Tbar" unicode="&#x166;" horiz-adv-x="1468" 
d="M41 1155v201q0 32 22 54t54 22h1237q31 0 52 -22t21 -54v-201q0 -31 -21 -52.5t-52 -21.5h-391q-9 0 -16 -7t-7 -17v-185h252q31 0 53.5 -21.5t22.5 -53.5v-162q0 -32 -22.5 -55t-53.5 -23h-252v-483q0 -31 -22 -52.5t-54 -21.5h-262q-31 0 -52.5 21.5t-21.5 52.5v483
h-327q-32 0 -54 23t-22 55v162q0 32 22 53.5t54 21.5h327v185q0 10 -7.5 17t-16.5 7h-387q-32 0 -54 21.5t-22 52.5z" />
    <glyph glyph-name="tbar" unicode="&#x167;" horiz-adv-x="1064" 
d="M41 739v168q0 32 21 54t51 22h209q11 0 18.5 7.5t7.5 17.5v131q0 31 21.5 53t50.5 22h217q31 0 52.5 -22t21.5 -53v-131q0 -10 7.5 -17.5t16.5 -7.5h213q31 0 53.5 -22t22.5 -54v-168q0 -28 -22 -49.5t-54 -21.5h-211q-10 0 -18 -8t-8 -19v-68q0 -9 8 -16.5t18 -7.5h101
q22 0 36.5 -14.5t14.5 -36.5v-150q0 -22 -14.5 -36.5t-36.5 -14.5h-101q-10 0 -18 -8t-8 -19v-194q0 -31 -22.5 -53.5t-53.5 -22.5h-211q-31 0 -53.5 22.5t-22.5 53.5v194q0 11 -8 19t-18 8h-111q-22 0 -36.5 14.5t-14.5 36.5v150q0 22 14.5 36.5t36.5 14.5h111q10 0 18 7.5
t8 16.5v68q0 11 -8 19t-18 8h-207q-31 0 -52.5 21t-21.5 50z" />
    <glyph glyph-name="Utilde" unicode="&#x168;" horiz-adv-x="1468" 
d="M41 1356q0 31 22 53.5t54 22.5h241q32 0 53 -22.5t21 -53.5v-815q0 -61 44 -105.5t106 -44.5h303q61 0 104 44t43 106v815q0 31 21.5 53.5t52.5 22.5h246q32 0 53.5 -22.5t21.5 -53.5v-912q0 -186 -130 -315t-316 -129h-498q-185 0 -313.5 129t-128.5 315v912zM342 1616
q-21 0 -34 15.5t-9 35.5q22 108 113 168l2 2q65 45 145 45q84 0 146 -45l159 -106q26 -15 45 -15q21 0 43 15l2 2q24 21 31 41q11 28 39 28h102q20 0 33 -15.5t10 -35.5q-18 -108 -114 -172h-2q-67 -45 -146 -45q-76 0 -143 45l-160 104q-18 15 -43 15q-24 0 -45 -15l-4 -2
q-22 -16 -31 -39q-10 -26 -39 -26h-100z" />
    <glyph glyph-name="utilde" unicode="&#x169;" 
d="M41 375v536q0 30 22.5 51t53.5 21h202q32 0 54 -21t22 -53v-403q0 -77 55 -126.5t136 -49.5t136 48t56 128v403q0 32 21 53t53 21h217q31 0 51.5 -21t20.5 -53v-835q0 -32 -20.5 -53t-51.5 -21h-217q-32 0 -53 21t-21 53v22q0 6 -6 10t-12 0q-59 -52 -126 -77t-177 -25
q-59 0 -113 9.5t-110.5 35.5t-98 66t-68 107t-26.5 153zM199 1167q-20 0 -33.5 16t-9.5 36q22 108 112 167l2 3q65 45 146 45q83 0 145 -45l160 -107q25 -14 45 -14q22 0 43 14l2 2q24 21 31 41q11 29 39 29h102q20 0 33 -15.5t10 -35.5q-19 -108 -115 -173h-2
q-67 -45 -145 -45q-76 0 -143 45l-160 105q-17 14 -43 14q-25 0 -45 -14l-4 -2q-22 -16 -31 -39q-10 -27 -39 -27h-100z" />
    <glyph glyph-name="Umacron" unicode="&#x16a;" horiz-adv-x="1468" 
d="M41 1358q0 31 21 52.5t53 21.5h243q32 0 53 -21.5t21 -52.5v-817q0 -61 43 -104.5t105 -43.5h305q61 0 104 43t43 105v817q0 31 21.5 52.5t52.5 21.5h246q32 0 53.5 -21.5t21.5 -52.5v-914q0 -186 -130 -315t-316 -129h-498q-185 0 -313.5 129t-128.5 315v914zM418 1876
h631q34 0 57.5 -24t23.5 -58v-149q0 -34 -23.5 -58t-57.5 -24h-631q-34 0 -59 24t-25 58v149q0 34 25 58t59 24z" />
    <glyph glyph-name="umacron" unicode="&#x16b;" horiz-adv-x="1179" 
d="M41 375v536q0 31 21.5 51.5t52.5 20.5h202q32 0 54 -21t22 -53v-403q0 -77 55 -126.5t136 -49.5t136 48t56 128v403q0 32 21 53t53 21h217q31 0 51.5 -21t20.5 -53v-833q0 -32 -20.5 -54t-51.5 -22h-217q-32 0 -53 22t-21 54v22q0 6 -6 9t-12 -1q-59 -52 -126 -77
t-177 -25q-59 0 -113 9.5t-110 35.5t-97.5 66t-67.5 107t-26 153zM193 1200v150q0 34 23.5 58t57.5 24h631q34 0 58 -24t24 -58v-150q0 -34 -24 -58t-58 -24h-631q-34 0 -57.5 24t-23.5 58z" />
    <glyph glyph-name="Ubreve" unicode="&#x16c;" horiz-adv-x="1468" 
d="M41 444v912q0 31 22 53.5t54 22.5h241q32 0 53 -22.5t21 -53.5v-815q0 -61 44 -105.5t106 -44.5h303q61 0 104 44t43 106v815q0 31 21.5 53.5t52.5 22.5h246q32 0 53.5 -22.5t21.5 -53.5v-912q0 -186 -130 -315t-316 -129h-498q-185 0 -313.5 129t-128.5 315zM406 1823
q-5 23 10.5 41t40.5 18h123q36 0 49 -37q11 -33 40.5 -54.5t65.5 -21.5t66 21.5t41 54.5q13 37 49 37h125q25 0 40.5 -18t10.5 -41q-22 -119 -115 -198t-217 -79q-123 0 -215 78.5t-114 198.5z" />
    <glyph glyph-name="ubreve" unicode="&#x16d;" 
d="M41 375v536q0 30 22.5 51t53.5 21h202q32 0 54 -21t22 -53v-403q0 -77 55 -126.5t136 -49.5t136 48t56 128v403q0 32 21 53t53 21h217q31 0 51.5 -21t20.5 -53v-835q0 -32 -20.5 -53t-51.5 -21h-217q-32 0 -53 21t-21 53v22q0 6 -6 10t-12 0q-59 -52 -126 -77t-177 -25
q-59 0 -113 9.5t-110.5 35.5t-98 66t-68 107t-26.5 153zM262 1374q-5 23 10.5 41.5t40.5 18.5h123q36 0 49 -37q11 -33 41 -54.5t66 -21.5t65.5 21.5t40.5 54.5q13 37 50 37h124q25 0 41 -18.5t11 -41.5q-22 -119 -115 -197.5t-217 -78.5q-123 0 -215.5 78t-114.5 198z" />
    <glyph glyph-name="Uring" unicode="&#x16e;" horiz-adv-x="1468" 
d="M41 1358q0 31 22 52.5t54 21.5h241q32 0 54 -21.5t22 -52.5v-817q0 -61 43 -104.5t105 -43.5h305q61 0 104 43t43 105v817q0 31 21.5 52.5t52.5 21.5h246q32 0 52.5 -21.5t20.5 -52.5v-914q0 -186 -130 -315t-316 -129h-498q-185 0 -313.5 129t-128.5 315v914zM733 1927
q86 0 147.5 -61.5t61.5 -147.5t-61.5 -147.5t-147.5 -61.5t-147.5 61.5t-61.5 147.5t61.5 147.5t147.5 61.5zM733 1649q29 0 49.5 20t20.5 49t-20.5 49.5t-49.5 20.5t-49 -20.5t-20 -49.5t20 -49t49 -20z" />
    <glyph glyph-name="uring" unicode="&#x16f;" 
d="M41 911q0 30 22.5 51t53.5 21h202q32 0 53 -21t21 -53v-403q0 -77 56 -126.5t137 -49.5t135 48t55 128v403q0 32 22 53t54 21h215q31 0 52.5 -21t21.5 -53v-833q0 -32 -21.5 -54t-52.5 -22h-215q-32 0 -54 22t-22 54v22q0 6 -5 9t-11 -1q-59 -52 -126 -77t-177 -25
q-59 0 -113 9.5t-110.5 35.5t-98 66t-68 107t-26.5 153v536zM383 1274q0 86 61.5 147.5t147.5 61.5t147.5 -61.5t61.5 -147.5t-61.5 -147.5t-147.5 -61.5t-147.5 61.5t-61.5 147.5zM522 1274q0 -29 20.5 -49.5t49.5 -20.5t49.5 20.5t20.5 49.5t-20.5 50.5t-49.5 21.5
t-49.5 -21.5t-20.5 -50.5z" />
    <glyph glyph-name="Uhungarumlaut" unicode="&#x170;" horiz-adv-x="1468" 
d="M41 444v914q0 31 22 52.5t54 21.5h241q32 0 54 -21.5t22 -52.5v-817q0 -61 43 -104.5t105 -43.5h303q62 0 105.5 43.5t43.5 104.5v817q0 31 20.5 52.5t51.5 21.5h246q32 0 53.5 -21.5t21.5 -52.5v-914q0 -186 -130 -315t-316 -129h-498q-185 0 -313.5 129t-128.5 315z
M481 1528q-23 0 -37.5 17.5t-11.5 39.5l35 248q3 19 16.5 31t32.5 12h176q31 0 44.5 -26.5t-3.5 -51.5l-178 -250q-17 -20 -39 -20h-35zM827 1585l37 248q3 19 16.5 31t32.5 12h174q31 0 44.5 -26.5t-3.5 -51.5l-176 -250q-17 -20 -41 -20h-34q-23 0 -38 17.5t-12 39.5z" />
    <glyph glyph-name="uhungarumlaut" unicode="&#x171;" 
d="M41 375v536q0 30 22.5 51t53.5 21h200q32 0 54 -21t22 -53v-403q0 -77 56 -126.5t137 -49.5t135 48t55 128v403q0 32 22 53t54 21h215q31 0 52.5 -21t21.5 -53v-833q0 -32 -21.5 -54t-52.5 -22h-215q-32 0 -54 22t-22 54v22q0 6 -6 9t-12 -1q-60 -52 -126 -77t-175 -25
q-59 0 -113 9.5t-110.5 35.5t-98 66t-68 107t-26.5 153zM338 1083q-23 0 -37.5 18t-11.5 40l37 250q7 41 47 41h176q31 0 44.5 -26.5t-3.5 -51.5l-176 -250q-18 -21 -41 -21h-35zM686 1141l35 250q3 19 16.5 30t32.5 11h176q31 0 43.5 -26.5t-4.5 -51.5l-176 -250
q-17 -21 -41 -21h-33q-23 0 -37.5 18t-11.5 40z" />
    <glyph glyph-name="Uogonek" unicode="&#x172;" horiz-adv-x="1468" 
d="M41 444v914q0 31 22 52.5t54 21.5h241q32 0 53 -21.5t21 -52.5v-817q0 -61 44 -104.5t106 -43.5h303q61 0 104 43t43 105v817q0 31 21.5 52.5t52.5 21.5h246q32 0 53.5 -21.5t21.5 -52.5v-914q0 -129 -71 -239q0 -1 -1 -2t-1 -2q-8 -13 -29 -39q-168 -225 -145 -316
q14 -47 73 -47q36 0 79 19t73 47q6 6 14 2.5t8 -12.5v-129q0 -44 -27 -78t-68.5 -53.5t-85 -29t-83.5 -9.5q-86 0 -149 32t-94 80.5t-44 105.5t-6 108t27 87q3 7 11 17t10 14h-435q-185 0 -313.5 129t-128.5 315z" />
    <glyph glyph-name="uogonek" unicode="&#x173;" 
d="M455 4q-59 0 -113 9.5t-110 35.5t-97.5 66t-67.5 107t-26 153v534q0 31 21.5 52.5t52.5 21.5h202q31 0 53.5 -21.5t22.5 -52.5v-403q0 -77 55 -126.5t136 -49.5t136 48t56 128v403q0 31 21.5 52.5t52.5 21.5h217q31 0 52.5 -21t21.5 -53v-833q0 -30 -21 -52t-51 -24
q-49 1 -97 -20t-75.5 -57t-17.5 -73q14 -49 82 -49q40 0 84.5 18t72.5 46q6 6 14.5 2.5t8.5 -12.5v-129q0 -56 -47.5 -97t-105 -57t-111.5 -16q-86 0 -146 26.5t-86.5 67t-35 90t1 95t30.5 81.5q43 72 92 102q43 25 43 74v6q0 6 -6 9t-12 -1q-59 -52 -126 -77t-177 -25z" />
    <glyph glyph-name="Wcircumflex" unicode="&#x174;" horiz-adv-x="2103" 
d="M45 1362q-9 25 7 47.5t42 22.5h228q28 0 50 -16t31 -42l244 -674q1 -6 8 -6t9 6l184 668q8 28 31.5 46t52.5 18h242q29 0 51 -18t30 -46l185 -668q2 -6 8 -6t8 6l242 674q9 26 31.5 42t50.5 16h231q26 0 42 -22.5t7 -47.5l-463 -1305q-20 -57 -79 -57h-191
q-29 0 -53 17.5t-31 45.5l-182 674q-1 6 -8 6t-9 -6l-182 -674q-7 -28 -31 -45.5t-53 -17.5h-190q-28 0 -50.5 15.5t-31.5 41.5zM760 1507q-11 0 -17 8.5t-2 18.5l142 328q9 18 32 18h275q25 0 31 -18l141 -328q4 -10 -2 -18.5t-17 -8.5h-180q-22 0 -28 19l-80 168
q-4 4 -8 0l-78 -168q-6 -19 -31 -19h-178z" />
    <glyph glyph-name="wcircumflex" unicode="&#x175;" horiz-adv-x="1742" 
d="M43 915q-8 25 7.5 46.5t41.5 21.5h221q28 0 50.5 -16.5t31.5 -42.5l131 -406q2 -6 9 -6t8 6l131 406q9 26 31.5 42.5t50.5 16.5h229q28 0 50.5 -16.5t31.5 -42.5l131 -406q2 -6 10 -6t9 6l131 406q9 26 31.5 42.5t50.5 16.5h221q26 0 41.5 -21.5t7.5 -46.5l-277 -856
q-9 -26 -31.5 -42.5t-50.5 -16.5h-292q-17 0 -31 10t-19 25l-120 375q-1 6 -8 6t-9 -6l-121 -375q-5 -15 -18.5 -25t-30.5 -10h-291q-28 0 -50.5 16.5t-31.5 42.5zM580 1059q-11 0 -17 8t-2 18l141 328q10 19 33 19h275q24 0 30 -19l142 -328q4 -10 -2 -18t-17 -8h-180
q-23 0 -29 18l-80 168q-4 4 -8 0l-78 -168q-6 -18 -30 -18h-178z" />
    <glyph glyph-name="Ycircumflex" unicode="&#x176;" horiz-adv-x="1638" 
d="M45 1378q-10 17 0.5 35.5t30.5 18.5h336q45 0 71 -41l328 -523q3 -4 8 -4t8 4l328 523q26 41 74 41h334q20 0 29.5 -18.5t-1.5 -35.5l-549 -878h2v-414q0 -35 -25.5 -60.5t-60.5 -25.5h-276q-35 0 -61.5 25.5t-26.5 60.5v414h2zM528 1507q-11 0 -16.5 8.5t-1.5 18.5
l141 328q9 18 33 18h274q25 0 31 -18l141 -328q4 -10 -1.5 -18.5t-16.5 -8.5h-180q-23 0 -29 19l-80 168q-4 4 -8 0l-78 -168q-6 -19 -30 -19h-179z" />
    <glyph glyph-name="ycircumflex" unicode="&#x177;" horiz-adv-x="1230" 
d="M45 918q-9 23 5 44t40 21h270q24 0 43.5 -13t26.5 -34l174 -479q3 -6 10.5 -6t10.5 6l180 479q6 21 24.5 34t42.5 13h269q26 0 40.5 -20.5t6.5 -44.5l-488 -1313q-8 -22 -27 -35.5t-42 -13.5h-230q-38 0 -60 31.5t-9 68.5l129 344h-23q-23 0 -42 13.5t-27 35.5zM334 1059
q-11 0 -17 8t-2 18l142 328q9 19 32 19h275q25 0 31 -19l141 -328q4 -10 -1.5 -18t-16.5 -8h-181q-22 0 -28 18l-80 168q-4 4 -8 0l-78 -168q-6 -18 -31 -18h-178z" />
    <glyph glyph-name="Ydieresis" unicode="&#x178;" horiz-adv-x="1638" 
d="M47 1378q-11 17 -1 35.5t30 18.5h334q47 0 73 -41l328 -523q3 -4 8 -4t8 4l328 523q26 41 74 41h334q20 0 29.5 -18t0.5 -36l-551 -878h2v-414q0 -35 -26.5 -60.5t-61.5 -25.5h-276q-35 0 -60.5 25.5t-25.5 60.5v414h2zM422 1636v166q0 31 21.5 52.5t52.5 21.5h168
q32 0 52.5 -21.5t20.5 -52.5v-166q0 -32 -20.5 -52.5t-52.5 -20.5h-168q-31 0 -52.5 20.5t-21.5 52.5zM901 1802q0 31 21.5 52.5t52.5 21.5h166q32 0 54 -21.5t22 -52.5v-166q0 -32 -21.5 -52.5t-54.5 -20.5h-166q-31 0 -52.5 20.5t-21.5 52.5v166z" />
    <glyph glyph-name="Zacute" unicode="&#x179;" horiz-adv-x="1468" 
d="M117 0q-31 0 -53.5 22.5t-22.5 53.5v176q0 75 55 127l760 706q4 5 2 10t-8 5h-733q-32 0 -54 21.5t-22 52.5v184q0 31 22.5 52.5t53.5 21.5h1237q31 0 52 -21.5t21 -52.5v-178q0 -75 -55 -127l-760 -705q-4 -4 -2 -9t8 -5h736q73 0 73 -58v-200q0 -31 -21.5 -53.5
t-51.5 -22.5h-1237zM631 1585l35 248q3 19 16.5 31t32.5 12h176q31 0 44.5 -26.5t-3.5 -51.5l-178 -250q-17 -20 -39 -20h-35q-23 0 -37.5 17.5t-11.5 39.5z" />
    <glyph glyph-name="zacute" unicode="&#x17a;" 
d="M117 0q-32 0 -54 22t-22 54v198q0 43 37 62l454 313q6 5 3.5 12t-9.5 7h-409q-32 0 -54 21.5t-22 51.5v168q0 32 22 53t54 21h950q31 0 52.5 -21t21.5 -53v-198q0 -46 -35 -64l-457 -313q-6 -3 -3 -11t9 -8h412q31 0 52.5 -21t21.5 -52v-166q0 -32 -21.5 -54t-52.5 -22
h-950zM487 1141l37 250q7 41 47 41h177q31 0 44 -26.5t-4 -51.5l-176 -250q-18 -21 -41 -21h-34q-23 0 -38 18t-12 40z" />
    <glyph glyph-name="Zdotaccent" unicode="&#x17b;" horiz-adv-x="1468" 
d="M41 1174v184q0 31 22.5 52.5t53.5 21.5h1235q31 0 53 -21.5t22 -52.5v-178q0 -75 -55 -127l-760 -705q-4 -4 -2 -9t8 -5h734q75 0 75 -58v-200q0 -31 -22 -53.5t-53 -22.5h-1235q-31 0 -53.5 22.5t-22.5 53.5v176q0 75 55 127l760 706q4 5 2 10t-8 5h-733q-32 0 -54 21.5
t-22 52.5zM649 1876h168q32 0 53 -21.5t21 -52.5v-166q0 -32 -21 -52.5t-53 -20.5h-168q-31 0 -52.5 20.5t-21.5 52.5v166q0 31 21.5 52.5t52.5 21.5z" />
    <glyph glyph-name="zdotaccent" unicode="&#x17c;" 
d="M41 76v198q0 43 37 62l454 313q6 5 3.5 12t-9.5 7h-409q-32 0 -54 21.5t-22 51.5v168q0 32 22 53t54 21h950q31 0 52.5 -21t21.5 -53v-198q0 -46 -35 -64l-457 -313q-6 -3 -3 -11t9 -8h412q31 0 52.5 -21t21.5 -52v-166q0 -32 -21.5 -54t-52.5 -22h-950q-32 0 -54 22
t-22 54zM432 1192v166q0 31 22.5 52.5t53.5 21.5h166q32 0 54 -21.5t22 -52.5v-166q0 -32 -22 -53t-54 -21h-166q-31 0 -53.5 21t-22.5 53z" />
    <glyph glyph-name="Zcaron" unicode="&#x17d;" horiz-adv-x="1468" 
d="M115 0q-31 0 -52.5 22.5t-21.5 53.5v176q0 75 55 127l760 706q4 5 2 10t-8 5h-735q-32 0 -53 21.5t-21 52.5v184q0 31 21.5 52.5t52.5 21.5h1237q31 0 53 -21.5t22 -52.5v-178q0 -75 -55 -127l-760 -705q-5 -4 -3.5 -9t7.5 -5h736q75 0 75 -58v-200q0 -31 -22 -53.5
t-53 -22.5h-1237zM440 1876h178q25 0 31 -18l80 -168q4 -4 8 0l78 168q6 18 31 18h178q11 0 17.5 -8.5t2.5 -18.5l-143 -327q-6 -19 -29 -19h-278q-22 0 -31 19l-143 327q-4 10 2.5 18.5t17.5 8.5z" />
    <glyph glyph-name="zcaron" unicode="&#x17e;" 
d="M41 76v198q0 43 37 62l454 313q6 5 3.5 12t-9.5 7h-411q-32 0 -53 21.5t-21 51.5v168q0 32 21 53t53 21h952q31 0 52.5 -21t21.5 -53v-198q0 -46 -35 -64l-457 -313q-6 -3 -4 -11t8 -8h414q31 0 52.5 -21t21.5 -52v-166q0 -32 -21.5 -54t-52.5 -22h-952q-32 0 -53 22
t-21 54zM279 1405q-4 10 1.5 18.5t16.5 8.5h180q23 0 29 -19l80 -168q4 -4 8 0l80 168q6 19 31 19h178q11 0 16.5 -8.5t1.5 -18.5l-141 -328q-6 -18 -31 -18h-276q-22 0 -31 18z" />
    <glyph glyph-name="longs" unicode="&#x17f;" horiz-adv-x="856" 
d="M117 0q-32 0 -54 21.5t-22 52.5l2 1007q0 145 102.5 248t245.5 103h350q31 0 52.5 -21.5t21.5 -52.5v-170q0 -31 -21.5 -53.5t-52.5 -22.5h-239q-40 0 -68 -28.5t-28 -69.5v-940q0 -31 -21.5 -52.5t-52.5 -21.5h-215z" />
    <glyph glyph-name="florin" unicode="&#x192;" horiz-adv-x="1126" 
d="M41 -201q0 31 21.5 53.5t52.5 22.5h96q40 0 69 28.5t29 69.5v656q0 15 -12 27t-27 12h-71q-31 0 -52.5 22t-21.5 51v168q0 32 21.5 53t52.5 21h73q15 0 27 12t12 27v63q0 143 101 245t243 102h357q32 0 52.5 -21.5t20.5 -52.5v-170q0 -31 -21 -52.5t-52 -21.5h-240
q-40 0 -70 -28.5t-30 -69.5v-8q0 -9 8 -17t18 -8h168q31 0 53.5 -21.5t22.5 -52.5v-168q0 -30 -22 -51.5t-54 -21.5h-168q-10 0 -18 -8t-8 -17v-737q0 -145 -101 -247.5t-245 -102.5h-211q-32 0 -53 21t-21 52v170z" />
    <glyph glyph-name="uni0218" unicode="&#x218;" horiz-adv-x="1552" 
d="M451 578q-43 3 -92 16.5t-107 44t-103.5 74t-76.5 113.5t-31 155q0 229 96.5 340t313.5 111h690q144 0 245 -102t101 -247v-100q0 -20 -12.5 -31.5t-32.5 -11.5h-297q-19 0 -32 11.5t-13 31.5q0 40 -29 69t-70 29h-456q-40 0 -68 -28t-28 -68q0 -45 17.5 -66t78.5 -28
q49 -6 268.5 -18t288.5 -19q131 -12 193 -35q215 -79 216 -375q0 -68 -11 -125.5t-29.5 -100t-46.5 -76.5t-57 -56.5t-67 -39t-70.5 -25t-72.5 -13.5t-69 -6.5t-64 -1.5h-563q-161 0 -277 116t-116 279v54q0 19 12 32t31 13l297 -2q19 0 30 -12t11 -31q0 -41 29 -70t69 -29
h457q40 0 68 27t30 65q1 40 -25 66.5t-71 34.5q-29 4 -258 16.5t-297 18.5zM664 -705q-19 0 -32.5 13.5t-13.5 32.5v67q0 19 13.5 32t32.5 13q41 0 70.5 28.5t29.5 69.5v5h-72q-31 0 -52.5 21t-21.5 52v168q0 31 21.5 52.5t52.5 21.5h168q31 0 52.5 -21.5t21.5 -52.5v-233
q0 -110 -80 -189.5t-190 -79.5z" />
    <glyph glyph-name="uni0219" unicode="&#x219;" 
d="M289 387q-104 6 -176.5 77.5t-71.5 172.5v100q0 101 73.5 173.5t174.5 72.5h579q103 0 175.5 -72.5t72.5 -175.5v-41q0 -20 -14.5 -34.5t-34.5 -14.5h-250q-31 0 -45 31q-19 43 -70 43h-223q-31 0 -51.5 -21t-19.5 -53q0 -14 10.5 -24.5t25.5 -10.5l451 -32
q105 -9 175.5 -77t70.5 -169v-82q0 -103 -72 -176.5t-174 -73.5h-580q-102 0 -174.5 73t-72.5 175v16q0 20 15 34.5t34 14.5h252q14 0 27.5 -8t19.5 -20q16 -39 59 -39h232q31 0 51.5 20.5t19.5 52.5q0 14 -11 24.5t-26 10.5zM434 -659v67q0 19 13 32t32 13q42 0 71.5 28.5
t29.5 69.5v5h-72q-31 0 -52.5 21t-21.5 52v168q0 31 21.5 52.5t52.5 21.5h168q31 0 52.5 -21.5t21.5 -52.5v-233q0 -110 -80.5 -189.5t-190.5 -79.5q-19 0 -32 13.5t-13 32.5z" />
    <glyph glyph-name="uni021A" unicode="&#x21a;" horiz-adv-x="1468" 
d="M41 1358q0 32 22 53t54 21h1237q32 0 52.5 -21t20.5 -53v-203q0 -31 -20.5 -52.5t-52.5 -21.5h-391q-9 0 -16 -7t-7 -17v-981q0 -32 -22 -54t-54 -22h-262q-32 0 -53 22t-21 54v981q0 10 -7.5 17t-16.5 7h-387q-32 0 -54 21.5t-22 52.5v203zM575 -592q0 18 14.5 31.5
t33.5 13.5q41 0 69.5 28.5t28.5 69.5v5h-72q-31 0 -52.5 21t-21.5 52v168q0 31 21.5 52.5t52.5 21.5h168q31 0 52.5 -21.5t21.5 -52.5v-233q0 -110 -79 -189.5t-189 -79.5q-19 0 -33.5 13.5t-14.5 32.5v67z" />
    <glyph glyph-name="uni021B" unicode="&#x21b;" horiz-adv-x="1226" 
d="M41 909q0 32 21.5 53t52.5 21h90q10 0 17 8t7 17v131q0 32 21.5 53.5t52.5 21.5h215q32 0 53 -21.5t21 -53.5v-131q0 -9 6.5 -17t15.5 -8h496q32 0 54 -21t22 -53v-168q0 -30 -22 -51.5t-54 -21.5h-496q-9 0 -15.5 -8t-6.5 -17v-278q0 -19 14.5 -34.5t34.5 -15.5h72
q34 0 61 18.5t39 49.5q0 4 4 8q13 33 47 33h271q22 0 36.5 -14.5t14.5 -36.5v-66q0 -127 -89.5 -217t-215.5 -90h-404q-102 0 -175 73t-73 175v420h-114q-31 0 -52.5 22t-21.5 51v168zM457 -659v67q0 19 14 32t33 13q41 0 68.5 28.5t27.5 69.5v5h-70q-31 0 -52 21t-21 52
v168q0 31 21 52.5t52 21.5h166q31 0 52.5 -21.5t21.5 -52.5v-233q0 -110 -78.5 -189.5t-187.5 -79.5q-19 0 -33 13.5t-14 32.5z" />
    <glyph glyph-name="uni0237" unicode="&#x237;" horiz-adv-x="720" 
d="M41 -147q0 31 21 51t53 20h57q41 0 69.5 29.5t28.5 71.5v884q0 32 21.5 53t52.5 21h262q32 0 53 -21t21 -53v-1007q0 -143 -100 -244.5t-242 -101.5h-223q-32 0 -53 20.5t-21 52.5v224z" />
    <glyph glyph-name="circumflex" unicode="&#x2c6;" horiz-adv-x="706" 
d="M61 1059q-11 0 -16.5 8t-1.5 18l141 328q10 19 33 19h275q24 0 30 -19l142 -328q4 -10 -2 -18t-17 -8h-180q-23 0 -29 18l-80 168q-4 4 -8 0l-78 -168q-6 -18 -30 -18h-179z" />
    <glyph glyph-name="caron" unicode="&#x2c7;" horiz-adv-x="706" 
d="M43 1405q-4 10 1.5 18.5t16.5 8.5h179q24 0 30 -19l78 -168q4 -4 8 0l80 168q6 19 31 19h178q11 0 17 -8.5t2 -18.5l-142 -328q-6 -18 -30 -18h-275q-24 0 -33 18z" />
    <glyph glyph-name="uni02C9" unicode="&#x2c9;" horiz-adv-x="876" 
d="M41 1352q0 34 24 58t58 24h631q34 0 58 -24t24 -58v-150q0 -34 -24 -58t-58 -24h-631q-34 0 -58 24t-24 58v150z" />
    <glyph glyph-name="breve" unicode="&#x2d8;" horiz-adv-x="745" 
d="M43 1374q-5 23 10.5 41.5t40.5 18.5h123q36 0 49 -37q11 -33 41 -54.5t66 -21.5t65.5 21.5t40.5 54.5q13 37 49 37h125q25 0 41 -18.5t11 -41.5q-22 -119 -115 -197.5t-217 -78.5q-123 0 -215.5 78t-114.5 198z" />
    <glyph glyph-name="dotaccent" unicode="&#x2d9;" horiz-adv-x="397" 
d="M41 1360q0 31 22.5 52.5t53.5 21.5h166q32 0 52.5 -21.5t20.5 -52.5v-166q0 -32 -20.5 -53t-52.5 -21h-166q-31 0 -53.5 21t-22.5 53v166z" />
    <glyph glyph-name="ring" unicode="&#x2da;" horiz-adv-x="499" 
d="M250 1065q-86 0 -147.5 61.5t-61.5 147.5t61.5 147.5t147.5 61.5t147.5 -61.5t61.5 -147.5t-61.5 -147.5t-147.5 -61.5zM180 1274q0 -29 20.5 -49.5t49.5 -20.5t49 20.5t20 49.5t-20 49t-49 20t-49.5 -20t-20.5 -49z" />
    <glyph glyph-name="ogonek" unicode="&#x2db;" horiz-adv-x="626" 
d="M322 0q-86 0 -147 28.5t-89.5 72.5t-38.5 96t-2 100t29 84q84 146 223 160l160 16q1 -8 4 -21t18 -43.5t37 -48.5q-77 2 -140.5 -45t-49.5 -104q14 -49 82 -49q40 0 85 18t72 45q6 6 13.5 2.5t7.5 -12.5v-129q0 -44 -27 -78t-68.5 -53.5t-85 -29t-83.5 -9.5z" />
    <glyph glyph-name="tilde" unicode="&#x2dc;" horiz-adv-x="954" 
d="M76 1167q-20 0 -33.5 16t-9.5 36q22 108 112 167l2 3q65 45 146 45q83 0 145 -45l160 -107q25 -14 45 -14q22 0 43 14l2 2q24 21 31 41q11 29 39 29h102q20 0 33 -15.5t10 -35.5q-19 -108 -115 -173h-2q-67 -45 -145 -45q-76 0 -143 45l-160 105q-17 14 -43 14
q-25 0 -45 -14l-4 -2q-22 -16 -31 -39q-10 -27 -39 -27h-100z" />
    <glyph glyph-name="hungarumlaut" unicode="&#x2dd;" horiz-adv-x="786" 
d="M72 1085q-23 0 -37.5 18t-11.5 40l34 248q3 19 16.5 31t32.5 12h177q31 0 44.5 -26.5t-3.5 -51.5l-179 -250q-17 -21 -39 -21h-34zM467 1085q-23 0 -37.5 18t-11.5 40l37 248q3 19 16 31t31 12h176q31 0 44.5 -26.5t-3.5 -51.5l-176 -250q-17 -21 -41 -21h-35z" />
    <glyph glyph-name="uni0326" unicode="&#x326;" horiz-adv-x="395" 
d="M41 -659v67q0 19 14 32t33 13q41 0 68.5 28.5t27.5 69.5v5h-69q-31 0 -52.5 21t-21.5 52v168q0 31 21.5 52.5t52.5 21.5h166q31 0 52 -21.5t21 -52.5v-233q0 -110 -78.5 -189.5t-187.5 -79.5q-19 0 -33 13.5t-14 32.5z" />
    <glyph glyph-name="uni0394" unicode="&#x394;" horiz-adv-x="1589" 
d="M90 0q-26 0 -40.5 21.5t-6.5 46.5l467 1314q8 22 27.5 36t42.5 14h428q23 0 42 -14t27 -36l469 -1314q8 -25 -6.5 -46.5t-40.5 -21.5h-1409zM571 377h445l-213 608q-3 7 -9.5 7t-9.5 -7z" />
    <glyph glyph-name="uni03A9" unicode="&#x3a9;" horiz-adv-x="1476" 
d="M115 0q-29 0 -51.5 21.5t-22.5 50.5v243q0 29 22.5 51.5t51.5 22.5h69q9 0 13 8.5t-2 14.5q-62 67 -92.5 159.5t-30.5 239.5q0 131 47.5 245.5t132.5 197.5t210.5 130.5t274.5 47.5q301 0 483.5 -172t182.5 -449q0 -138 -37.5 -232t-103.5 -167q-2 -2 -2 -9q0 -12 12 -12
h92q29 0 50.5 -22.5t21.5 -51.5v-245q0 -29 -21.5 -50.5t-50.5 -21.5h-457q-29 0 -50 21.5t-21 50.5v295q0 29 28 43q125 66 125 290q0 70 -6 122.5t-22.5 101.5t-45 79.5t-75.5 49t-111 18.5t-111.5 -20t-75.5 -52.5t-45.5 -82t-23.5 -100.5t-6 -116q0 -221 127 -290
q12 -6 20.5 -19t8.5 -26v-293q0 -29 -21.5 -50.5t-50.5 -21.5h-436z" />
    <glyph glyph-name="uni03BC" unicode="&#x3bc;" 
d="M41 -289v1202q0 31 21.5 51.5t52.5 20.5h204q32 0 53 -21t21 -53v-403q0 -77 55.5 -127.5t137.5 -50.5q83 0 136 48.5t54 129.5v403q0 32 22 53t54 21h217q31 0 51.5 -21t20.5 -53v-835q0 -32 -20.5 -54t-51.5 -22h-217q-32 0 -54 22t-22 54v22q0 6 -5 9t-11 -1
q-59 -52 -126 -77t-177 -25q-24 0 -64 4v-297q0 -65 -44.5 -110t-108.5 -45h-45q-64 0 -109 45t-45 110z" />
    <glyph glyph-name="pi" unicode="&#x3c0;" horiz-adv-x="1468" 
d="M41 737v170q0 31 21.5 52.5t50.5 21.5h1239q32 0 53.5 -21.5t21.5 -52.5v-170q0 -28 -21.5 -49.5t-53.5 -21.5h-113v-236q0 -47 34 -81t81 -34q29 0 49 -20t20 -49v-168q0 -32 -22.5 -55t-54.5 -23h-127q-144 0 -245.5 101.5t-101.5 244.5v320h-258q-9 0 -16.5 -8
t-7.5 -17v-567q0 -31 -21.5 -52.5t-52.5 -21.5h-217q-29 0 -50.5 21.5t-21.5 52.5v592h-114q-29 0 -50.5 21.5t-21.5 49.5z" />
    <glyph glyph-name="Wgrave" unicode="&#x1e80;" horiz-adv-x="2103" 
d="M2009 1432q26 0 42 -22.5t7 -47.5l-463 -1305q-20 -57 -79 -57h-191q-29 0 -53 17.5t-31 45.5l-182 674q-1 6 -8 6t-9 -6l-182 -674q-7 -28 -31 -45.5t-53 -17.5h-190q-28 0 -50.5 15.5t-31.5 41.5l-10 31l-451 1274q-9 25 7 47.5t42 22.5h227q28 0 50.5 -16t31.5 -42
l244 -674q1 -6 8 -6t9 6l184 668q8 28 31.5 46t52.5 18h241q29 0 51.5 -18t30.5 -46l185 -668q2 -6 8 -6t8 6l242 674q9 26 31.5 42t50.5 16h231zM1112 1534h-35q-24 0 -41 20l-176 250q-17 25 -4.5 51.5t43.5 26.5h176q19 0 32.5 -12t16.5 -31l35 -250q3 -22 -10.5 -38.5
t-36.5 -16.5z" />
    <glyph glyph-name="wgrave" unicode="&#x1e81;" horiz-adv-x="1742" 
d="M1348 924q9 26 31.5 42.5t50.5 16.5h221q26 0 41.5 -21.5t7.5 -46.5l-277 -856q-9 -26 -31.5 -42.5t-50.5 -16.5h-292q-17 0 -31 10t-19 25l-120 375q-1 6 -8 6t-9 -6l-121 -375q-5 -15 -18.5 -25t-30.5 -10h-291q-28 0 -50.5 16.5t-31.5 42.5l-276 856q-8 25 7.5 46.5
t41.5 21.5h221q28 0 50.5 -16.5t31.5 -42.5l131 -406q2 -6 9 -6t8 6l131 406q9 26 31.5 42.5t50.5 16.5h229q28 0 50.5 -16.5t31.5 -42.5l131 -406q2 -6 10 -6t9 6zM918 1085h-35q-23 0 -41 21l-176 250q-17 25 -4.5 51.5t43.5 26.5h176q19 0 32.5 -12t16.5 -31l35 -250
q3 -22 -10.5 -39t-36.5 -17z" />
    <glyph glyph-name="Wacute" unicode="&#x1e82;" horiz-adv-x="2103" 
d="M45 1362q-9 25 7 47.5t42 22.5h228q28 0 50 -16t31 -42l244 -674q1 -6 8 -6t9 6l184 668q8 28 31.5 46t52.5 18h242q29 0 51 -18t30 -46l185 -668q2 -6 8 -6t8 6l242 674q9 26 31.5 42t50.5 16h231q26 0 42 -22.5t7 -47.5l-463 -1305q-20 -57 -79 -57h-191
q-29 0 -53 17.5t-31 45.5l-182 674q-1 6 -8 6t-9 -6l-182 -674q-7 -28 -31 -45.5t-53 -17.5h-190q-28 0 -50.5 15.5t-31.5 41.5zM1008 1534q-23 0 -38 17.5t-12 39.5l37 248q3 19 16 31t31 12h177q31 0 44.5 -26.5t-3.5 -51.5l-177 -250q-17 -20 -41 -20h-34z" />
    <glyph glyph-name="wacute" unicode="&#x1e83;" horiz-adv-x="1742" 
d="M43 915q-8 25 7.5 46.5t41.5 21.5h221q28 0 50.5 -16.5t31.5 -42.5l131 -406q2 -6 9 -6t8 6l131 406q9 26 31.5 42.5t50.5 16.5h229q28 0 50.5 -16.5t31.5 -42.5l131 -406q2 -6 10 -6t9 6l131 406q9 26 31.5 42.5t50.5 16.5h221q26 0 41.5 -21.5t7.5 -46.5l-277 -856
q-9 -26 -31.5 -42.5t-50.5 -16.5h-292q-17 0 -31 10t-19 25l-120 375q-1 6 -8 6t-9 -6l-121 -375q-5 -15 -18.5 -25t-30.5 -10h-291q-28 0 -50.5 16.5t-31.5 42.5zM827 1085q-23 0 -37.5 18t-11.5 40l37 248q3 19 16 31t31 12h176q31 0 44.5 -26.5t-3.5 -51.5l-176 -250
q-17 -21 -41 -21h-35z" />
    <glyph glyph-name="Wdieresis" unicode="&#x1e84;" horiz-adv-x="2103" 
d="M45 1362q-9 25 7 47.5t42 22.5h228q28 0 50 -16t31 -42l244 -674q1 -6 8 -6t9 6l184 668q8 28 31.5 46t52.5 18h242q29 0 51 -18t30 -46l185 -668q2 -6 8 -6t8 6l242 674q9 26 31.5 42t50.5 16h231q26 0 42 -22.5t7 -47.5l-463 -1305q-20 -57 -79 -57h-191
q-29 0 -53 17.5t-31 45.5l-182 674q-1 6 -8 6t-9 -6l-182 -674q-7 -28 -31 -45.5t-53 -17.5h-190q-28 0 -50.5 15.5t-31.5 41.5zM731 1565q-31 0 -53.5 21.5t-22.5 53.5v166q0 31 22.5 52.5t53.5 21.5h166q32 0 54 -21.5t22 -52.5v-166q0 -32 -22 -53.5t-54 -21.5h-166z
M1210 1565q-31 0 -53 21.5t-22 53.5v166q0 31 22 52.5t53 21.5h166q32 0 53 -21.5t21 -52.5v-166q0 -32 -21 -53.5t-53 -21.5h-166z" />
    <glyph glyph-name="wdieresis" unicode="&#x1e85;" horiz-adv-x="1742" 
d="M43 915q-8 25 7.5 46.5t41.5 21.5h221q28 0 50.5 -16.5t31.5 -42.5l131 -406q2 -6 9 -6t8 6l131 406q9 26 31.5 42.5t50.5 16.5h229q28 0 50.5 -16.5t31.5 -42.5l131 -406q2 -6 10 -6t9 6l131 406q9 26 31.5 42.5t50.5 16.5h221q26 0 41.5 -21.5t7.5 -46.5l-277 -856
q-9 -26 -31.5 -42.5t-50.5 -16.5h-292q-17 0 -31 10t-19 25l-120 375q-1 6 -8 6t-9 -6l-121 -375q-5 -15 -18.5 -25t-30.5 -10h-291q-28 0 -50.5 16.5t-31.5 42.5zM475 1192v166q0 31 22.5 52.5t53.5 21.5h166q32 0 54 -21.5t22 -52.5v-166q0 -32 -22 -54t-54 -22h-166
q-31 0 -53.5 22t-22.5 54zM954 1192v166q0 31 22.5 52.5t53.5 21.5h166q32 0 53 -21.5t21 -52.5v-166q0 -32 -21 -54t-53 -22h-166q-31 0 -53.5 22t-22.5 54z" />
    <glyph glyph-name="endash" unicode="&#x2013;" horiz-adv-x="1312" 
d="M41 596q0 29 21.5 50.5t52.5 21.5h1081q32 0 54 -21t22 -51v-168q0 -31 -22 -52.5t-54 -21.5h-1081q-31 0 -52.5 21.5t-21.5 52.5v168z" />
    <glyph glyph-name="emdash" unicode="&#x2014;" horiz-adv-x="1722" 
d="M41 596q0 30 22 51t54 21h1489q32 0 53.5 -21t21.5 -51v-168q0 -31 -21.5 -52.5t-53.5 -21.5h-1489q-32 0 -54 21.5t-22 52.5v168z" />
    <glyph glyph-name="quoteleft" unicode="&#x2018;" horiz-adv-x="395" 
d="M115 856q-31 0 -52.5 21.5t-21.5 52.5v231q0 112 78.5 190.5t189.5 78.5q19 0 32 -13.5t13 -32.5v-67q0 -19 -13 -32t-32 -13q-40 0 -69 -28.5t-29 -69.5v-3h70q31 0 52 -22t21 -53v-166q0 -31 -21 -52.5t-52 -21.5h-166z" />
    <glyph glyph-name="quoteright" unicode="&#x2019;" horiz-adv-x="397" 
d="M41 1190v166q0 31 21.5 52.5t52.5 21.5h166q31 0 53 -21.5t22 -52.5l-2 -232q0 -111 -78 -189.5t-190 -78.5q-19 0 -32 13t-13 32v68q0 19 13 32t32 13q41 0 70.5 28.5t29.5 69.5v4h-71q-31 0 -52.5 21.5t-21.5 52.5z" />
    <glyph glyph-name="quotesinglbase" unicode="&#x201a;" horiz-adv-x="395" 
d="M41 74v166q0 31 21.5 52t52.5 21h166q31 0 52 -21t21 -52v-232q0 -110 -79 -188t-189 -78q-19 0 -32 12.5t-13 32.5v66q0 19 13 32t32 13q41 0 69.5 29t28.5 69v4h-69q-31 0 -52.5 21.5t-21.5 52.5z" />
    <glyph glyph-name="quotedblleft" unicode="&#x201c;" horiz-adv-x="804" 
d="M453 930v231q0 112 78.5 190.5t189.5 78.5q19 0 32 -13.5t13 -32.5v-67q0 -19 -13 -32t-32 -13q-40 0 -69 -28.5t-29 -69.5v-3h69q31 0 52.5 -22t21.5 -53v-166q0 -31 -21.5 -52.5t-52.5 -21.5h-166q-31 0 -52 21.5t-21 52.5zM41 930v231q0 112 78.5 190.5t189.5 78.5
q19 0 32 -13.5t13 -32.5v-67q0 -19 -13 -32t-32 -13q-41 0 -69.5 -28.5t-28.5 -69.5v-3h70q31 0 52 -22t21 -53v-166q0 -31 -21 -52.5t-52 -21.5h-166q-31 0 -52.5 21.5t-21.5 52.5z" />
    <glyph glyph-name="quotedblright" unicode="&#x201d;" horiz-adv-x="806" 
d="M41 1190v166q0 31 21.5 52.5t52.5 21.5h166q31 0 53 -21.5t22 -52.5l-2 -232q0 -111 -78 -189.5t-190 -78.5q-19 0 -32 13t-13 32v68q0 19 13 32t32 13q41 0 70.5 28.5t29.5 69.5v4h-71q-31 0 -52.5 21.5t-21.5 52.5zM455 1356q0 31 21 52.5t52 21.5h166q31 0 52.5 -21.5
t21.5 -52.5v-232q0 -110 -79 -189t-189 -79q-19 0 -32 13t-13 32v68q0 19 13 32t32 13q40 0 69 28.5t29 69.5v4h-70q-31 0 -52 21.5t-21 52.5v166z" />
    <glyph glyph-name="quotedblbase" unicode="&#x201e;" horiz-adv-x="806" 
d="M453 238q0 31 21 52t52 21h166q31 0 53.5 -21.5t22.5 -51.5l-2 -232q0 -111 -78 -188.5t-190 -77.5q-19 0 -32 12.5t-13 32.5v65q0 19 13 32.5t32 13.5q41 0 70.5 29t29.5 69v4h-72q-31 0 -52 21.5t-21 52.5v166zM41 72v166q0 31 21.5 52t52.5 21h166q31 0 52 -21t21 -52
v-232q0 -110 -79 -188t-189 -78q-19 0 -32 12.5t-13 32.5v65q0 19 13 32.5t32 13.5q41 0 69.5 29t28.5 69v4h-69q-31 0 -52.5 21.5t-21.5 52.5z" />
    <glyph glyph-name="dagger" unicode="&#x2020;" horiz-adv-x="980" 
d="M41 1092q0 22 14.5 36.5t36.5 14.5h191q11 0 18.5 7.5t7.5 18.5v209q0 22 14.5 37t36.5 15h261q21 0 36 -15t15 -37v-209q0 -11 7 -18.5t17 -7.5h193q22 0 36.5 -14.5t14.5 -36.5v-215q0 -22 -14.5 -37t-36.5 -15h-193q-10 0 -17 -7.5t-7 -18.5v-750q0 -21 -15 -36
t-36 -15h-261q-22 0 -36.5 14.5t-14.5 36.5v750q0 11 -7.5 18.5t-18.5 7.5h-191q-22 0 -36.5 15t-14.5 37v215z" />
    <glyph glyph-name="daggerdbl" unicode="&#x2021;" horiz-adv-x="980" 
d="M92 825q-22 0 -36.5 15t-14.5 37v215q0 22 14.5 36.5t36.5 14.5h191q11 0 18.5 7.5t7.5 18.5v209q0 22 14.5 37t36.5 15h261q21 0 36 -15t15 -37v-209q0 -11 7 -18.5t17 -7.5h193q21 0 36 -15t15 -36v-215q0 -21 -15 -36.5t-36 -15.5h-193q-10 0 -17 -7.5t-7 -18.5v-121
q0 -11 7 -19t17 -8h193q21 0 36 -15t15 -36v-215q0 -21 -15 -36t-36 -15h-193q-10 0 -17 -8t-7 -17v-260q0 -21 -15 -36t-36 -15h-261q-22 0 -36.5 14.5t-14.5 36.5v260q0 9 -8 17t-18 8h-191q-22 0 -36.5 14.5t-14.5 36.5v215q0 22 14.5 36.5t36.5 14.5h191q10 0 18 8t8 19
v121q0 11 -7.5 18.5t-18.5 7.5h-191z" />
    <glyph glyph-name="bullet" unicode="&#x2022;" horiz-adv-x="483" 
d="M41 842q0 31 20.5 52t49.5 21h260q29 0 50 -21t21 -52v-258q0 -29 -21 -50.5t-50 -21.5h-260q-29 0 -49.5 21.5t-20.5 50.5v258z" />
    <glyph glyph-name="ellipsis" unicode="&#x2026;" horiz-adv-x="1286" 
d="M485 74v166q0 29 22.5 51t53.5 22h166q32 0 54 -21.5t22 -51.5v-166q0 -32 -22 -54t-54 -22h-166q-31 0 -53.5 22t-22.5 54zM41 74v166q0 29 22.5 51t53.5 22h166q31 0 53 -22t22 -51v-166q0 -32 -22 -54t-53 -22h-166q-31 0 -53.5 22t-22.5 54zM930 240q0 30 22 51.5
t52 21.5h165q32 0 54 -21.5t22 -51.5v-166q0 -32 -22 -54t-54 -22h-165q-31 0 -52.5 22t-21.5 54v166z" />
    <glyph glyph-name="perthousand" unicode="&#x2030;" horiz-adv-x="3094" 
d="M168 41l1352 1350q39 36 92 36h383q17 0 23 -15.5t-5 -27.5l-1354 -1349q-40 -37 -92 -37h-381q-17 0 -23.5 15.5t5.5 27.5zM285 737q-100 0 -172 71.5t-72 172.5v203q0 101 72 173.5t172 72.5h350q101 0 172.5 -72.5t71.5 -173.5v-203q0 -101 -71.5 -172.5t-172.5 -71.5
h-350zM1300 446q0 8 5 43q0 5 2 7v2q17 84 83.5 139t153.5 55h352q100 0 172 -72.5t72 -173.5v-204q0 -13 -4 -41v-8q-19 -84 -86 -139.5t-154 -55.5h-352q-100 0 -172 71.5t-72 172.5v204zM2218 446q0 29 4 43v9q19 84 85 139t151 55h354q100 0 171 -72.5t71 -173.5v-204
q0 -27 -2 -41q-3 -3 -3 -8q-17 -84 -83.5 -139.5t-153.5 -55.5h-354q-100 0 -170 71.5t-70 172.5v204zM1575 305q0 -29 21.5 -50.5t52.5 -21.5h145q29 0 50.5 21.5t21.5 50.5v78q0 31 -21.5 52.5t-50.5 21.5h-145q-31 0 -52.5 -21.5t-21.5 -52.5v-78zM387 1194
q-30 0 -51 -21t-21 -51v-80q0 -30 20.5 -50.5t51.5 -20.5h145q30 0 51 20.5t21 50.5v80q0 30 -21 51t-51 21h-145zM2562 457q-31 0 -51.5 -21.5t-20.5 -52.5v-78q0 -30 21 -51t51 -21h145q29 0 50.5 21.5t21.5 50.5v78q0 31 -21.5 52.5t-50.5 21.5h-145z" />
    <glyph glyph-name="guilsinglleft" unicode="&#x2039;" horiz-adv-x="403" 
d="M51 1294q-11 9 -11 22.5t11 20.5l277 281q10 9 22 3.5t12 -17.5v-152q0 -12 -8 -20l-108 -109q-4 -7 0 -14l108 -107q8 -8 8 -22v-150q0 -13 -12 -18t-22 4z" />
    <glyph glyph-name="guilsinglright" unicode="&#x203a;" horiz-adv-x="403" 
d="M41 1604q0 12 13 17.5t22 -3.5l278 -281q8 -7 8 -20t-8 -21l-278 -280q-9 -9 -22 -4t-13 18v150q0 10 8 22l109 109q3 1 3 6t-3 6l-109 109q-8 12 -8 20v152z" />
    <glyph glyph-name="fraction" unicode="&#x2044;" horiz-adv-x="1941" 
d="M68 -2q-17 0 -24 15.5t5 27.5l1354 1350q36 36 90 36h383q17 0 23.5 -15.5t-5.5 -27.5l-1353 -1349q-40 -37 -90 -37h-383z" />
    <glyph glyph-name="franc" unicode="&#x20a3;" horiz-adv-x="1566" 
d="M41 434q0 32 23 55t55 23h104v844q0 32 22 54t52 22h1153q31 0 53.5 -22t22.5 -54v-201q0 -31 -22.5 -52.5t-53.5 -21.5h-793q-9 0 -16.5 -7t-7.5 -17v-66q0 -10 7.5 -17t16.5 -7h768q31 0 52.5 -22t21.5 -54v-197q0 -32 -21.5 -54t-52.5 -22h-768q-9 0 -16.5 -7
t-7.5 -17v-82h270q32 0 55 -23t23 -55v-168q0 -32 -23 -55t-55 -23h-270v-114q0 -30 -22 -52t-52 -22h-262q-30 0 -52 22t-22 52v114h-104q-32 0 -55 23t-23 55v168z" />
    <glyph glyph-name="lira" unicode="&#x20a4;" horiz-adv-x="1378" 
d="M41 766v113q0 20 15.5 35.5t35.5 15.5h133v63q2 181 130 309t309 128h227q180 0 308 -129t128 -310v-61q0 -21 -14 -35t-35 -14h-295q-20 0 -34.5 13t-16.5 32q-2 45 -31.5 76.5t-73.5 31.5h-102q-43 0 -73.5 -30.5t-30.5 -73.5h184q21 0 36 -15t15 -36v-113
q0 -22 -14.5 -35.5t-36.5 -13.5h-184v-64h184q22 0 36.5 -14.5t14.5 -36.5v-113q0 -21 -15 -36t-36 -15h-189q-9 -39 -41 -64.5t-73 -25.5h762q29 0 51 -21.5t22 -50.5v-202q0 -31 -22 -52.5t-53 -21.5h-1139q-34 0 -58 24t-24 58v203q0 27 20 45t48 18q40 0 71.5 25.5
t42.5 64.5h-131q-20 0 -35.5 15.5t-15.5 35.5v113q0 21 15 36t36 15h133v64h-133q-21 0 -36 14t-15 35z" />
    <glyph glyph-name="peseta" unicode="&#x20a7;" horiz-adv-x="3792" 
d="M41 1356q0 32 22 54t54 22h821q19 0 48 -5.5t71.5 -21t84.5 -38.5t84.5 -62.5t74.5 -89t52.5 -121.5t20.5 -156t-19 -156t-49.5 -121t-71 -88.5t-81.5 -62.5t-84 -38t-74.5 -20.5t-56.5 -5.5h-463q-9 0 -16.5 -7.5t-7.5 -16.5v-346q0 -32 -21 -54t-53 -22h-260
q-32 0 -54 22t-22 54v1280zM1425 909q0 32 20.5 53t51.5 21h90q10 0 18.5 8t8.5 17v131q0 32 20.5 53.5t51.5 21.5h217q32 0 51.5 -21t19.5 -54v-131q0 -9 8 -17t17 -8h495q32 0 54 -21t22 -53v-170q0 -29 -22 -50t-54 -21h-495q-9 0 -17 -8t-8 -17v-278q0 -19 15.5 -35.5
t35.5 -16.5h97q34 0 62 19.5t40 50.5q0 6 2 8q13 33 49 33h242q22 0 37.5 -14.5t15.5 -36.5v-66q0 -127 -89.5 -217t-215.5 -90h-405q-102 0 -174 72t-72 174v422h-117q-31 0 -51.5 21t-20.5 50v170zM2898 387q-104 6 -175.5 77.5t-70.5 172.5v100q0 101 72.5 172.5
t173.5 71.5l580 2q103 0 175 -72.5t72 -175.5v-41q0 -20 -14.5 -34.5t-34.5 -14.5h-250q-32 0 -45 29q-20 45 -69 45h-224q-31 0 -51.5 -21t-19.5 -53q0 -14 11 -24.5t26 -10.5l450 -32q105 -9 176.5 -77.5t71.5 -168.5v-84q0 -103 -72.5 -175.5t-175.5 -72.5h-577
q-103 0 -176.5 72.5t-73.5 173.5v16q0 20 14.5 35.5t34.5 15.5h252q13 0 27 -9t20 -21q15 -37 59 -37h232q31 0 51.5 20.5t19.5 52.5q0 14 -10.5 24.5t-25.5 10.5zM451 1032v-188q0 -10 7.5 -17.5t16.5 -7.5h338q51 0 85.5 35t33.5 86q-1 49 -38 83t-87 34h-332
q-9 0 -16.5 -8t-7.5 -17z" />
    <glyph glyph-name="Euro" unicode="&#x20ac;" horiz-adv-x="1654" 
d="M41 633q0 19 14 33t33 14h139v74h-139q-19 0 -33 13t-14 32v139q0 19 14 33t33 14h139v2q0 185 130.5 315t314.5 130h495q185 0 316 -130.5t131 -314.5v-14q0 -28 -20 -47t-48 -19h-211q-28 0 -46.5 19t-18.5 47q0 47 -34 82t-81 35h-471q-44 0 -76 -30t-37 -75h439
q17 0 31 -14t14 -33v-139q0 -18 -13.5 -31.5t-31.5 -13.5h-441v-74h441q17 0 31 -14t14 -33v-139q0 -18 -13.5 -31.5t-31.5 -13.5h-441q3 -45 36.5 -76t78.5 -31h471q47 0 81 34t34 81q0 28 18.5 47.5t46.5 19.5h211q28 0 48 -19.5t20 -47.5v-13q0 -184 -131 -314t-316 -130
h-495q-185 0 -315 130t-130 314v5h-139q-19 0 -33 13t-14 32v139z" />
    <glyph glyph-name="uni20BA" unicode="&#x20ba;" horiz-adv-x="1421" 
d="M98 545q-22 -6 -39.5 7t-17.5 36v149q0 15 9 28t24 17l264 76v84l-240 -68q-22 -6 -39.5 8.5t-17.5 37.5v149q0 15 9 28t24 17l264 76v170q0 29 21.5 50.5t50.5 21.5h249q29 0 50.5 -21.5t21.5 -50.5v-55l238 67q22 6 39.5 -8t17.5 -37v-149q0 -15 -9 -28t-24 -17
l-262 -76v-86l238 69q22 6 39.5 -8t17.5 -37v-151q0 -33 -33 -43l-262 -76v-307q0 -10 8.5 -18.5t18.5 -8.5h84q77 0 132.5 56.5t55.5 134.5v90q0 19 13 32t32 13h260q19 0 32 -13t13 -32v-115q0 -113 -44 -216t-118 -178t-176.5 -119t-214.5 -44h-417q-29 0 -50.5 21.5
t-21.5 50.5v540z" />
    <glyph glyph-name="uni20BD" unicode="&#x20bd;" horiz-adv-x="1527" 
d="M41 244v176q0 29 21.5 50.5t50.5 21.5h112v96h-112q-29 0 -50.5 21t-21.5 50v175q0 29 21.5 50t50.5 21h112v455q0 29 22.5 50.5t51.5 21.5h905q117 0 200 -83t83 -200v-281q0 -116 -83 -198t-200 -82h-649v-96h649q29 0 50.5 -21.5t21.5 -50.5v-176q0 -29 -21.5 -50.5
t-50.5 -21.5h-649v-100q0 -29 -21.5 -50.5t-50.5 -21.5h-184q-29 0 -51.5 21.5t-22.5 50.5v100h-112q-29 0 -50.5 21.5t-21.5 50.5zM1055 1112h-500v-207h500q32 0 55 22t23 54v53q0 32 -23 55t-55 23z" />
    <glyph glyph-name="uni2113" unicode="&#x2113;" horiz-adv-x="1085" 
d="M41 1358q0 31 20.5 52.5t51.5 21.5h264q31 0 52.5 -21.5t21.5 -52.5v-967q0 -19 14.5 -35t34.5 -16h71q33 0 61 19.5t40 50.5q0 4 4 8q13 33 47 33h270q22 0 36.5 -15t14.5 -37v-92q0 -127 -89.5 -217t-215.5 -90h-626q-31 0 -51.5 21.5t-20.5 52.5v1284z" />
    <glyph glyph-name="trademark" unicode="&#x2122;" horiz-adv-x="1071" 
d="M543 983q-9 0 -17 8t-8 17v401q0 9 8 16t17 7h119q16 0 26 -17l86 -176q2 -2 4 0l84 176q10 17 27 17h119q9 0 15.5 -7t6.5 -16v-401q0 -9 -6.5 -17t-15.5 -8h-80q-9 0 -16 8t-7 17v194q0 3 -2.5 4t-3.5 -2l-63 -133q-11 -18 -29 -18h-64q-15 0 -26 18l-66 133
q-1 3 -3.5 2t-2.5 -4v-194q0 -9 -6.5 -17t-15.5 -8h-80zM41 1409q0 9 6.5 16t15.5 7h390q9 0 15.5 -7t6.5 -16v-63q0 -9 -6.5 -16t-15.5 -7h-123q-8 0 -8 -8v-307q0 -9 -7 -17t-16 -8h-82q-9 0 -16.5 8t-7.5 17v307q0 8 -7 8h-123q-9 0 -15.5 7t-6.5 16v63z" />
    <glyph glyph-name="uni2126" unicode="&#x2126;" horiz-adv-x="1476" 
d="M115 0q-29 0 -51.5 21.5t-22.5 50.5v243q0 29 22.5 51.5t51.5 22.5h69q9 0 13 8.5t-2 14.5q-62 67 -92.5 159.5t-30.5 239.5q0 131 47.5 245.5t132.5 197.5t210.5 130.5t274.5 47.5q301 0 483.5 -172t182.5 -449q0 -138 -37.5 -232t-103.5 -167q-2 -2 -2 -9q0 -12 12 -12
h92q29 0 50.5 -22.5t21.5 -51.5v-245q0 -29 -21.5 -50.5t-50.5 -21.5h-457q-29 0 -50 21.5t-21 50.5v295q0 29 28 43q125 66 125 290q0 70 -6 122.5t-22.5 101.5t-45 79.5t-75.5 49t-111 18.5t-111.5 -20t-75.5 -52.5t-45.5 -82t-23.5 -100.5t-6 -116q0 -221 127 -290
q12 -6 20.5 -19t8.5 -26v-293q0 -29 -21.5 -50.5t-50.5 -21.5h-436z" />
    <glyph glyph-name="estimated" unicode="&#x212e;" 
d="M387 0q-143 0 -244.5 102t-101.5 244v295q0 141 102 242.5t244 101.5h408q142 0 244 -101.5t102 -242.5v-180q0 -31 -22 -51.5t-54 -20.5h-608v-45q0 -41 28.5 -70.5t69.5 -29.5h111q38 0 57 37q14 28 43 28h338q15 0 26 -12t9 -27q-15 -115 -102 -192.5t-203 -77.5h-447
zM457 623v-45l268 2v43q0 41 -29 68.5t-69 27.5h-72q-41 0 -69.5 -27.5t-28.5 -68.5z" />
    <glyph glyph-name="partialdiff" unicode="&#x2202;" 
d="M41 346v295q0 142 100 243t244 101h346q-46 145 -125.5 250.5t-138.5 150.5q-15 10 -9 28t25 18h318q64 0 86 -33q120 -160 183 -311t71 -338v-404q0 -143 -102 -244.5t-246 -101.5h-408q-144 0 -244 101.5t-100 244.5zM403 430q0 -47 35 -81t82 -34h142q45 0 78.5 36.5
t33.5 84.5v121q0 46 -33 79.5t-79 33.5h-142q-47 0 -82 -33.5t-35 -79.5v-127z" />
    <glyph glyph-name="uni2206" unicode="&#x2206;" horiz-adv-x="1589" 
d="M90 0q-26 0 -40.5 21.5t-6.5 46.5l467 1314q8 22 27.5 36t42.5 14h428q23 0 42 -14t27 -36l469 -1314q8 -25 -6.5 -46.5t-40.5 -21.5h-1409zM571 377h445l-213 608q-3 7 -9.5 7t-9.5 -7z" />
    <glyph glyph-name="product" unicode="&#x220f;" horiz-adv-x="1468" 
d="M41 1360q0 29 21.5 50.5t50.5 21.5h1243q29 0 50 -21.5t21 -50.5v-1284q0 -31 -20.5 -53.5t-52.5 -22.5h-246q-32 0 -53 22.5t-21 53.5v938q0 10 -8 18t-18 8h-549q-10 0 -17.5 -7.5t-7.5 -18.5v-940q0 -31 -21.5 -52.5t-52.5 -21.5h-243q-32 0 -54 22.5t-22 53.5v1284z
" />
    <glyph glyph-name="summation" unicode="&#x2211;" horiz-adv-x="1513" 
d="M41 -371v342q0 67 47 111l406 395q8 7 8 18t-8 19l-406 393q-47 44 -47 111v342q0 29 21.5 50.5t50.5 21.5h1288q29 0 50.5 -21.5t21.5 -50.5v-258q0 -29 -21.5 -50.5t-50.5 -21.5h-791l324 -285q35 -30 35 -73v-330q0 -46 -31 -74l-320 -309h783q29 0 50.5 -21.5
t21.5 -50.5v-258q0 -29 -21.5 -51t-50.5 -22h-1288q-29 0 -50.5 22t-21.5 51z" />
    <glyph glyph-name="minus" unicode="&#x2212;" horiz-adv-x="1273" 
d="M41 799q0 31 22 52t54 21h1044q32 0 52 -21t20 -52v-164q0 -32 -20 -53t-52 -21h-1044q-32 0 -54 21t-22 53v164z" />
    <glyph glyph-name="uni2215" unicode="&#x2215;" horiz-adv-x="1939" 
d="M68 0q-17 0 -24 16.5t5 28.5l1352 1348q37 37 92 37h381q17 0 22.5 -16t-6.5 -28l-1351 -1347q-39 -39 -93 -39h-378z" />
    <glyph glyph-name="uni2219" unicode="&#x2219;" horiz-adv-x="399" 
d="M41 799q0 30 22.5 50.5t53.5 20.5h166q32 0 53.5 -20t21.5 -51v-164q0 -32 -21.5 -54t-53.5 -22h-166q-31 0 -53.5 22t-22.5 54v164z" />
    <glyph glyph-name="radical" unicode="&#x221a;" horiz-adv-x="1744" 
d="M45 918q-9 23 4.5 44t38.5 21h195q31 0 56.5 -16.5t37.5 -44.5l221 -510q3 -8 12.5 -8t12.5 8l618 1403q12 28 37.5 44.5t56.5 16.5h297q29 0 50.5 -22.5t21.5 -51.5v-157q0 -29 -21.5 -50.5t-50.5 -21.5h-145q-18 0 -25 -17l-663 -1511q-19 -45 -72 -45h-235
q-51 0 -70 45z" />
    <glyph glyph-name="infinity" unicode="&#x221e;" horiz-adv-x="2379" 
d="M416 188q-155 0 -265 110t-110 265v303q0 155 110 265t265 110h375q152 0 258 -106l141 -142l141 142q106 106 260 106h373q155 0 265 -110t110 -265v-303q0 -155 -110 -265t-265 -110h-373q-153 0 -260 107l-141 143l-141 -143q-107 -107 -258 -107h-375zM459 657
q0 -46 32 -78t78 -32h162q57 0 98 41l101 100q10 10 10 26t-10 27l-101 101q-41 41 -98 41h-162q-46 0 -78 -32.5t-32 -78.5v-115zM1450 741q-10 -11 -10 -27t10 -26l100 -100q41 -41 101 -41h159q46 0 78.5 32t32.5 78v115q0 46 -32.5 78.5t-78.5 32.5h-159q-60 0 -101 -41
z" />
    <glyph glyph-name="integral" unicode="&#x222b;" horiz-adv-x="983" 
d="M41 -203q0 31 22.5 53.5t53.5 22.5h94q40 0 70 28.5t30 69.5l2 1114q0 143 101 245t243 102h211q32 0 53 -21.5t21 -52.5v-170q0 -31 -21.5 -53.5t-52.5 -22.5h-94q-40 0 -70 -28.5t-30 -69.5v-1110q0 -145 -100.5 -246.5t-245.5 -101.5h-211q-32 0 -54 20t-22 51v170z
" />
    <glyph glyph-name="approxequal" unicode="&#x2248;" horiz-adv-x="1263" 
d="M96 340q-25 6 -40 25.5t-15 44.5v227q0 12 10.5 20t22.5 5q178 -48 352 -48q153 0 295 37q94 23 180 23q138 0 268 -43q23 -7 37.5 -27t14.5 -43l2 -227q0 -13 -11.5 -21.5t-23.5 -3.5q-143 47 -287 47q-97 0 -178 -20q-145 -37 -299 -37q-162 0 -328 41zM43 1098
q0 13 10.5 21t22.5 3q143 -47 286 -47q94 0 179 21q145 37 299 37q161 0 327 -41q25 -6 40.5 -26.5t15.5 -45.5v-223q0 -12 -10.5 -20t-22.5 -5q-174 47 -352 47q-151 0 -293 -37q-90 -22 -180 -22q-141 0 -271 43q-49 16 -49 67z" />
    <glyph glyph-name="notequal" unicode="&#x2260;" horiz-adv-x="1263" 
d="M123 309q-34 0 -58 24t-24 58v150q0 34 24 58t58 24h301l76 184h-377q-34 0 -58 24t-24 58v149q0 34 24 58t58 24h504l106 262q9 22 29 36t43 14h217q25 0 38.5 -20.5t4.5 -43.5l-98 -248h174q34 0 58 -24t24 -58v-149q0 -34 -24 -58t-58 -24h-301l-76 -184h377
q34 0 58 -24t24 -58v-150q0 -34 -24 -58t-58 -24h-504l-107 -262q-9 -22 -28.5 -34.5t-42.5 -12.5h-219q-25 0 -38.5 20t-4.5 43l100 246h-174z" />
    <glyph glyph-name="lessequal" unicode="&#x2264;" horiz-adv-x="1284" 
d="M41 991q0 23 13.5 43t35.5 27l1118 369q12 5 23.5 -3.5t11.5 -21.5v-238q0 -23 -13.5 -41t-35.5 -26l-455 -150l451 -133q23 -6 38 -25t15 -44v-232q0 -12 -10.5 -19.5t-22.5 -4.5l-1116 325q-23 6 -38 25.5t-15 44.5v104zM41 242q0 31 22 51t54 20h1042q32 0 54 -20
t22 -51v-168q0 -32 -22 -53t-54 -21h-1042q-32 0 -54 21t-22 53v168z" />
    <glyph glyph-name="greaterequal" unicode="&#x2265;" horiz-adv-x="1282" 
d="M90 1100q-22 8 -35.5 26t-13.5 41v238q0 14 10.5 21.5t22.5 3.5l1118 -369q22 -7 35.5 -27t13.5 -43v-104q0 -25 -14 -44.5t-37 -25.5l-1116 -325q-12 -3 -22.5 4.5t-10.5 19.5v232q0 25 14 44t37 25l453 133zM49 242q0 31 22 51t54 20h1042q32 0 53 -20t21 -51v-168
q0 -32 -21 -53t-53 -21h-1042q-32 0 -54 21t-22 53v168z" />
    <glyph glyph-name="lozenge" unicode="&#x25ca;" horiz-adv-x="1220" 
d="M57 662q-35 54 0 108l402 629q20 33 59 33h178q42 0 62 -33l403 -629q35 -54 0 -108l-403 -629q-20 -33 -62 -33h-178q-39 0 -59 33zM403 741q-17 -27 0 -53l183 -285q7 -12 21.5 -12t21.5 12l182 285q17 26 0 53l-182 285q-7 12 -21 12t-22 -12z" />
    <glyph glyph-name="uniF8FF" unicode="&#xf8ff;" horiz-adv-x="681" 
 />
    <glyph glyph-name="NULL" horiz-adv-x="0" 
 />
    <glyph glyph-name="a.alt" horiz-adv-x="1257" 
d="M41 489q0 137 31.5 233t93.5 151.5t145 80.5t195 25q124 0 200 -25t130 -77q6 -3 13 0t7 10v8q0 36 25 61t61 25h188q34 -5 60 -28.5t27 -57.5v-815q0 -34 -26 -59t-61 -25h-190q-35 0 -60.5 25.5t-25.5 60.5v8q0 8 -6 11t-12 -3q-133 -116 -330 -116q-465 0 -465 507z
M600 655q-61 0 -102 -11t-62 -34t-29 -51.5t-8 -69.5q0 -42 6.5 -68t26 -50.5t61.5 -35.5t107 -11q62 0 102.5 11t61 34t28 50.5t7.5 69.5q0 41 -6.5 68t-26.5 51t-61 35.5t-105 11.5z" />
    <glyph glyph-name="f.alt" horiz-adv-x="858" 
d="M115 -4q-31 0 -52.5 22.5t-21.5 53.5q2 927 2 950v59q0 145 102 248t246 103h352q30 0 52 -22t22 -52v-170q0 -31 -21.5 -53.5t-52.5 -22.5h-239q-40 0 -70.5 -28.5t-30.5 -69.5v-8q0 -9 8 -16t19 -7h168q31 0 53.5 -22.5t22.5 -53.5v-168q0 -31 -22 -53t-54 -22h-168
q-11 0 -19 -7t-8 -16v-569q0 -31 -21 -53.5t-50 -22.5h-217z" />
    <glyph glyph-name="t.alt" horiz-adv-x="1040" 
d="M41 1139q0 31 21.5 52t52.5 21h215q32 0 54 -21t22 -52v-133q0 -9 6.5 -16t15.5 -7h496q32 0 53.5 -22t21.5 -54v-168q0 -31 -21.5 -52t-53.5 -21h-496q-9 0 -15.5 -8t-6.5 -17v-281q0 -19 14 -34t35 -15h71q33 0 61 19.5t40 50.5q1 1 2 4t2 4q11 33 47 33h270
q22 0 36.5 -15.5t14.5 -37.5v-64q0 -127 -89.5 -217t-215.5 -90h-405q-103 0 -175.5 72.5t-72.5 173.5v895z" />
    <glyph glyph-name="agrave.alt" horiz-adv-x="1257" 
d="M41 494q0 136 31.5 231.5t93.5 151.5t145.5 81t196.5 25q123 0 199 -25t131 -77q4 -3 11 0t7 10v8q0 35 25.5 60.5t60.5 25.5h191q33 -5 58 -28.5t26 -57.5v-815q0 -34 -24.5 -59t-59.5 -25h-193q-35 0 -60.5 25.5t-25.5 60.5v8q0 8 -6 11t-10 -3q-64 -54 -141 -85
t-189 -31q-467 0 -467 508zM600 657q-117 0 -158 -39.5t-41 -123.5q0 -42 6 -68t25.5 -50.5t61 -36t106.5 -11.5q63 0 103.5 11t61 34.5t27.5 51t7 69.5q0 41 -6.5 67.5t-26.5 50t-61 34.5t-105 11zM471 1434h176q19 0 32.5 -12t16.5 -31l35 -248q3 -23 -11.5 -40.5
t-37.5 -17.5h-33q-27 0 -41 21l-176 250q-18 25 -4.5 51.5t43.5 26.5z" />
    <glyph glyph-name="aacute.alt" horiz-adv-x="1259" 
d="M508 -14q-467 0 -467 508q0 136 31.5 231.5t94 151.5t146 81t195.5 25q123 0 200 -25t130 -77q6 -3 13 0t7 10v8q0 35 24.5 60.5t59.5 25.5h191q33 -5 59 -28.5t27 -57.5v-815q0 -34 -25.5 -59t-60.5 -25h-193q-34 0 -59 25.5t-25 60.5v8q0 8 -6 11t-12 -3
q-133 -116 -330 -116zM600 657q-117 0 -158 -39.5t-41 -123.5q0 -42 6.5 -68.5t26 -50.5t60.5 -35.5t106 -11.5q63 0 104 11t61.5 34.5t28 51t7.5 69.5q0 41 -6.5 67.5t-26.5 50t-61.5 34.5t-106.5 11zM526 1143l35 248q3 19 16.5 31t32.5 12h176q31 0 44.5 -26.5
t-3.5 -51.5l-176 -250q-17 -21 -41 -21h-35q-23 0 -37.5 17.5t-11.5 40.5z" />
    <glyph glyph-name="acircumflex.alt" horiz-adv-x="1259" 
d="M508 -14q-467 0 -467 508q0 136 31.5 231.5t94 151.5t146 81t195.5 25q123 0 200 -25t130 -77q6 -3 13 0t7 10v8q0 35 24.5 60.5t59.5 25.5h191q33 -5 59 -28.5t27 -57.5v-815q0 -34 -25.5 -59t-60.5 -25h-193q-34 0 -59 25.5t-25 60.5v8q0 8 -6 11t-12 -3
q-133 -116 -330 -116zM338 1061q-11 0 -17.5 8t-3.5 18l144 328q8 19 31 19h276q23 0 31 -19l143 -328q3 -10 -3 -18t-17 -8h-179q-24 0 -30 18l-78 168q-1 1 -5 1t-5 -1l-78 -168q-6 -18 -31 -18h-178zM401 494q0 -42 6.5 -68.5t26 -50.5t60.5 -35.5t106 -11.5q63 0 104 11
t61.5 34.5t28 51t7.5 69.5q0 41 -6.5 67.5t-26.5 50t-61.5 34.5t-106.5 11q-117 0 -158 -39.5t-41 -123.5z" />
    <glyph glyph-name="atilde.alt" horiz-adv-x="1259" 
d="M41 494q0 136 31.5 231.5t94 151.5t146 81t195.5 25q123 0 200 -25t130 -77q6 -3 13 0t7 10v8q0 35 24.5 60.5t59.5 25.5h191q33 -5 59 -28.5t27 -57.5v-815q0 -34 -25.5 -59t-60.5 -25h-193q-34 0 -59 25.5t-25 60.5v8q0 8 -6 11t-12 -3q-133 -116 -330 -116
q-467 0 -467 508zM195 1219q22 111 112 170l4 2q67 43 146 43q78 0 145 -43l158 -107q21 -12 45 -12q25 0 43 12l2 2q23 17 31 41q11 29 39 29h102q20 0 33 -15.5t10 -35.5q-18 -107 -115 -172h-2q-64 -46 -143 -46q-82 0 -146 46l-159 104q-17 14 -43 14q-25 0 -45 -14
l-2 -2q-25 -14 -31 -39q-10 -27 -41 -27h-100q-20 0 -33 15.5t-10 34.5zM401 494q0 -42 6.5 -68.5t26 -50.5t60.5 -35.5t106 -11.5q63 0 104 11t61.5 34.5t28 51t7.5 69.5q0 41 -6.5 67.5t-26.5 50t-61.5 34.5t-106.5 11q-117 0 -158 -39.5t-41 -123.5z" />
    <glyph glyph-name="adieresis.alt" horiz-adv-x="1259" 
d="M41 494q0 136 31.5 231.5t94 151.5t146 81t195.5 25q123 0 200 -25t130 -77q6 -3 13 0t7 10v8q0 35 24.5 60.5t59.5 25.5h191q33 -5 59 -28.5t27 -57.5v-815q0 -34 -25.5 -59t-60.5 -25h-193q-34 0 -59 25.5t-25 60.5v8q0 8 -6 11t-12 -3q-133 -116 -330 -116
q-467 0 -467 508zM401 494q0 -42 6.5 -68.5t26 -50.5t60.5 -35.5t106 -11.5q63 0 104 11t61.5 34.5t28 51t7.5 69.5q0 41 -6.5 67.5t-26.5 50t-61.5 34.5t-106.5 11q-117 0 -158 -39.5t-41 -123.5zM786 1120q-31 0 -53 21.5t-22 52.5v166q0 31 22 52.5t53 21.5h166
q32 0 54 -21.5t22 -52.5v-166q0 -31 -22 -52.5t-54 -21.5h-166zM307 1120q-31 0 -53.5 21.5t-22.5 52.5v166q0 31 22.5 52.5t53.5 21.5h166q32 0 54 -21.5t22 -52.5v-166q0 -31 -22 -52.5t-54 -21.5h-166z" />
    <glyph glyph-name="aring.alt" horiz-adv-x="1259" 
d="M41 494q0 137 31.5 233t94 152t146 81t195.5 25q121 0 198.5 -26t131.5 -76q6 -4 13 -1t7 9v10q0 35 24.5 60.5t59.5 25.5h191q33 -6 59 -30t27 -56v-817q0 -34 -25.5 -59t-60.5 -25h-193q-34 0 -59 25.5t-25 60.5v8q0 8 -6 11t-12 -3q-133 -116 -330 -116
q-467 0 -467 508zM420 1278q0 86 61.5 147.5t149.5 61.5q86 0 147.5 -61.5t61.5 -147.5q0 -87 -61 -148t-148 -61q-88 0 -149.5 60.5t-61.5 148.5zM600 659q-117 0 -158 -40.5t-41 -124.5q0 -42 6.5 -68.5t26 -50.5t60.5 -35.5t106 -11.5q63 0 104 11t61.5 34.5t28 51
t7.5 69.5t-6.5 68.5t-27 50.5t-61.5 35t-106 11zM629 1208q29 0 50 20.5t21 49.5q0 28 -21 49t-50 21q-28 0 -49 -21t-21 -49q0 -29 21 -49.5t49 -20.5z" />
    <glyph glyph-name="amacron.alt" horiz-adv-x="1259" 
d="M41 494q0 136 31.5 231.5t94 151.5t146 81t195.5 25q121 0 198.5 -26t131.5 -76q6 -3 13 0t7 10v8q0 35 24.5 60.5t59.5 25.5h191q32 -5 58.5 -29.5t27.5 -56.5v-815q0 -34 -25.5 -59t-60.5 -25h-193q-34 0 -59 25.5t-25 60.5v8q0 8 -6 11t-12 -3q-133 -116 -330 -116
q-467 0 -467 508zM231 1352q0 34 24.5 58t59.5 24h629q35 0 59.5 -24t24.5 -58v-150q0 -34 -24.5 -58t-59.5 -24h-629q-35 0 -59.5 24t-24.5 58v150zM401 494q0 -42 6.5 -68.5t26 -50.5t60.5 -35.5t106 -11.5q63 0 104 11t61.5 34.5t28 51t7.5 69.5q0 41 -6.5 67.5t-26.5 50
t-61.5 34.5t-106.5 11q-117 0 -158 -39.5t-41 -123.5z" />
    <glyph glyph-name="abreve.alt" horiz-adv-x="1259" 
d="M41 494q0 136 31.5 231.5t94 151.5t146 81t195.5 25q121 0 198.5 -26t131.5 -76q6 -3 13 0t7 10v8q0 35 24.5 60.5t59.5 25.5h191q32 -5 58.5 -29.5t27.5 -56.5v-815q0 -34 -25.5 -59t-60.5 -25h-193q-34 0 -59 25.5t-25 60.5v8q0 8 -6 11t-12 -3q-133 -116 -330 -116
q-467 0 -467 508zM350 1434h125q36 0 49 -37q11 -33 40.5 -54.5t64.5 -21.5q36 0 65.5 21.5t40.5 54.5q13 37 49 37h125q25 0 41 -18.5t11 -41.5q-22 -119 -115 -197.5t-217 -78.5q-122 0 -215 78.5t-115 197.5q-5 23 10.5 41.5t40.5 18.5zM600 657q-117 0 -158 -39.5
t-41 -123.5q0 -42 6.5 -68.5t26 -50.5t60.5 -35.5t106 -11.5q63 0 104 11t61.5 34.5t28 51t7.5 69.5q0 41 -6.5 67.5t-26.5 50t-61.5 34.5t-106.5 11z" />
    </font>
</defs>
</svg>
